Martel Devanagari-Regular.ufo
<glyph name="visargadeva" format="1">
  <advance width="307"/>
  <unicode hex="0903"/>
  <outline>
    <contour>
      <point x="152" y="355" type="line"/>
      <point x="229" y="434" type="line"/>
      <point x="151" y="512" type="line"/>
      <point x="74" y="433" type="line"/>
    </contour>
    <contour>
      <point x="152" y="19" type="line"/>
      <point x="229" y="98" type="line"/>
      <point x="151" y="176" type="line"/>
      <point x="74" y="97" type="line"/>
    </contour>
  </outline>
</glyph>
<glyph name="ideva" format="1">
  <advance width="517"/>
  <unicode hex="0907"/>
  <outline>
    <contour>
      <point x="-31" y="650" type="line"/>
      <point x="-31" y="634" type="line"/>
      <point x="0" y="575" type="line"/>
      <point x="319" y="575" type="line"/>
      <point x="319" y="495" type="line"/>
      <point x="175" y="495" type="line" smooth="yes"/>
      <point x="116" y="495"/>
      <point x="82" y="447"/>
      <point x="82" y="373" type="curve" smooth="yes"/>
      <point x="82" y="305"/>
      <point x="180" y="214"/>
      <point x="226" y="214" type="curve" smooth="yes"/>
      <point x="275" y="214"/>
      <point x="339" y="244"/>
      <point x="372" y="244" type="curve"/>
      <point x="388" y="237"/>
      <point x="397" y="201"/>
      <point x="397" y="177" type="curve" smooth="yes"/>
      <point x="397" y="104"/>
      <point x="289" y="72"/>
      <point x="175" y="72" type="curve"/>
      <point x="187" y="147" type="line"/>
      <point x="180" y="150"/>
      <point x="166" y="152"/>
      <point x="154" y="152" type="curve" smooth="yes"/>
      <point x="119" y="152"/>
      <point x="61" y="136"/>
      <point x="61" y="81" type="curve" smooth="yes"/>
      <point x="61" y="22"/>
      <point x="161" y="-3"/>
      <point x="222" y="-3" type="curve" smooth="yes"/>
      <point x="336" y="-3"/>
      <point x="441" y="67"/>
      <point x="441" y="149" type="curve" smooth="yes"/>
      <point x="441" y="223"/>
      <point x="391" y="319"/>
      <point x="334" y="319" type="curve" smooth="yes"/>
      <point x="296" y="319"/>
      <point x="231" y="289"/>
      <point x="180" y="289" type="curve" smooth="yes"/>
      <point x="161" y="289"/>
      <point x="139" y="317"/>
      <point x="139" y="346" type="curve" smooth="yes"/>
      <point x="139" y="374"/>
      <point x="151" y="415"/>
      <point x="198" y="415" type="curve" smooth="yes"/>
      <point x="407" y="415" type="line"/>
      <point x="407" y="575" type="line"/>
      <point x="517" y="575" type="line"/>
      <point x="517" y="590" type="line"/>
      <point x="485" y="650" type="line"/>
    </contour>
    <contour>
      <point x="294" y="-168" type="line"/>
      <point x="340" y="-134" type="line"/>
      <point x="173" y="22" type="line"/>
      <point x="127" y="23" type="line"/>
    </contour>
  </outline>
</glyph>
<glyph name="iideva" format="1">
  <advance width="517"/>
  <unicode hex="0908"/>
  <outline>
    <contour>
      <point x="-31" y="650" type="line"/>
      <point x="-31" y="634" type="line"/>
      <point x="0" y="575" type="line"/>
      <point x="319" y="575" type="line"/>
      <point x="319" y="495" type="line"/>
      <point x="175" y="495" type="line" smooth="yes"/>
      <point x="116" y="495"/>
      <point x="82" y="447"/>
      <point x="82" y="373" type="curve" smooth="yes"/>
      <point x="82" y="305"/>
      <point x="180" y="214"/>
      <point x="226" y="214" type="curve" smooth="yes"/>
      <point x="275" y="214"/>
      <point x="339" y="244"/>
      <point x="372" y="244" type="curve"/>
      <point x="388" y="237"/>
      <point x="397" y="201"/>
      <point x="397" y="177" type="curve" smooth="yes"/>
      <point x="397" y="109"/>
      <point x="302" y="76"/>
      <point x="197" y="72" type="curve"/>
      <point x="146" y="149" type="line"/>
      <point x="143" y="150"/>
      <point x="137" y="151"/>
      <point x="130" y="151" type="curve" smooth="yes"/>
      <point x="104" y="151"/>
      <point x="61" y="120"/>
      <point x="61" y="76" type="curve" smooth="yes"/>
      <point x="61" y="22"/>
      <point x="161" y="-3"/>
      <point x="222" y="-3" type="curve" smooth="yes"/>
      <point x="336" y="-3"/>
      <point x="441" y="67"/>
      <point x="441" y="149" type="curve" smooth="yes"/>
      <point x="441" y="223"/>
      <point x="391" y="319"/>
      <point x="334" y="319" type="curve" smooth="yes"/>
      <point x="296" y="319"/>
      <point x="231" y="289"/>
      <point x="180" y="289" type="curve" smooth="yes"/>
      <point x="161" y="289"/>
      <point x="139" y="317"/>
      <point x="139" y="346" type="curve" smooth="yes"/>
      <point x="139" y="374"/>
      <point x="151" y="415"/>
      <point x="198" y="415" type="curve" smooth="yes"/>
      <point x="407" y="415" type="line"/>
      <point x="407" y="575" type="line"/>
      <point x="517" y="575" type="line"/>
      <point x="517" y="590" type="line"/>
      <point x="485" y="650" type="line"/>
    </contour>
    <contour>
      <point x="272" y="-167" type="line"/>
      <point x="335" y="-135" type="line"/>
      <point x="230" y="23" type="line"/>
      <point x="181" y="24" type="line"/>
    </contour>
    <contour>
      <point x="281" y="983"/>
      <point x="199" y="928"/>
      <point x="199" y="841" type="curve" smooth="yes"/>
      <point x="199" y="774"/>
      <point x="252" y="703"/>
      <point x="317" y="652" type="curve"/>
      <point x="317" y="591" type="line"/>
      <point x="382" y="650" type="line"/>
      <point x="342" y="687"/>
      <point x="294" y="754"/>
      <point x="294" y="814" type="curve" smooth="yes"/>
      <point x="294" y="878"/>
      <point x="334" y="909"/>
      <point x="383" y="909" type="curve" smooth="yes"/>
      <point x="427" y="909"/>
      <point x="480" y="883"/>
      <point x="502" y="866" type="curve"/>
      <point x="528" y="908" type="line"/>
      <point x="485" y="953"/>
      <point x="427" y="983"/>
      <point x="368" y="983" type="curve" smooth="yes"/>
    </contour>
  </outline>
</glyph>
<glyph name="udeva" format="1">
  <advance width="604"/>
  <unicode hex="0909"/>
  <outline>
    <contour>
      <point x="25" y="268" type="line"/>
      <point x="74" y="180"/>
      <point x="208" y="-10"/>
      <point x="382" y="-10" type="curve" smooth="yes"/>
      <point x="483" y="-10"/>
      <point x="542" y="80"/>
      <point x="542" y="150" type="curve" smooth="yes"/>
      <point x="542" y="223"/>
      <point x="476" y="284"/>
      <point x="422" y="325" type="curve"/>
      <point x="455" y="350"/>
      <point x="478" y="386"/>
      <point x="478" y="434" type="curve" smooth="yes"/>
      <point x="478" y="470"/>
      <point x="442" y="528"/>
      <point x="405" y="575" type="curve"/>
      <point x="604" y="575" type="line"/>
      <point x="604" y="590" type="line"/>
      <point x="573" y="650" type="line"/>
      <point x="-31" y="650" type="line"/>
      <point x="-31" y="634" type="line"/>
      <point x="0" y="575" type="line"/>
      <point x="334" y="575" type="line"/>
      <point x="363" y="554"/>
      <point x="410" y="509"/>
      <point x="410" y="470" type="curve" smooth="yes"/>
      <point x="410" y="415"/>
      <point x="364" y="380"/>
      <point x="275" y="380" type="curve" smooth="yes"/>
      <point x="245" y="380"/>
      <point x="209" y="386"/>
      <point x="191" y="388" type="curve"/>
      <point x="182" y="371" type="line"/>
      <point x="214" y="299" type="line"/>
      <point x="239" y="291"/>
      <point x="268" y="286"/>
      <point x="303" y="286" type="curve" smooth="yes"/>
      <point x="326" y="286"/>
      <point x="350" y="291"/>
      <point x="374" y="299" type="curve"/>
      <point x="411" y="273"/>
      <point x="464" y="234"/>
      <point x="464" y="179" type="curve" smooth="yes"/>
      <point x="464" y="128"/>
      <point x="419" y="70"/>
      <point x="345" y="70" type="curve" smooth="yes"/>
      <point x="237" y="70"/>
      <point x="110" y="199"/>
      <point x="60" y="294" type="curve"/>
    </contour>
  </outline>
</glyph>
<glyph name="khadeva" format="1">
  <advance width="861"/>
  <unicode hex="0916"/>
  <outline>
    <contour>
      <point x="-31" y="650" type="line"/>
      <point x="-31" y="634" type="line"/>
      <point x="0" y="575" type="line"/>
      <point x="663" y="575" type="line"/>
      <point x="663" y="425" type="line"/>
      <point x="644" y="425" type="line"/>
      <point x="662" y="394" type="line"/>
      <point x="664" y="287" type="line"/>
      <point x="645" y="257" type="line"/>
      <point x="665" y="257" type="line"/>
      <point x="665" y="84" type="line"/>
      <point x="661" y="0" type="line"/>
      <point x="735" y="-42" type="line"/>
      <point x="751" y="-42" type="line"/>
      <point x="751" y="575" type="line"/>
      <point x="861" y="575" type="line"/>
      <point x="861" y="590" type="line"/>
      <point x="829" y="650" type="line"/>
    </contour>
    <contour>
      <point x="413" y="507"/>
      <point x="341" y="445"/>
      <point x="341" y="346" type="curve" smooth="yes"/>
      <point x="341" y="249"/>
      <point x="426" y="180"/>
      <point x="513" y="180" type="curve" smooth="yes"/>
      <point x="579" y="180"/>
      <point x="630" y="231"/>
      <point x="674" y="265" type="curve"/>
      <point x="672" y="378" type="line"/>
      <point x="630" y="313"/>
      <point x="549" y="251"/>
      <point x="482" y="251" type="curve" smooth="yes"/>
      <point x="427" y="251"/>
      <point x="388" y="284"/>
      <point x="388" y="318" type="curve" smooth="yes"/>
      <point x="388" y="376"/>
      <point x="454" y="427"/>
      <point x="533" y="427" type="curve" smooth="yes"/>
      <point x="583" y="427"/>
      <point x="647" y="403"/>
      <point x="673" y="346" type="curve"/>
      <point x="671" y="414" type="line"/>
      <point x="641" y="449"/>
      <point x="586" y="507"/>
      <point x="505" y="507" type="curve" smooth="yes"/>
    </contour>
    <contour>
      <point x="178" y="585" type="line"/>
      <point x="185" y="545"/>
      <point x="189" y="482"/>
      <point x="189" y="450" type="curve" smooth="yes"/>
      <point x="189" y="407"/>
      <point x="176" y="358"/>
      <point x="164" y="340" type="curve"/>
      <point x="109" y="382" type="line"/>
      <point x="90" y="370"/>
      <point x="58" y="340"/>
      <point x="58" y="306" type="curve" smooth="yes"/>
      <point x="58" y="271"/>
      <point x="84" y="242"/>
      <point x="135" y="186" type="curve" smooth="yes"/>
      <point x="213" y="101"/>
      <point x="335" y="-9"/>
      <point x="443" y="-9" type="curve" smooth="yes"/>
      <point x="518" y="-9"/>
      <point x="618" y="30"/>
      <point x="673" y="69" type="curve"/>
      <point x="674" y="165" type="line"/>
      <point x="616" y="102"/>
      <point x="506" y="59"/>
      <point x="442" y="59" type="curve" smooth="yes"/>
      <point x="324" y="59"/>
      <point x="219" y="166"/>
      <point x="179" y="211" type="curve"/>
      <point x="222" y="252"/>
      <point x="271" y="307"/>
      <point x="271" y="404" type="curve" smooth="yes"/>
      <point x="271" y="448"/>
      <point x="264" y="529"/>
      <point x="252" y="585" type="curve"/>
    </contour>
    <contour>
      <point x="707" y="650" type="move" name="top"/>
    </contour>
    <contour>
      <point x="707" y="0" type="move" name="bottom"/>
    </contour>
    <contour>
      <point x="194" y="111" type="move" name="_nukta"/>
    </contour>
  </outline>
</glyph>
<glyph name="cadeva" format="1">
  <advance width="666"/>
  <unicode hex="091A"/>
  <outline>
    <contour>
      <point x="666" y="575" type="line"/>
      <point x="666" y="590" type="line"/>
      <point x="634" y="650" type="line"/>
      <point x="-31" y="650" type="line"/>
      <point x="-31" y="634" type="line"/>
      <point x="0" y="575" type="line"/>
      <point x="468" y="575" type="line"/>
      <point x="468" y="265" type="line"/>
      <point x="431" y="213"/>
      <point x="335" y="143"/>
      <point x="277" y="143" type="curve" smooth="yes"/>
      <point x="234" y="143"/>
      <point x="194" y="188"/>
      <point x="194" y="232" type="curve" smooth="yes"/>
      <point x="194" y="295"/>
      <point x="235" y="347"/>
      <point x="296" y="356" type="curve"/>
      <point x="410" y="356" type="line"/>
      <point x="410" y="372" type="line"/>
      <point x="379" y="431" type="line"/>
      <point x="32" y="431" type="line"/>
      <point x="32" y="416" type="line"/>
      <point x="64" y="356" type="line"/>
      <point x="163" y="356" type="line"/>
      <point x="142" y="328"/>
      <point x="127" y="295"/>
      <point x="127" y="257" type="curve" smooth="yes"/>
      <point x="127" y="208"/>
      <point x="160" y="164"/>
      <point x="186" y="138" type="curve" smooth="yes"/>
      <point x="214" y="110"/>
      <point x="258" y="91"/>
      <point x="309" y="91" type="curve" smooth="yes"/>
      <point x="360" y="91"/>
      <point x="422" y="114"/>
      <point x="466" y="147" type="curve"/>
      <point x="469" y="145" type="line"/>
      <point x="466" y="0" type="line"/>
      <point x="540" y="-42" type="line"/>
      <point x="556" y="-42" type="line"/>
      <point x="556" y="575" type="line"/>
    </contour>
    <contour>
      <point x="511" y="650" type="move" name="top"/>
    </contour>
    <contour>
      <point x="511" y="0" type="move" name="bottom"/>
    </contour>
  </outline>
</glyph>
<glyph name="chadeva" format="1">
  <advance width="767"/>
  <unicode hex="091B"/>
  <outline>
    <contour>
      <point x="767" y="575" type="line"/>
      <point x="767" y="590" type="line"/>
      <point x="735" y="650" type="line"/>
      <point x="-31" y="650" type="line"/>
      <point x="-31" y="634" type="line"/>
      <point x="0" y="575" type="line"/>
      <point x="513" y="575" type="line"/>
      <point x="513" y="483" type="line"/>
      <point x="453" y="480"/>
      <point x="407" y="445"/>
      <point x="407" y="379" type="curve" smooth="yes"/>
      <point x="407" y="286"/>
      <point x="492" y="206"/>
      <point x="578" y="169" type="curve"/>
      <point x="512" y="92"/>
      <point x="407" y="45"/>
      <point x="307" y="45" type="curve" smooth="yes"/>
      <point x="251" y="45"/>
      <point x="206" y="89"/>
      <point x="206" y="122" type="curve" smooth="yes"/>
      <point x="206" y="159"/>
      <point x="233" y="215"/>
      <point x="294" y="215" type="curve" smooth="yes"/>
      <point x="317" y="215"/>
      <point x="345" y="212"/>
      <point x="365" y="207" type="curve"/>
      <point x="375" y="233" type="line"/>
      <point x="356" y="278" type="line"/>
      <point x="333" y="283"/>
      <point x="302" y="285"/>
      <point x="268" y="285" type="curve" smooth="yes"/>
      <point x="248" y="285"/>
      <point x="227" y="280"/>
      <point x="210" y="273" type="curve"/>
      <point x="176" y="273"/>
      <point x="134" y="301"/>
      <point x="134" y="335" type="curve" smooth="yes"/>
      <point x="134" y="383"/>
      <point x="173" y="408"/>
      <point x="212" y="408" type="curve" smooth="yes"/>
      <point x="242" y="408"/>
      <point x="286" y="397"/>
      <point x="317" y="380" type="curve"/>
      <point x="284" y="458" type="line"/>
      <point x="269" y="465"/>
      <point x="234" y="474"/>
      <point x="195" y="474" type="curve" smooth="yes"/>
      <point x="117" y="474"/>
      <point x="59" y="416"/>
      <point x="59" y="358" type="curve" smooth="yes"/>
      <point x="59" y="312"/>
      <point x="100" y="280"/>
      <point x="159" y="238" type="curve"/>
      <point x="134" y="213"/>
      <point x="119" y="180"/>
      <point x="119" y="148" type="curve" smooth="yes"/>
      <point x="119" y="97"/>
      <point x="254" y="-27"/>
      <point x="358" y="-27" type="curve" smooth="yes"/>
      <point x="536" y="-27"/>
      <point x="713" y="133"/>
      <point x="713" y="303" type="curve" smooth="yes"/>
      <point x="713" y="397"/>
      <point x="657" y="445"/>
      <point x="601" y="467" type="curve"/>
      <point x="601" y="575" type="line"/>
    </contour>
    <contour>
      <point x="483" y="400"/>
      <point x="510" y="422"/>
      <point x="547" y="422" type="curve" smooth="yes"/>
      <point x="589" y="422"/>
      <point x="641" y="398"/>
      <point x="641" y="334" type="curve" smooth="yes"/>
      <point x="641" y="290"/>
      <point x="629" y="249"/>
      <point x="608" y="212" type="curve"/>
      <point x="550" y="234"/>
      <point x="483" y="292"/>
      <point x="483" y="354" type="curve" smooth="yes"/>
    </contour>
    <contour>
      <point x="557" y="650" type="move" name="top"/>
    </contour>
    <contour>
      <point x="557" y="0" type="move" name="bottom"/>
    </contour>
  </outline>
</glyph>
<glyph name="jhadeva" format="1">
  <advance width="787"/>
  <unicode hex="091D"/>
  <outline>
    <contour>
      <point x="-31" y="650" type="line"/>
      <point x="-31" y="634" type="line"/>
      <point x="0" y="575" type="line"/>
      <point x="319" y="575" type="line"/>
      <point x="319" y="495" type="line"/>
      <point x="175" y="495" type="line" smooth="yes"/>
      <point x="116" y="495"/>
      <point x="82" y="447"/>
      <point x="82" y="373" type="curve" smooth="yes"/>
      <point x="82" y="305"/>
      <point x="180" y="214"/>
      <point x="226" y="214" type="curve" smooth="yes"/>
      <point x="275" y="214"/>
      <point x="339" y="244"/>
      <point x="372" y="244" type="curve"/>
      <point x="388" y="237"/>
      <point x="397" y="201"/>
      <point x="397" y="177" type="curve" smooth="yes"/>
      <point x="397" y="104"/>
      <point x="289" y="72"/>
      <point x="175" y="72" type="curve"/>
      <point x="187" y="147" type="line"/>
      <point x="180" y="150"/>
      <point x="166" y="152"/>
      <point x="154" y="152" type="curve" smooth="yes"/>
      <point x="119" y="152"/>
      <point x="61" y="136"/>
      <point x="61" y="81" type="curve" smooth="yes"/>
      <point x="61" y="23"/>
      <point x="158" y="-3"/>
      <point x="222" y="-3" type="curve" smooth="yes"/>
      <point x="336" y="-3"/>
      <point x="441" y="67"/>
      <point x="441" y="149" type="curve" smooth="yes"/>
      <point x="441" y="220"/>
      <point x="393" y="319"/>
      <point x="334" y="319" type="curve" smooth="yes"/>
      <point x="296" y="319"/>
      <point x="231" y="289"/>
      <point x="180" y="289" type="curve" smooth="yes"/>
      <point x="161" y="289"/>
      <point x="139" y="317"/>
      <point x="139" y="346" type="curve" smooth="yes"/>
      <point x="139" y="374"/>
      <point x="151" y="415"/>
      <point x="198" y="415" type="curve" smooth="yes"/>
      <point x="407" y="415" type="line"/>
      <point x="407" y="575" type="line"/>
      <point x="590" y="575" type="line"/>
      <point x="590" y="-1" type="line"/>
      <point x="662" y="-42" type="line"/>
      <point x="677" y="-42" type="line"/>
      <point x="677" y="575" type="line"/>
      <point x="787" y="575" type="line"/>
      <point x="787" y="590" type="line"/>
      <point x="755" y="650" type="line"/>
    </contour>
    <contour>
      <point x="126" y="24" type="line"/>
      <point x="294" y="-168" type="line"/>
      <point x="340" y="-134" type="line"/>
      <point x="170" y="25" type="line"/>
    </contour>
    <contour>
      <point x="582" y="297"/>
      <point x="544" y="280"/>
      <point x="494" y="280" type="curve" smooth="yes"/>
      <point x="451" y="280"/>
      <point x="416" y="287"/>
      <point x="384" y="295" type="curve"/>
      <point x="393" y="256" type="line"/>
      <point x="416" y="256" type="line"/>
      <point x="456" y="225"/>
      <point x="490" y="202"/>
      <point x="534" y="202" type="curve" smooth="yes"/>
      <point x="550" y="202"/>
      <point x="576" y="207"/>
      <point x="588" y="210" type="curve"/>
      <point x="609" y="210" type="line"/>
      <point x="600" y="312" type="line"/>
    </contour>
    <contour>
      <point x="633" y="650" type="move" name="top"/>
    </contour>
    <contour>
      <point x="633" y="0" type="move" name="bottom"/>
    </contour>
  </outline>
</glyph>
<glyph name="jhadeva" format="1">
  <advance width="787"/>
  <unicode hex="091D"/>
  <outline>
    <contour>
      <point x="336" y="-3"/>
      <point x="441" y="67"/>
      <point x="441" y="149" type="curve" smooth="yes"/>
      <point x="441" y="183"/>
      <point x="429" y="223"/>
      <point x="413" y="256" type="curve"/>
      <point x="416" y="256" type="line"/>
      <point x="456" y="225"/>
      <point x="490" y="202"/>
      <point x="534" y="202" type="curve" smooth="yes"/>
      <point x="550" y="202"/>
      <point x="576" y="207"/>
      <point x="588" y="210" type="curve"/>
      <point x="590" y="210" type="line"/>
      <point x="590" y="-1" type="line"/>
      <point x="662" y="-42" type="line"/>
      <point x="677" y="-42" type="line"/>
      <point x="677" y="575" type="line"/>
      <point x="787" y="575" type="line"/>
      <point x="787" y="590" type="line"/>
      <point x="755" y="650" type="line"/>
      <point x="-31" y="650" type="line"/>
      <point x="-31" y="634" type="line"/>
      <point x="0" y="575" type="line"/>
      <point x="319" y="575" type="line"/>
      <point x="319" y="495" type="line"/>
      <point x="175" y="495" type="line" smooth="yes"/>
      <point x="116" y="495"/>
      <point x="82" y="447"/>
      <point x="82" y="373" type="curve" smooth="yes"/>
      <point x="82" y="305"/>
      <point x="180" y="214"/>
      <point x="226" y="214" type="curve" smooth="yes"/>
      <point x="275" y="214"/>
      <point x="339" y="244"/>
      <point x="372" y="244" type="curve"/>
      <point x="388" y="237"/>
      <point x="397" y="201"/>
      <point x="397" y="177" type="curve" smooth="yes"/>
      <point x="397" y="104"/>
      <point x="289" y="72"/>
      <point x="175" y="72" type="curve"/>
      <point x="187" y="147" type="line"/>
      <point x="180" y="150"/>
      <point x="166" y="152"/>
      <point x="154" y="152" type="curve" smooth="yes"/>
      <point x="119" y="152"/>
      <point x="61" y="136"/>
      <point x="61" y="81" type="curve" smooth="yes"/>
      <point x="61" y="46"/>
      <point x="97" y="22"/>
      <point x="139" y="10" type="curve"/>
      <point x="294" y="-168" type="line"/>
      <point x="340" y="-134" type="line"/>
      <point x="199" y="-2" type="line"/>
      <point x="207" y="-3"/>
      <point x="215" y="-3"/>
      <point x="222" y="-3" type="curve" smooth="yes"/>
    </contour>
    <contour>
      <point x="407" y="415" type="line"/>
      <point x="407" y="575" type="line"/>
      <point x="590" y="575" type="line"/>
      <point x="590" y="305" type="line"/>
      <point x="568" y="291"/>
      <point x="533" y="280"/>
      <point x="494" y="280" type="curve" smooth="yes"/>
      <point x="451" y="280"/>
      <point x="416" y="287"/>
      <point x="384" y="295" type="curve"/>
      <point x="369" y="310"/>
      <point x="351" y="319"/>
      <point x="334" y="319" type="curve" smooth="yes"/>
      <point x="296" y="319"/>
      <point x="231" y="289"/>
      <point x="180" y="289" type="curve" smooth="yes"/>
      <point x="161" y="289"/>
      <point x="139" y="317"/>
      <point x="139" y="346" type="curve" smooth="yes"/>
      <point x="139" y="374"/>
      <point x="151" y="415"/>
      <point x="198" y="415" type="curve" smooth="yes"/>
    </contour>
    <contour>
      <point x="633" y="650" type="move" name="top"/>
    </contour>
    <contour>
      <point x="633" y="0" type="move" name="bottom"/>
    </contour>
  </outline>
</glyph>
<glyph name="nyadeva" format="1">
  <advance width="772"/>
  <unicode hex="091E"/>
  <outline>
    <contour>
      <point x="772" y="575" type="line"/>
      <point x="772" y="590" type="line"/>
      <point x="741" y="650" type="line"/>
      <point x="-31" y="650" type="line"/>
      <point x="-31" y="634" type="line"/>
      <point x="0" y="575" type="line"/>
      <point x="575" y="575" type="line"/>
      <point x="575" y="340" type="line"/>
      <point x="548" y="317"/>
      <point x="502" y="312"/>
      <point x="473" y="313" type="curve"/>
      <point x="448" y="388"/>
      <point x="354" y="451"/>
      <point x="293" y="451" type="curve" smooth="yes"/>
      <point x="264" y="451"/>
      <point x="224" y="433"/>
      <point x="184" y="406" type="curve"/>
      <point x="245" y="331" type="line"/>
      <point x="272" y="352"/>
      <point x="312" y="376"/>
      <point x="340" y="376" type="curve" smooth="yes"/>
      <point x="386" y="376"/>
      <point x="408" y="332"/>
      <point x="408" y="300" type="curve" smooth="yes"/>
      <point x="408" y="245"/>
      <point x="361" y="203"/>
      <point x="297" y="203" type="curve" smooth="yes"/>
      <point x="218" y="203"/>
      <point x="148" y="259"/>
      <point x="48" y="359" type="curve"/>
      <point x="14" y="331" type="line"/>
      <point x="122" y="202"/>
      <point x="227" y="119"/>
      <point x="326" y="119" type="curve" smooth="yes"/>
      <point x="416" y="119"/>
      <point x="470" y="188"/>
      <point x="479" y="260" type="curve"/>
      <point x="482" y="260" type="line"/>
      <point x="495" y="254"/>
      <point x="518" y="239"/>
      <point x="538" y="239" type="curve" smooth="yes"/>
      <point x="549" y="239"/>
      <point x="560" y="242"/>
      <point x="573" y="252" type="curve"/>
      <point x="575" y="252" type="line"/>
      <point x="575" y="-1" type="line"/>
      <point x="647" y="-42" type="line"/>
      <point x="663" y="-42" type="line"/>
      <point x="663" y="575" type="line"/>
    </contour>
    <contour>
      <point x="619" y="650" type="move" name="top"/>
    </contour>
    <contour>
      <point x="619" y="0" type="move" name="bottom"/>
    </contour>
  </outline>
</glyph>
<glyph name="ttadeva" format="1">
  <advance width="554"/>
  <unicode hex="091F"/>
  <outline>
    <contour>
      <point x="-31" y="650" type="line"/>
      <point x="-31" y="634" type="line"/>
      <point x="0" y="575" type="line"/>
      <point x="314" y="575" type="line"/>
      <point x="314" y="440" type="line"/>
      <point x="203" y="427"/>
      <point x="69" y="386"/>
      <point x="69" y="228" type="curve" smooth="yes"/>
      <point x="69" y="114"/>
      <point x="163" y="10"/>
      <point x="292" y="10" type="curve" smooth="yes"/>
      <point x="358" y="10"/>
      <point x="436" y="23"/>
      <point x="529" y="75" type="curve"/>
      <point x="487" y="157" type="line"/>
      <point x="393" y="99"/>
      <point x="312" y="86"/>
      <point x="259" y="86" type="curve" smooth="yes"/>
      <point x="204" y="86"/>
      <point x="123" y="114"/>
      <point x="123" y="199" type="curve" smooth="yes"/>
      <point x="123" y="304"/>
      <point x="259" y="349"/>
      <point x="403" y="358" type="curve"/>
      <point x="403" y="575" type="line"/>
      <point x="554" y="575" type="line"/>
      <point x="554" y="590" type="line"/>
      <point x="522" y="650" type="line"/>
    </contour>
  </outline>
</glyph>
<glyph name="tthadeva" format="1">
  <advance width="612"/>
  <unicode hex="0920"/>
  <outline>
    <contour>
      <point x="219" y="436"/>
      <point x="56" y="416"/>
      <point x="56" y="229" type="curve" smooth="yes"/>
      <point x="56" y="104"/>
      <point x="149" y="-10"/>
      <point x="277" y="-10" type="curve" smooth="yes"/>
      <point x="450" y="-10"/>
      <point x="538" y="85"/>
      <point x="538" y="205" type="curve" smooth="yes"/>
      <point x="538" y="314"/>
      <point x="458" y="378"/>
      <point x="345" y="443" type="curve"/>
    </contour>
    <contour>
      <point x="406" y="352"/>
      <point x="465" y="306"/>
      <point x="465" y="247" type="curve" smooth="yes"/>
      <point x="465" y="157"/>
      <point x="407" y="67"/>
      <point x="245" y="67" type="curve" smooth="yes"/>
      <point x="190" y="67"/>
      <point x="108" y="104"/>
      <point x="108" y="200" type="curve" smooth="yes"/>
      <point x="108" y="326"/>
      <point x="256" y="366"/>
      <point x="366" y="366" type="curve"/>
    </contour>
    <contour>
      <point x="313" y="559"/>
      <point x="329" y="532"/>
      <point x="329" y="508" type="curve" smooth="yes"/>
      <point x="329" y="478"/>
      <point x="318" y="448"/>
      <point x="309" y="435" type="curve"/>
      <point x="392" y="412" type="line"/>
      <point x="406" y="438"/>
      <point x="418" y="468"/>
      <point x="418" y="493" type="curve" smooth="yes"/>
      <point x="418" y="522"/>
      <point x="403" y="550"/>
      <point x="384" y="578" type="curve"/>
      <point x="299" y="579" type="line"/>
    </contour>
    <contour>
      <point x="-31" y="650" type="line"/>
      <point x="-31" y="634" type="line"/>
      <point x="0" y="575" type="line"/>
      <point x="612" y="575" type="line"/>
      <point x="612" y="590" type="line"/>
      <point x="580" y="650" type="line"/>
    </contour>
    <contour>
      <point x="346" y="650" type="move" name="top"/>
    </contour>
    <contour>
      <point x="277" y="0" type="move" name="bottom"/>
    </contour>
  </outline>
</glyph>
<glyph name="tthadeva" format="1">
  <advance width="612"/>
  <unicode hex="0920"/>
  <outline>
    <contour>
      <point x="450" y="-10"/>
      <point x="538" y="85"/>
      <point x="538" y="205" type="curve" smooth="yes"/>
      <point x="538" y="307"/>
      <point x="466" y="366"/>
      <point x="393" y="414" type="curve"/>
      <point x="407" y="440"/>
      <point x="418" y="469"/>
      <point x="418" y="493" type="curve" smooth="yes"/>
      <point x="418" y="520"/>
      <point x="405" y="547"/>
      <point x="386" y="575" type="curve"/>
      <point x="612" y="575" type="line"/>
      <point x="612" y="590" type="line"/>
      <point x="580" y="650" type="line"/>
      <point x="-31" y="650" type="line"/>
      <point x="-31" y="634" type="line"/>
      <point x="0" y="575" type="line"/>
      <point x="302" y="575" type="line"/>
      <point x="316" y="554"/>
      <point x="329" y="529"/>
      <point x="329" y="508" type="curve" smooth="yes"/>
      <point x="329" y="483"/>
      <point x="321" y="455"/>
      <point x="312" y="441" type="curve"/>
      <point x="166" y="429"/>
      <point x="56" y="385"/>
      <point x="56" y="229" type="curve" smooth="yes"/>
      <point x="56" y="104"/>
      <point x="149" y="-10"/>
      <point x="277" y="-10" type="curve" smooth="yes"/>
    </contour>
    <contour>
      <point x="465" y="157"/>
      <point x="407" y="67"/>
      <point x="245" y="67" type="curve" smooth="yes"/>
      <point x="190" y="67"/>
      <point x="108" y="104"/>
      <point x="108" y="200" type="curve" smooth="yes"/>
      <point x="108" y="326"/>
      <point x="256" y="366"/>
      <point x="366" y="366" type="curve"/>
      <point x="406" y="352"/>
      <point x="465" y="306"/>
      <point x="465" y="247" type="curve" smooth="yes"/>
    </contour>
    <contour>
      <point x="346" y="650" type="move" name="top"/>
    </contour>
    <contour>
      <point x="277" y="0" type="move" name="bottom"/>
    </contour>
  </outline>
</glyph>
<glyph name="dadeva" format="1">
  <advance width="578"/>
  <unicode hex="0926"/>
  <outline>
    <contour>
      <point x="-31" y="650" type="line"/>
      <point x="-31" y="634" type="line"/>
      <point x="0" y="575" type="line"/>
      <point x="338" y="575" type="line"/>
      <point x="338" y="468" type="line"/>
      <point x="259" y="468" type="line" smooth="yes"/>
      <point x="125" y="468"/>
      <point x="61" y="414"/>
      <point x="61" y="277" type="curve" smooth="yes"/>
      <point x="61" y="118"/>
      <point x="201" y="25"/>
      <point x="293" y="25" type="curve" smooth="yes"/>
      <point x="329" y="25"/>
      <point x="360" y="29"/>
      <point x="387" y="38" type="curve"/>
      <point x="463" y="-140" type="line"/>
      <point x="521" y="-109" type="line"/>
      <point x="427" y="56" type="line"/>
      <point x="473" y="82"/>
      <point x="498" y="121"/>
      <point x="498" y="160" type="curve" smooth="yes"/>
      <point x="498" y="211"/>
      <point x="466" y="258"/>
      <point x="400" y="258" type="curve" smooth="yes"/>
      <point x="384" y="258"/>
      <point x="357" y="255"/>
      <point x="335" y="239" type="curve"/>
      <point x="361" y="110" type="line"/>
      <point x="341" y="106"/>
      <point x="317" y="104"/>
      <point x="293" y="104" type="curve" smooth="yes"/>
      <point x="253" y="104"/>
      <point x="110" y="136"/>
      <point x="110" y="251" type="curve" smooth="yes"/>
      <point x="110" y="329"/>
      <point x="157" y="385"/>
      <point x="282" y="385" type="curve" smooth="yes"/>
      <point x="427" y="385" type="line"/>
      <point x="427" y="575" type="line"/>
      <point x="578" y="575" type="line"/>
      <point x="578" y="590" type="line"/>
      <point x="546" y="650" type="line"/>
    </contour>
    <contour>
      <point x="382" y="650" type="move" name="top"/>
    </contour>
    <contour>
      <point x="498" y="0" type="move" name="bottom"/>
    </contour>
  </outline>
</glyph>
<glyph name="dhadeva" format="1">
  <advance width="686"/>
  <unicode hex="0927"/>
  <outline>
    <contour>
      <point x="386" y="377" type="line"/>
      <point x="378" y="395"/>
      <point x="369" y="415"/>
      <point x="369" y="415" type="curve"/>
      <point x="347" y="426"/>
      <point x="312" y="428"/>
      <point x="276" y="428" type="curve" smooth="yes"/>
      <point x="258" y="428"/>
      <point x="240" y="426"/>
      <point x="223" y="419" type="curve"/>
      <point x="173" y="445"/>
      <point x="123" y="496"/>
      <point x="123" y="549" type="curve" smooth="yes"/>
      <point x="123" y="595"/>
      <point x="150" y="616"/>
      <point x="186" y="616" type="curve" smooth="yes"/>
      <point x="208" y="616"/>
      <point x="224" y="609"/>
      <point x="233" y="598" type="curve"/>
      <point x="233" y="524" type="line"/>
      <point x="238" y="521"/>
      <point x="247" y="519"/>
      <point x="258" y="519" type="curve" smooth="yes"/>
      <point x="297" y="519"/>
      <point x="310" y="543"/>
      <point x="310" y="562" type="curve" smooth="yes"/>
      <point x="310" y="606"/>
      <point x="279" y="628"/>
      <point x="256" y="645" type="curve" smooth="yes"/>
      <point x="235" y="661"/>
      <point x="194" y="677"/>
      <point x="160" y="677" type="curve" smooth="yes"/>
      <point x="98" y="677"/>
      <point x="47" y="643"/>
      <point x="47" y="574" type="curve" smooth="yes"/>
      <point x="47" y="497"/>
      <point x="104" y="429"/>
      <point x="172" y="387" type="curve"/>
      <point x="135" y="355"/>
      <point x="109" y="308"/>
      <point x="109" y="261" type="curve" smooth="yes"/>
      <point x="109" y="218"/>
      <point x="154" y="171"/>
      <point x="188" y="142" type="curve" smooth="yes"/>
      <point x="228" y="110"/>
      <point x="274" y="102"/>
      <point x="320" y="102" type="curve" smooth="yes"/>
      <point x="364" y="102"/>
      <point x="425" y="131"/>
      <point x="486" y="178" type="curve"/>
      <point x="489" y="176" type="line"/>
      <point x="486" y="0" type="line"/>
      <point x="560" y="-42" type="line"/>
      <point x="577" y="-42" type="line"/>
      <point x="577" y="575" type="line"/>
      <point x="686" y="575" type="line"/>
      <point x="686" y="590" type="line"/>
      <point x="654" y="650" type="line"/>
      <point x="345" y="650" type="line"/>
      <point x="345" y="634" type="line"/>
      <point x="376" y="575" type="line"/>
      <point x="488" y="575" type="line"/>
      <point x="488" y="313" type="line"/>
      <point x="452" y="252"/>
      <point x="338" y="174"/>
      <point x="269" y="174" type="curve" smooth="yes"/>
      <point x="235" y="174"/>
      <point x="185" y="189"/>
      <point x="185" y="233" type="curve" smooth="yes"/>
      <point x="185" y="286"/>
      <point x="227" y="358"/>
      <point x="303" y="358" type="curve" smooth="yes"/>
      <point x="326" y="358"/>
      <point x="350" y="356"/>
      <point x="375" y="350" type="curve"/>
    </contour>
    <contour>
      <point x="532" y="650" type="move" name="top"/>
    </contour>
    <contour>
      <point x="532" y="0" type="move" name="bottom"/>
    </contour>
  </outline>
</glyph>
<glyph name="nnnadeva" format="1">
  <advance width="596"/>
  <unicode hex="0929"/>
  <outline>
    <contour>
      <point x="-31" y="650" type="line"/>
      <point x="-31" y="634" type="line"/>
      <point x="0" y="575" type="line"/>
      <point x="399" y="575" type="line"/>
      <point x="399" y="-1" type="line"/>
      <point x="471" y="-42" type="line"/>
      <point x="487" y="-42" type="line"/>
      <point x="487" y="575" type="line"/>
      <point x="596" y="575" type="line"/>
      <point x="596" y="590" type="line"/>
      <point x="565" y="650" type="line"/>
    </contour>
    <contour>
      <point x="164" y="54" type="line"/>
      <point x="242" y="-24" type="line"/>
      <point x="319" y="55" type="line"/>
      <point x="241" y="133" type="line"/>
    </contour>
    <contour>
      <point x="103" y="383"/>
      <point x="34" y="378"/>
      <point x="34" y="305" type="curve" smooth="yes"/>
      <point x="34" y="225"/>
      <point x="114" y="191"/>
      <point x="158" y="191" type="curve" smooth="yes"/>
      <point x="175" y="191"/>
      <point x="187" y="193"/>
      <point x="199" y="197" type="curve"/>
      <point x="185" y="296" type="line"/>
      <point x="419" y="305" type="line"/>
      <point x="419" y="372" type="line"/>
      <point x="357" y="376"/>
      <point x="230" y="383"/>
      <point x="140" y="383" type="curve" smooth="yes"/>
    </contour>
    <contour>
      <point x="443" y="650" type="move" name="top"/>
    </contour>
    <contour>
      <point x="443" y="0" type="move" name="bottom"/>
    </contour>
  </outline>
</glyph>
<glyph name="padeva" format="1">
  <advance width="598"/>
  <unicode hex="092A"/>
  <outline>
    <contour>
      <point x="-31" y="650" type="line"/>
      <point x="-31" y="634" type="line"/>
      <point x="0" y="575" type="line"/>
      <point x="87" y="575" type="line"/>
      <point x="87" y="342" type="line" smooth="yes"/>
      <point x="87" y="305"/>
      <point x="108" y="271"/>
      <point x="144" y="236" type="curve" smooth="yes"/>
      <point x="183" y="198"/>
      <point x="224" y="166"/>
      <point x="270" y="166" type="curve" smooth="yes"/>
      <point x="326" y="166"/>
      <point x="366" y="187"/>
      <point x="399" y="208" type="curve"/>
      <point x="421" y="208" type="line"/>
      <point x="411" y="316" type="line"/>
      <point x="382" y="287"/>
      <point x="318" y="248"/>
      <point x="254" y="248" type="curve" smooth="yes"/>
      <point x="221" y="248"/>
      <point x="176" y="257"/>
      <point x="176" y="326" type="curve" smooth="yes"/>
      <point x="176" y="575" type="line"/>
      <point x="401" y="575" type="line"/>
      <point x="401" y="-1" type="line"/>
      <point x="473" y="-42" type="line"/>
      <point x="489" y="-42" type="line"/>
      <point x="489" y="575" type="line"/>
      <point x="598" y="575" type="line"/>
      <point x="598" y="590" type="line"/>
      <point x="567" y="650" type="line"/>
    </contour>
    <contour>
      <point x="445" y="650" type="move" name="top"/>
    </contour>
    <contour>
      <point x="445" y="0" type="move" name="bottom"/>
    </contour>
  </outline>
</glyph>
<glyph name="bhadeva" format="1">
  <advance width="744"/>
  <unicode hex="092D"/>
  <outline>
    <contour>
      <point x="744" y="575" type="line"/>
      <point x="744" y="590" type="line"/>
      <point x="712" y="650" type="line"/>
      <point x="358" y="650" type="line"/>
      <point x="358" y="634" type="line"/>
      <point x="389" y="575" type="line"/>
      <point x="546" y="575" type="line"/>
      <point x="546" y="293" type="line"/>
      <point x="323" y="293" type="line"/>
      <point x="323" y="502" type="line" smooth="yes"/>
      <point x="323" y="628"/>
      <point x="227" y="659"/>
      <point x="161" y="659" type="curve" smooth="yes"/>
      <point x="98" y="659"/>
      <point x="47" y="625"/>
      <point x="47" y="555" type="curve" smooth="yes"/>
      <point x="47" y="457"/>
      <point x="142" y="407"/>
      <point x="235" y="370" type="curve"/>
      <point x="235" y="312" type="line"/>
      <point x="215" y="315"/>
      <point x="200" y="316"/>
      <point x="189" y="316" type="curve" smooth="yes"/>
      <point x="163" y="316"/>
      <point x="150" y="306"/>
      <point x="150" y="285" type="curve" smooth="yes"/>
      <point x="150" y="257"/>
      <point x="188" y="204"/>
      <point x="215" y="171" type="curve" smooth="yes"/>
      <point x="249" y="127"/>
      <point x="290" y="84"/>
      <point x="314" y="84" type="curve" smooth="yes"/>
      <point x="333" y="84"/>
      <point x="342" y="93"/>
      <point x="342" y="109" type="curve" smooth="yes"/>
      <point x="342" y="134"/>
      <point x="339" y="178"/>
      <point x="336" y="218" type="curve"/>
      <point x="546" y="218" type="line"/>
      <point x="546" y="-1" type="line"/>
      <point x="618" y="-42" type="line"/>
      <point x="634" y="-42" type="line"/>
      <point x="634" y="575" type="line"/>
    </contour>
    <contour>
      <point x="251" y="495"/>
      <point x="248" y="449"/>
      <point x="243" y="422" type="curve"/>
      <point x="186" y="441"/>
      <point x="123" y="468"/>
      <point x="123" y="531" type="curve" smooth="yes"/>
      <point x="123" y="577"/>
      <point x="150" y="597"/>
      <point x="186" y="597" type="curve" smooth="yes"/>
      <point x="221" y="597"/>
      <point x="251" y="562"/>
      <point x="251" y="520" type="curve" smooth="yes"/>
    </contour>
    <contour>
      <point x="590" y="650" type="move" name="top"/>
    </contour>
    <contour>
      <point x="590" y="0" type="move" name="bottom"/>
    </contour>
  </outline>
</glyph>
<glyph name="rradeva" format="1">
  <advance width="430"/>
  <unicode hex="0931"/>
  <outline>
    <contour>
      <point x="131" y="-63" type="line"/>
      <point x="208" y="16" type="line"/>
      <point x="130" y="94" type="line"/>
      <point x="53" y="15" type="line"/>
    </contour>
    <contour>
      <point x="187" y="211" type="line"/>
      <point x="232" y="252"/>
      <point x="280" y="309"/>
      <point x="280" y="404" type="curve" smooth="yes"/>
      <point x="280" y="448"/>
      <point x="274" y="519"/>
      <point x="263" y="575" type="curve"/>
      <point x="430" y="575" type="line"/>
      <point x="430" y="590" type="line"/>
      <point x="399" y="650" type="line"/>
      <point x="-31" y="650" type="line"/>
      <point x="-31" y="634" type="line"/>
      <point x="0" y="575" type="line"/>
      <point x="188" y="575" type="line"/>
      <point x="195" y="535"/>
      <point x="199" y="482"/>
      <point x="199" y="450" type="curve" smooth="yes"/>
      <point x="199" y="407"/>
      <point x="184" y="358"/>
      <point x="174" y="340" type="curve"/>
      <point x="121" y="382" type="line"/>
      <point x="119" y="382" type="line"/>
      <point x="100" y="370"/>
      <point x="66" y="340"/>
      <point x="66" y="306" type="curve" smooth="yes"/>
      <point x="66" y="272"/>
      <point x="89" y="250"/>
      <point x="126" y="207" type="curve" smooth="yes"/>
      <point x="347" y="-47" type="line"/>
      <point x="396" y="-10" type="line"/>
    </contour>
    <contour>
      <point x="232" y="650" type="move" name="top"/>
    </contour>
    <contour>
      <point x="232" y="0" type="move" name="bottom"/>
    </contour>
  </outline>
</glyph>
<glyph name="uni0932" format="1">
  <advance width="749"/>
  <unicode hex="0932"/>
  <outline>
    <contour>
      <point x="105" y="454"/>
      <point x="45" y="389"/>
      <point x="45" y="303" type="curve" smooth="yes"/>
      <point x="45" y="139"/>
      <point x="166" y="20"/>
      <point x="256" y="-58" type="curve"/>
      <point x="287" y="-25" type="line"/>
      <point x="184" y="67"/>
      <point x="124" y="163"/>
      <point x="124" y="265" type="curve" smooth="yes"/>
      <point x="124" y="331"/>
      <point x="168" y="375"/>
      <point x="223" y="375" type="curve" smooth="yes"/>
      <point x="260" y="375"/>
      <point x="307" y="350"/>
      <point x="336" y="311" type="curve"/>
      <point x="358" y="352" type="line"/>
      <point x="315" y="409"/>
      <point x="254" y="454"/>
      <point x="186" y="454" type="curve" smooth="yes"/>
    </contour>
    <contour>
      <point x="381" y="432"/>
      <point x="318" y="316"/>
      <point x="296" y="212" type="curve"/>
      <point x="368" y="169" type="line"/>
      <point x="386" y="249"/>
      <point x="430" y="372"/>
      <point x="501" y="372" type="curve" smooth="yes"/>
      <point x="521" y="372"/>
      <point x="540" y="356"/>
      <point x="553" y="342" type="curve"/>
      <point x="554" y="389" type="line"/>
      <point x="534" y="414"/>
      <point x="505" y="434"/>
      <point x="474" y="434" type="curve" smooth="yes"/>
    </contour>
    <contour>
      <point x="551" y="605" type="line"/>
      <point x="551" y="-1" type="line"/>
      <point x="624" y="-42" type="line"/>
      <point x="639" y="-42" type="line"/>
      <point x="639" y="605" type="line"/>
    </contour>
    <contour>
      <point x="-31" y="650" type="line"/>
      <point x="-31" y="634" type="line"/>
      <point x="0" y="575" type="line"/>
      <point x="749" y="575" type="line"/>
      <point x="749" y="590" type="line"/>
      <point x="717" y="650" type="line"/>
    </contour>
    <contour>
      <point x="595" y="650" type="move" name="top"/>
    </contour>
    <contour>
      <point x="595" y="0" type="move" name="bottom"/>
    </contour>
  </outline>
</glyph>
<glyph name="uni0932" format="1">
  <advance width="749"/>
  <unicode hex="0932"/>
  <outline>
    <contour>
      <point x="749" y="575" type="line"/>
      <point x="749" y="590" type="line"/>
      <point x="717" y="650" type="line"/>
      <point x="-31" y="650" type="line"/>
      <point x="-31" y="634" type="line"/>
      <point x="0" y="575" type="line"/>
      <point x="551" y="575" type="line"/>
      <point x="551" y="393" type="line"/>
      <point x="531" y="415"/>
      <point x="505" y="434"/>
      <point x="474" y="434" type="curve" smooth="yes"/>
      <point x="427" y="433"/>
      <point x="386" y="402"/>
      <point x="355" y="356" type="curve"/>
      <point x="312" y="411"/>
      <point x="253" y="454"/>
      <point x="186" y="454" type="curve" smooth="yes"/>
      <point x="105" y="454"/>
      <point x="45" y="389"/>
      <point x="45" y="303" type="curve" smooth="yes"/>
      <point x="45" y="139"/>
      <point x="166" y="20"/>
      <point x="256" y="-58" type="curve"/>
      <point x="287" y="-25" type="line"/>
      <point x="184" y="67"/>
      <point x="124" y="163"/>
      <point x="124" y="265" type="curve" smooth="yes"/>
      <point x="124" y="331"/>
      <point x="168" y="375"/>
      <point x="223" y="375" type="curve" smooth="yes"/>
      <point x="259" y="375"/>
      <point x="303" y="352"/>
      <point x="332" y="316" type="curve"/>
      <point x="315" y="284"/>
      <point x="304" y="248"/>
      <point x="296" y="212" type="curve"/>
      <point x="294" y="212"/>
      <point x="368" y="169"/>
      <point x="368" y="169" type="curve"/>
      <point x="386" y="249"/>
      <point x="430" y="372"/>
      <point x="501" y="372" type="curve" smooth="yes"/>
      <point x="519" y="372"/>
      <point x="537" y="359"/>
      <point x="551" y="344" type="curve"/>
      <point x="551" y="-1" type="line"/>
      <point x="624" y="-42" type="line"/>
      <point x="639" y="-42" type="line"/>
      <point x="639" y="575" type="line"/>
    </contour>
    <contour>
      <point x="595" y="650" type="move" name="top"/>
    </contour>
    <contour>
      <point x="595" y="0" type="move" name="bottom"/>
    </contour>
  </outline>
</glyph>
<glyph name="lladeva" format="1">
  <advance width="811"/>
  <unicode hex="0933"/>
  <outline>
    <contour>
      <point x="413" y="360" type="line"/>
      <point x="366" y="399"/>
      <point x="303" y="464"/>
      <point x="222" y="464" type="curve" smooth="yes"/>
      <point x="140" y="464"/>
      <point x="53" y="388"/>
      <point x="53" y="256" type="curve" smooth="yes"/>
      <point x="53" y="156"/>
      <point x="151" y="52"/>
      <point x="254" y="52" type="curve" smooth="yes"/>
      <point x="339" y="52"/>
      <point x="389" y="102"/>
      <point x="427" y="195" type="curve"/>
      <point x="477" y="312"/>
      <point x="505" y="405"/>
      <point x="603" y="405" type="curve" smooth="yes"/>
      <point x="658" y="405"/>
      <point x="701" y="358"/>
      <point x="701" y="305" type="curve" smooth="yes"/>
      <point x="701" y="229"/>
      <point x="627" y="148"/>
      <point x="566" y="148" type="curve" smooth="yes"/>
      <point x="504" y="148"/>
      <point x="459" y="182"/>
      <point x="429" y="222" type="curve"/>
      <point x="414" y="179" type="line"/>
      <point x="446" y="137"/>
      <point x="520" y="69"/>
      <point x="598" y="69" type="curve" smooth="yes"/>
      <point x="681" y="69"/>
      <point x="758" y="141"/>
      <point x="758" y="263" type="curve" smooth="yes"/>
      <point x="758" y="389"/>
      <point x="659" y="474"/>
      <point x="559" y="474" type="curve"/>
      <point x="482" y="473"/>
      <point x="435" y="430"/>
      <point x="396" y="344" type="curve"/>
      <point x="344" y="224"/>
      <point x="315" y="123"/>
      <point x="213" y="123" type="curve" smooth="yes"/>
      <point x="148" y="123"/>
      <point x="115" y="170"/>
      <point x="115" y="224" type="curve" smooth="yes"/>
      <point x="115" y="307"/>
      <point x="166" y="385"/>
      <point x="264" y="385" type="curve" smooth="yes"/>
      <point x="320" y="385"/>
      <point x="359" y="354"/>
      <point x="389" y="322" type="curve"/>
    </contour>
    <contour>
      <point x="811" y="575" type="line"/>
      <point x="811" y="590" type="line"/>
      <point x="780" y="650" type="line"/>
      <point x="-31" y="650" type="line"/>
      <point x="-31" y="634" type="line"/>
      <point x="0" y="575" type="line"/>
    </contour>
    <contour>
      <point x="559" y="424" type="line"/>
      <point x="648" y="424" type="line"/>
      <point x="648" y="596" type="line"/>
      <point x="559" y="596" type="line"/>
    </contour>
    <contour>
      <point x="419" y="113" type="move" name="nukta"/>
    </contour>
    <contour>
      <point x="603" y="0" type="move" name="bottom"/>
    </contour>
    <contour>
      <point x="603" y="650" type="move" name="top"/>
    </contour>
  </outline>
</glyph>
<glyph name="vadeva" format="1">
  <advance width="661"/>
  <unicode hex="0935"/>
  <outline>
    <contour>
      <point x="661" y="575" type="line"/>
      <point x="661" y="590" type="line"/>
      <point x="630" y="650" type="line"/>
      <point x="-31" y="650" type="line"/>
      <point x="-31" y="634" type="line"/>
      <point x="0" y="575" type="line"/>
      <point x="464" y="575" type="line"/>
      <point x="464" y="357" type="line"/>
      <point x="462" y="357" type="line"/>
      <point x="431" y="397"/>
      <point x="346" y="485"/>
      <point x="245" y="485" type="curve" smooth="yes"/>
      <point x="162" y="485"/>
      <point x="66" y="410"/>
      <point x="66" y="278" type="curve" smooth="yes"/>
      <point x="66" y="159"/>
      <point x="170" y="93"/>
      <point x="272" y="93" type="curve" smooth="yes"/>
      <point x="339" y="93"/>
      <point x="397" y="132"/>
      <point x="462" y="178" type="curve"/>
      <point x="465" y="176" type="line"/>
      <point x="462" y="0" type="line"/>
      <point x="536" y="-42" type="line"/>
      <point x="551" y="-42" type="line"/>
      <point x="551" y="575" type="line"/>
    </contour>
    <contour>
      <point x="167" y="164"/>
      <point x="115" y="201"/>
      <point x="115" y="256" type="curve" smooth="yes"/>
      <point x="115" y="320"/>
      <point x="189" y="397"/>
      <point x="296" y="397" type="curve" smooth="yes"/>
      <point x="358" y="397"/>
      <point x="431" y="342"/>
      <point x="464" y="297" type="curve"/>
      <point x="464" y="295" type="line"/>
      <point x="415" y="234"/>
      <point x="312" y="164"/>
      <point x="231" y="164" type="curve" smooth="yes"/>
    </contour>
    <contour>
      <point x="508" y="650" type="move" name="top"/>
    </contour>
    <contour>
      <point x="508" y="0" type="move" name="bottom"/>
    </contour>
  </outline>
</glyph>
<glyph name="shadeva" format="1">
  <advance width="743"/>
  <unicode hex="0936"/>
  <outline>
    <contour>
      <point x="545" y="-1" type="line"/>
      <point x="617" y="-42" type="line"/>
      <point x="633" y="-42" type="line"/>
      <point x="633" y="575" type="line"/>
      <point x="743" y="575" type="line"/>
      <point x="743" y="590" type="line"/>
      <point x="711" y="650" type="line"/>
      <point x="-31" y="650" type="line"/>
      <point x="-31" y="634" type="line"/>
      <point x="0" y="575" type="line"/>
      <point x="112" y="575" type="line"/>
      <point x="107" y="561"/>
      <point x="104" y="548"/>
      <point x="104" y="531" type="curve" smooth="yes"/>
      <point x="104" y="434"/>
      <point x="195" y="354"/>
      <point x="282" y="318" type="curve"/>
      <point x="256" y="281"/>
      <point x="219" y="250"/>
      <point x="178" y="233" type="curve"/>
      <point x="168" y="313" type="line"/>
      <point x="161" y="316"/>
      <point x="152" y="318"/>
      <point x="139" y="318" type="curve" smooth="yes"/>
      <point x="99" y="318"/>
      <point x="51" y="292"/>
      <point x="51" y="244" type="curve" smooth="yes"/>
      <point x="51" y="207"/>
      <point x="106" y="176"/>
      <point x="146" y="165" type="curve"/>
      <point x="340" y="-58" type="line"/>
      <point x="394" y="-17" type="line"/>
      <point x="210" y="167" type="line"/>
      <point x="311" y="195"/>
      <point x="412" y="325"/>
      <point x="412" y="455" type="curve" smooth="yes"/>
      <point x="412" y="506"/>
      <point x="393" y="546"/>
      <point x="367" y="575" type="curve"/>
      <point x="545" y="575" type="line"/>
    </contour>
    <contour>
      <point x="181" y="552"/>
      <point x="209" y="574"/>
      <point x="245" y="574" type="curve" smooth="yes"/>
      <point x="305" y="574"/>
      <point x="340" y="525"/>
      <point x="340" y="477" type="curve" smooth="yes"/>
      <point x="340" y="442"/>
      <point x="330" y="401"/>
      <point x="310" y="363" type="curve"/>
      <point x="251" y="385"/>
      <point x="181" y="443"/>
      <point x="181" y="507" type="curve" smooth="yes"/>
    </contour>
    <contour>
      <point x="589" y="650" type="move" name="top"/>
    </contour>
    <contour>
      <point x="589" y="0" type="move" name="bottom"/>
    </contour>
  </outline>
</glyph>
<glyph name="ssadeva" format="1">
  <advance width="617"/>
  <unicode hex="0937"/>
  <outline>
    <contour>
      <point x="-31" y="650" type="line"/>
      <point x="-31" y="634" type="line"/>
      <point x="0" y="575" type="line"/>
      <point x="87" y="575" type="line"/>
      <point x="87" y="309" type="line" smooth="yes"/>
      <point x="87" y="272"/>
      <point x="108" y="243"/>
      <point x="144" y="208" type="curve" smooth="yes"/>
      <point x="183" y="170"/>
      <point x="234" y="129"/>
      <point x="279" y="129" type="curve" smooth="yes"/>
      <point x="335" y="129"/>
      <point x="385" y="160"/>
      <point x="418" y="180" type="curve"/>
      <point x="449" y="180" type="line"/>
      <point x="437" y="295" type="line"/>
      <point x="400" y="261"/>
      <point x="329" y="211"/>
      <point x="263" y="211" type="curve" smooth="yes"/>
      <point x="230" y="211"/>
      <point x="176" y="224"/>
      <point x="176" y="294" type="curve" smooth="yes"/>
      <point x="176" y="575" type="line"/>
      <point x="420" y="575" type="line"/>
      <point x="420" y="-1" type="line"/>
      <point x="492" y="-42" type="line"/>
      <point x="508" y="-42" type="line"/>
      <point x="508" y="575" type="line"/>
      <point x="617" y="575" type="line"/>
      <point x="617" y="590" type="line"/>
      <point x="586" y="650" type="line"/>
    </contour>
    <contour>
      <point x="159" y="542" type="line"/>
      <point x="430" y="256" type="line"/>
      <point x="436" y="300" type="line"/>
      <point x="159" y="592" type="line"/>
    </contour>
    <contour>
      <point x="464" y="650" type="move" name="top"/>
    </contour>
    <contour>
      <point x="464" y="0" type="move" name="bottom"/>
    </contour>
  </outline>
</glyph>
<glyph name="sadeva" format="1">
  <advance width="704"/>
  <unicode hex="0938"/>
  <outline>
    <contour>
      <point x="704" y="575" type="line"/>
      <point x="704" y="590" type="line"/>
      <point x="672" y="650" type="line"/>
      <point x="-31" y="650" type="line"/>
      <point x="-31" y="634" type="line"/>
      <point x="0" y="575" type="line"/>
      <point x="188" y="575" type="line"/>
      <point x="195" y="535"/>
      <point x="199" y="482"/>
      <point x="199" y="450" type="curve" smooth="yes"/>
      <point x="199" y="407"/>
      <point x="184" y="358"/>
      <point x="174" y="340" type="curve"/>
      <point x="121" y="382" type="line"/>
      <point x="119" y="382" type="line"/>
      <point x="100" y="370"/>
      <point x="66" y="340"/>
      <point x="66" y="306" type="curve" smooth="yes"/>
      <point x="66" y="272"/>
      <point x="89" y="250"/>
      <point x="126" y="207" type="curve" smooth="yes"/>
      <point x="347" y="-47" type="line"/>
      <point x="396" y="-10" type="line"/>
      <point x="187" y="211" type="line"/>
      <point x="207" y="228"/>
      <point x="227" y="250"/>
      <point x="244" y="276" type="curve"/>
      <point x="247" y="276" type="line"/>
      <point x="276" y="252"/>
      <point x="340" y="207"/>
      <point x="406" y="207" type="curve" smooth="yes"/>
      <point x="428" y="207"/>
      <point x="466" y="210"/>
      <point x="504" y="224" type="curve"/>
      <point x="506" y="224" type="line"/>
      <point x="506" y="-1" type="line"/>
      <point x="578" y="-42" type="line"/>
      <point x="594" y="-42" type="line"/>
      <point x="594" y="575" type="line"/>
    </contour>
    <contour>
      <point x="339" y="288"/>
      <point x="297" y="305"/>
      <point x="266" y="322" type="curve"/>
      <point x="274" y="346"/>
      <point x="280" y="373"/>
      <point x="280" y="404" type="curve" smooth="yes"/>
      <point x="280" y="448"/>
      <point x="274" y="519"/>
      <point x="263" y="575" type="curve"/>
      <point x="506" y="575" type="line"/>
      <point x="506" y="318" type="line"/>
      <point x="478" y="301"/>
      <point x="439" y="288"/>
      <point x="383" y="288" type="curve" smooth="yes"/>
    </contour>
    <contour>
      <point x="549" y="650" type="move" name="top"/>
    </contour>
    <contour>
      <point x="549" y="0" type="move" name="bottom"/>
    </contour>
  </outline>
</glyph>
<glyph name="hadeva" format="1">
  <advance width="573"/>
  <unicode hex="0939"/>
  <outline>
    <contour>
      <point x="418" y="-117" type="line"/>
      <point x="259" y="-28"/>
      <point x="184" y="31"/>
      <point x="184" y="124" type="curve" smooth="yes"/>
      <point x="184" y="199"/>
      <point x="257" y="256"/>
      <point x="325" y="256" type="curve" smooth="yes"/>
      <point x="388" y="256"/>
      <point x="429" y="218"/>
      <point x="429" y="185" type="curve" smooth="yes"/>
      <point x="429" y="135"/>
      <point x="375" y="94"/>
      <point x="322" y="64" type="curve"/>
      <point x="322" y="62" type="line"/>
      <point x="391" y="2" type="line"/>
      <point x="446" y="30"/>
      <point x="505" y="88"/>
      <point x="505" y="148" type="curve" smooth="yes"/>
      <point x="505" y="207"/>
      <point x="408" y="310"/>
      <point x="298" y="310" type="curve" smooth="yes"/>
      <point x="246" y="310"/>
      <point x="202" y="297"/>
      <point x="169" y="275" type="curve"/>
      <point x="142" y="301"/>
      <point x="126" y="334"/>
      <point x="126" y="358" type="curve" smooth="yes"/>
      <point x="126" y="385"/>
      <point x="141" y="404"/>
      <point x="184" y="404" type="curve" smooth="yes"/>
      <point x="449" y="404" type="line"/>
      <point x="449" y="575" type="line"/>
      <point x="573" y="575" type="line"/>
      <point x="573" y="590" type="line"/>
      <point x="541" y="650" type="line"/>
      <point x="-31" y="650" type="line"/>
      <point x="-31" y="634" type="line"/>
      <point x="0" y="575" type="line"/>
      <point x="361" y="575" type="line"/>
      <point x="361" y="483" type="line"/>
      <point x="161" y="483" type="line" smooth="yes"/>
      <point x="99" y="483"/>
      <point x="63" y="460"/>
      <point x="63" y="386" type="curve" smooth="yes"/>
      <point x="63" y="340"/>
      <point x="96" y="283"/>
      <point x="131" y="242" type="curve"/>
      <point x="107" y="216"/>
      <point x="96" y="183"/>
      <point x="96" y="152" type="curve" smooth="yes"/>
      <point x="96" y="16"/>
      <point x="255" y="-78"/>
      <point x="395" y="-150" type="curve"/>
    </contour>
    <contour>
      <point x="405" y="650" type="move" name="top"/>
    </contour>
    <contour>
      <point x="429" y="0" type="move" name="bottom"/>
    </contour>
  </outline>
</glyph>
<glyph name="uni093E" format="1">
  <advance width="307"/>
  <unicode hex="093E"/>
  <outline>
    <contour>
      <point x="-31" y="650" type="line"/>
      <point x="-31" y="634" type="line"/>
      <point x="0" y="575" type="line"/>
      <point x="109" y="575" type="line"/>
      <point x="109" y="-1" type="line"/>
      <point x="182" y="-42" type="line"/>
      <point x="198" y="-42" type="line"/>
      <point x="198" y="575" type="line"/>
      <point x="307" y="575" type="line"/>
      <point x="307" y="590" type="line"/>
      <point x="275" y="650" type="line"/>
    </contour>
  </outline>
</glyph>
<glyph name="uvowelsigndeva" format="1">
  <advance width="0"/>
  <unicode hex="0941"/>
  <outline>
    <contour>
      <point x="-546" y="-92" type="line"/>
      <point x="-406" y="-306"/>
      <point x="-291" y="-371"/>
      <point x="-180" y="-371" type="curve" smooth="yes"/>
      <point x="-81" y="-371"/>
      <point x="-23" y="-298"/>
      <point x="-23" y="-238" type="curve" smooth="yes"/>
      <point x="-23" y="-164"/>
      <point x="-131" y="-84"/>
      <point x="-205" y="-84" type="curve" smooth="yes"/>
      <point x="-234" y="-84"/>
      <point x="-274" y="-96"/>
      <point x="-301" y="-111" type="curve"/>
      <point x="-249" y="-188" type="line"/>
      <point x="-221" y="-172"/>
      <point x="-180" y="-161"/>
      <point x="-152" y="-161" type="curve" smooth="yes"/>
      <point x="-109" y="-161"/>
      <point x="-86" y="-192"/>
      <point x="-86" y="-215" type="curve" smooth="yes"/>
      <point x="-86" y="-262"/>
      <point x="-130" y="-296"/>
      <point x="-200" y="-296" type="curve" smooth="yes"/>
      <point x="-297" y="-296"/>
      <point x="-421" y="-193"/>
      <point x="-503" y="-68" type="curve"/>
    </contour>
    <contour>
      <point x="-157" y="0" type="move" name="_bottom"/>
    </contour>
  </outline>
</glyph>
<glyph name="ocandravowelsigndeva" format="1">
  <advance width="307"/>
  <unicode hex="0949"/>
  <outline>
    <contour>
      <point x="307" y="575" type="line"/>
      <point x="307" y="590" type="line"/>
      <point x="275" y="650" type="line"/>
      <point x="-31" y="650" type="line"/>
      <point x="-31" y="634" type="line"/>
      <point x="0" y="575" type="line"/>
      <point x="109" y="575" type="line"/>
      <point x="109" y="-1" type="line"/>
      <point x="182" y="-42" type="line"/>
      <point x="198" y="-42" type="line"/>
      <point x="198" y="575" type="line"/>
    </contour>
    <contour>
      <point x="305" y="918" type="line"/>
      <point x="276" y="874"/>
      <point x="216" y="818"/>
      <point x="128" y="818" type="curve" smooth="yes"/>
      <point x="62" y="818"/>
      <point x="10" y="867"/>
      <point x="-31" y="925" type="curve"/>
      <point x="-64" y="911" type="line"/>
      <point x="-24" y="843"/>
      <point x="54" y="752"/>
      <point x="166" y="752" type="curve" smooth="yes"/>
      <point x="264" y="752"/>
      <point x="322" y="798"/>
      <point x="369" y="857" type="curve"/>
    </contour>
  </outline>
</glyph>
<glyph name="uni094A" format="1">
  <advance width="307"/>
  <unicode hex="094A"/>
  <outline>
    <contour>
      <point x="307" y="575" type="line"/>
      <point x="307" y="590" type="line"/>
      <point x="275" y="650" type="line"/>
      <point x="180" y="650" type="line"/>
      <point x="184" y="664"/>
      <point x="189" y="684"/>
      <point x="189" y="703" type="curve" smooth="yes"/>
      <point x="189" y="737"/>
      <point x="167" y="774"/>
      <point x="141" y="806" type="curve" smooth="yes"/>
      <point x="108" y="844"/>
      <point x="64" y="875"/>
      <point x="10" y="875" type="curve" smooth="yes"/>
      <point x="-36" y="875"/>
      <point x="-214" y="859"/>
      <point x="-255" y="859" type="curve" smooth="yes"/>
      <point x="-303" y="859"/>
      <point x="-337" y="874"/>
      <point x="-337" y="910" type="curve" smooth="yes"/>
      <point x="-337" y="931"/>
      <point x="-329" y="958"/>
      <point x="-319" y="984" type="curve"/>
      <point x="-369" y="991" type="line"/>
      <point x="-376" y="971"/>
      <point x="-391" y="931"/>
      <point x="-391" y="893" type="curve" smooth="yes"/>
      <point x="-391" y="841"/>
      <point x="-282" y="772"/>
      <point x="-168" y="772" type="curve" smooth="yes"/>
      <point x="-114" y="772"/>
      <point x="-20" y="787"/>
      <point x="27" y="787" type="curve" smooth="yes"/>
      <point x="112" y="787"/>
      <point x="136" y="733"/>
      <point x="136" y="684" type="curve" smooth="yes"/>
      <point x="136" y="671"/>
      <point x="133" y="660"/>
      <point x="128" y="650" type="curve"/>
      <point x="-31" y="650" type="line"/>
      <point x="-31" y="634" type="line"/>
      <point x="0" y="575" type="line"/>
      <point x="109" y="575" type="line"/>
      <point x="109" y="-1" type="line"/>
      <point x="182" y="-42" type="line"/>
      <point x="198" y="-42" type="line"/>
      <point x="198" y="575" type="line"/>
    </contour>
  </outline>
</glyph>
<glyph name="ovowelsigndeva" format="1">
  <advance width="307"/>
  <unicode hex="094B"/>
  <outline>
    <contour>
      <point x="-31" y="650" type="line"/>
      <point x="-31" y="634" type="line"/>
      <point x="0" y="575" type="line"/>
      <point x="109" y="575" type="line"/>
      <point x="109" y="-1" type="line"/>
      <point x="182" y="-42" type="line"/>
      <point x="198" y="-42" type="line"/>
      <point x="198" y="575" type="line"/>
      <point x="307" y="575" type="line"/>
      <point x="307" y="590" type="line"/>
      <point x="275" y="650" type="line"/>
    </contour>
    <contour>
      <point x="-165" y="1018"/>
      <point x="-193" y="996"/>
      <point x="-193" y="956" type="curve" smooth="yes"/>
      <point x="-193" y="928"/>
      <point x="-177" y="900"/>
      <point x="-158" y="885" type="curve"/>
      <point x="-39" y="921" type="line"/>
      <point x="-17" y="910"/>
      <point x="23" y="844"/>
      <point x="74" y="753" type="curve" smooth="yes"/>
      <point x="84" y="738"/>
      <point x="119" y="664"/>
      <point x="134" y="630" type="curve"/>
      <point x="188" y="630" type="line"/>
      <point x="170" y="674"/>
      <point x="124" y="765"/>
      <point x="105" y="801" type="curve" smooth="yes"/>
      <point x="41" y="924"/>
      <point x="-24" y="1018"/>
      <point x="-122" y="1018" type="curve" smooth="yes"/>
    </contour>
  </outline>
</glyph>
<glyph name="qadeva" format="1">
  <advance width="851"/>
  <unicode hex="0958"/>
  <outline>
    <component base="kadeva"/>
    <component base="nuktadeva" xOffset="379" yOffset="120"/>
    <contour>
      <point x="445" y="650" type="move" name="top"/>
    </contour>
    <contour>
      <point x="445" y="0" type="move" name="bottom"/>
    </contour>
  </outline>
</glyph>
<glyph name="qadeva" format="1">
  <advance width="851"/>
  <unicode hex="0958"/>
  <outline>
    <contour>
      <point x="227" y="-102" type="line"/>
      <point x="305" y="-23" type="line"/>
      <point x="226" y="55" type="line"/>
      <point x="149" y="-24" type="line"/>
    </contour>
    <contour>
      <point x="851" y="575" type="line"/>
      <point x="851" y="590" type="line"/>
      <point x="820" y="650" type="line"/>
      <point x="-31" y="650" type="line"/>
      <point x="-31" y="634" type="line"/>
      <point x="0" y="575" type="line"/>
      <point x="401" y="575" type="line"/>
      <point x="401" y="338" type="line"/>
      <point x="399" y="338" type="line"/>
      <point x="369" y="385"/>
      <point x="320" y="464"/>
      <point x="209" y="464" type="curve" smooth="yes"/>
      <point x="113" y="464"/>
      <point x="53" y="378"/>
      <point x="53" y="293" type="curve" smooth="yes"/>
      <point x="53" y="178"/>
      <point x="133" y="111"/>
      <point x="232" y="111" type="curve" smooth="yes"/>
      <point x="308" y="111"/>
      <point x="353" y="149"/>
      <point x="399" y="186" type="curve"/>
      <point x="403" y="184" type="line"/>
      <point x="399" y="0" type="line"/>
      <point x="473" y="-42" type="line"/>
      <point x="489" y="-42" type="line"/>
      <point x="489" y="265" type="line"/>
      <point x="529" y="305"/>
      <point x="591" y="360"/>
      <point x="657" y="360" type="curve" smooth="yes"/>
      <point x="708" y="360"/>
      <point x="748" y="318"/>
      <point x="748" y="262" type="curve" smooth="yes"/>
      <point x="748" y="203"/>
      <point x="691" y="128"/>
      <point x="664" y="98" type="curve"/>
      <point x="732" y="26" type="line"/>
      <point x="765" y="76"/>
      <point x="798" y="181"/>
      <point x="798" y="237" type="curve" smooth="yes"/>
      <point x="798" y="352"/>
      <point x="745" y="434"/>
      <point x="631" y="434" type="curve" smooth="yes"/>
      <point x="571" y="434"/>
      <point x="511" y="386"/>
      <point x="489" y="365" type="curve"/>
      <point x="489" y="575" type="line"/>
    </contour>
    <contour>
      <point x="401" y="283" type="line"/>
      <point x="363" y="248"/>
      <point x="292" y="188"/>
      <point x="198" y="188" type="curve" smooth="yes"/>
      <point x="154" y="188"/>
      <point x="102" y="217"/>
      <point x="102" y="269" type="curve" smooth="yes"/>
      <point x="102" y="342"/>
      <point x="180" y="374"/>
      <point x="242" y="374" type="curve" smooth="yes"/>
      <point x="311" y="374"/>
      <point x="375" y="321"/>
      <point x="401" y="285" type="curve"/>
    </contour>
    <contour>
      <point x="445" y="650" type="move" name="top"/>
    </contour>
    <contour>
      <point x="445" y="0" type="move" name="bottom"/>
    </contour>
  </outline>
</glyph>
<glyph name="khhadeva" format="1">
  <advance width="861"/>
  <unicode hex="0959"/>
  <outline>
    <component base="khadeva"/>
    <component base="nuktadeva" xOffset="347" yOffset="111"/>
    <contour>
      <point x="707" y="650" type="move" name="top"/>
    </contour>
    <contour>
      <point x="707" y="0" type="move" name="bottom"/>
    </contour>
  </outline>
</glyph>
<glyph name="fadeva" format="1">
  <advance width="842"/>
  <unicode hex="095E"/>
  <outline>
    <contour>
      <point x="195" y="-32" type="line"/>
      <point x="272" y="47" type="line"/>
      <point x="194" y="124" type="line"/>
      <point x="117" y="46" type="line"/>
    </contour>
    <contour>
      <point x="389" y="0" type="line"/>
      <point x="465" y="-42" type="line"/>
      <point x="480" y="-42" type="line"/>
      <point x="480" y="275" type="line"/>
      <point x="517" y="309"/>
      <point x="576" y="374"/>
      <point x="648" y="374" type="curve" smooth="yes"/>
      <point x="698" y="374"/>
      <point x="738" y="332"/>
      <point x="738" y="275" type="curve" smooth="yes"/>
      <point x="738" y="218"/>
      <point x="682" y="142"/>
      <point x="654" y="111" type="curve"/>
      <point x="723" y="40" type="line"/>
      <point x="755" y="90"/>
      <point x="789" y="195"/>
      <point x="789" y="251" type="curve" smooth="yes"/>
      <point x="789" y="367"/>
      <point x="735" y="448"/>
      <point x="622" y="448" type="curve" smooth="yes"/>
      <point x="559" y="448"/>
      <point x="507" y="400"/>
      <point x="480" y="377" type="curve"/>
      <point x="480" y="575" type="line"/>
      <point x="842" y="575" type="line"/>
      <point x="842" y="590" type="line"/>
      <point x="810" y="650" type="line"/>
      <point x="-31" y="650" type="line"/>
      <point x="-31" y="634" type="line"/>
      <point x="0" y="575" type="line"/>
      <point x="87" y="575" type="line"/>
      <point x="87" y="342" type="line" smooth="yes"/>
      <point x="87" y="305"/>
      <point x="108" y="271"/>
      <point x="144" y="236" type="curve" smooth="yes"/>
      <point x="183" y="198"/>
      <point x="224" y="166"/>
      <point x="270" y="166" type="curve" smooth="yes"/>
      <point x="317" y="166"/>
      <point x="355" y="182"/>
      <point x="389" y="202" type="curve"/>
      <point x="393" y="200" type="line"/>
    </contour>
    <contour>
      <point x="221" y="248"/>
      <point x="176" y="257"/>
      <point x="176" y="326" type="curve" smooth="yes"/>
      <point x="176" y="575" type="line"/>
      <point x="391" y="575" type="line"/>
      <point x="391" y="299" type="line"/>
      <point x="355" y="272"/>
      <point x="305" y="248"/>
      <point x="254" y="248" type="curve" smooth="yes"/>
    </contour>
    <contour>
      <point x="435" y="650" type="move" name="top"/>
    </contour>
    <contour>
      <point x="435" y="0" type="move" name="bottom"/>
    </contour>
  </outline>
</glyph>
<glyph name="dbldanda-deva" format="1">
  <advance width="775"/>
  <unicode hex="0965"/>
  <outline>
    <contour>
      <point x="267" y="677" type="line"/>
      <point x="267" y="-1" type="line"/>
      <point x="340" y="-42" type="line"/>
      <point x="355" y="-42" type="line"/>
      <point x="355" y="636" type="line"/>
      <point x="283" y="677" type="line"/>
    </contour>
    <contour>
      <point x="531" y="677" type="line"/>
      <point x="531" y="-1" type="line"/>
      <point x="603" y="-42" type="line"/>
      <point x="619" y="-42" type="line"/>
      <point x="619" y="636" type="line"/>
      <point x="547" y="677" type="line"/>
    </contour>
  </outline>
</glyph>
<glyph name="fivedeva" format="1">
  <advance width="631"/>
  <unicode hex="096B"/>
  <outline>
    <contour>
      <point x="228" y="174"/>
      <point x="187" y="218"/>
      <point x="187" y="261" type="curve" smooth="yes"/>
      <point x="187" y="347"/>
      <point x="247" y="490"/>
      <point x="300" y="599" type="curve"/>
      <point x="219" y="665" type="line"/>
      <point x="165" y="549"/>
      <point x="111" y="386"/>
      <point x="111" y="289" type="curve" smooth="yes"/>
      <point x="111" y="183"/>
      <point x="242" y="111"/>
      <point x="322" y="111" type="curve" smooth="yes"/>
      <point x="351" y="111"/>
      <point x="386" y="123"/>
      <point x="415" y="141" type="curve"/>
      <point x="587" y="-150" type="line"/>
      <point x="649" y="-110" type="line"/>
      <point x="460" y="176" type="line"/>
      <point x="491" y="205"/>
      <point x="513" y="242"/>
      <point x="513" y="273" type="curve" smooth="yes"/>
      <point x="513" y="320"/>
      <point x="466" y="347"/>
      <point x="417" y="347" type="curve" smooth="yes"/>
      <point x="407" y="347"/>
      <point x="397" y="346"/>
      <point x="387" y="343" type="curve"/>
      <point x="387" y="230" type="line"/>
      <point x="342" y="198"/>
      <point x="293" y="174"/>
      <point x="263" y="174" type="curve" smooth="yes"/>
    </contour>
  </outline>
</glyph>
<glyph name="sixdeva" format="1">
  <advance width="631"/>
  <unicode hex="096C"/>
  <outline>
    <contour>
      <point x="311" y="670" type="line"/>
      <point x="297" y="671"/>
      <point x="282" y="671"/>
      <point x="267" y="671" type="curve" smooth="yes"/>
      <point x="91" y="671"/>
      <point x="38" y="596"/>
      <point x="38" y="511" type="curve" smooth="yes"/>
      <point x="38" y="452"/>
      <point x="101" y="382"/>
      <point x="153" y="340" type="curve"/>
      <point x="126" y="314"/>
      <point x="108" y="283"/>
      <point x="108" y="247" type="curve" smooth="yes"/>
      <point x="108" y="175"/>
      <point x="265" y="9"/>
      <point x="350" y="9" type="curve" smooth="yes"/>
      <point x="388" y="9"/>
      <point x="429" y="20"/>
      <point x="465" y="39" type="curve"/>
      <point x="571" y="-160" type="line"/>
      <point x="624" y="-129" type="line"/>
      <point x="502" y="66" type="line"/>
      <point x="527" y="89"/>
      <point x="543" y="117"/>
      <point x="543" y="146" type="curve" smooth="yes"/>
      <point x="543" y="184"/>
      <point x="505" y="202"/>
      <point x="465" y="202" type="curve" smooth="yes"/>
      <point x="455" y="202"/>
      <point x="445" y="201"/>
      <point x="435" y="198" type="curve"/>
      <point x="435" y="119" type="line"/>
      <point x="393" y="104"/>
      <point x="349" y="93"/>
      <point x="311" y="93" type="curve" smooth="yes"/>
      <point x="251" y="93"/>
      <point x="190" y="154"/>
      <point x="190" y="206" type="curve" smooth="yes"/>
      <point x="190" y="255"/>
      <point x="220" y="283"/>
      <point x="255" y="305" type="curve"/>
      <point x="347" y="309"/>
      <point x="438" y="334"/>
      <point x="438" y="357" type="curve" smooth="yes"/>
      <point x="438" y="403"/>
      <point x="413" y="427"/>
      <point x="387" y="427" type="curve" smooth="yes"/>
      <point x="335" y="427"/>
      <point x="253" y="407"/>
      <point x="190" y="369" type="curve"/>
      <point x="164" y="380"/>
      <point x="120" y="426"/>
      <point x="120" y="470" type="curve" smooth="yes"/>
      <point x="120" y="559"/>
      <point x="193" y="578"/>
      <point x="310" y="578" type="curve" smooth="yes"/>
      <point x="325" y="578"/>
      <point x="344" y="576"/>
      <point x="364" y="573" type="curve"/>
    </contour>
  </outline>
</glyph>
<glyph name="abbreviationsigndeva" format="1">
  <advance width="447"/>
  <unicode hex="0970"/>
  <outline>
    <contour>
      <point x="139" y="344"/>
      <point x="179" y="374"/>
      <point x="213" y="374" type="curve" smooth="yes"/>
      <point x="256" y="374"/>
      <point x="309" y="316"/>
      <point x="309" y="252" type="curve" smooth="yes"/>
      <point x="309" y="210"/>
      <point x="269" y="180"/>
      <point x="236" y="180" type="curve" smooth="yes"/>
      <point x="205" y="180"/>
      <point x="139" y="221"/>
      <point x="139" y="302" type="curve" smooth="yes"/>
    </contour>
    <contour>
      <point x="66" y="177"/>
      <point x="139" y="114"/>
      <point x="218" y="114" type="curve" smooth="yes"/>
      <point x="273" y="114"/>
      <point x="381" y="187"/>
      <point x="381" y="282" type="curve" smooth="yes"/>
      <point x="381" y="383"/>
      <point x="304" y="439"/>
      <point x="229" y="439" type="curve" smooth="yes"/>
      <point x="172" y="439"/>
      <point x="66" y="362"/>
      <point x="66" y="274" type="curve" smooth="yes"/>
    </contour>
  </outline>
</glyph>
<glyph name="uni0976" format="1">
  <advance width="843"/>
  <unicode hex="0976"/>
  <outline>
    <contour>
      <point x="843" y="575" type="line"/>
      <point x="843" y="590" type="line"/>
      <point x="811" y="650" type="line"/>
      <point x="467" y="650" type="line"/>
      <point x="467" y="634" type="line"/>
      <point x="499" y="575" type="line"/>
      <point x="645" y="575" type="line"/>
      <point x="645" y="327" type="line"/>
      <point x="618" y="310"/>
      <point x="589" y="296"/>
      <point x="545" y="296" type="curve" smooth="yes"/>
      <point x="492" y="296"/>
      <point x="432" y="320"/>
      <point x="397" y="339" type="curve"/>
      <point x="429" y="368"/>
      <point x="451" y="419"/>
      <point x="451" y="461" type="curve" smooth="yes"/>
      <point x="451" y="557"/>
      <point x="336" y="665"/>
      <point x="256" y="667" type="curve" smooth="yes"/>
      <point x="219" y="667"/>
      <point x="133" y="630"/>
      <point x="96" y="603" type="curve"/>
      <point x="142" y="516" type="line"/>
      <point x="183" y="553"/>
      <point x="234" y="586"/>
      <point x="290" y="586" type="curve" smooth="yes"/>
      <point x="342" y="586"/>
      <point x="388" y="544"/>
      <point x="388" y="497" type="curve" smooth="yes"/>
      <point x="388" y="450"/>
      <point x="360" y="425"/>
      <point x="328" y="407" type="curve" smooth="yes"/>
      <point x="292" y="388"/>
      <point x="233" y="382"/>
      <point x="197" y="380" type="curve"/>
      <point x="186" y="353" type="line"/>
      <point x="221" y="289" type="line"/>
      <point x="252" y="293"/>
      <point x="315" y="303"/>
      <point x="355" y="316" type="curve"/>
      <point x="386" y="290"/>
      <point x="399" y="247"/>
      <point x="399" y="210" type="curve" smooth="yes"/>
      <point x="399" y="150"/>
      <point x="350" y="98"/>
      <point x="280" y="98" type="curve" smooth="yes"/>
      <point x="186" y="98"/>
      <point x="93" y="199"/>
      <point x="42" y="284" type="curve"/>
      <point x="8" y="262" type="line"/>
      <point x="57" y="173"/>
      <point x="153" y="18"/>
      <point x="317" y="18" type="curve" smooth="yes"/>
      <point x="414" y="18"/>
      <point x="478" y="77"/>
      <point x="478" y="173" type="curve" smooth="yes"/>
      <point x="478" y="209"/>
      <point x="469" y="240"/>
      <point x="455" y="267" type="curve"/>
      <point x="460" y="270" type="line"/>
      <point x="498" y="240"/>
      <point x="537" y="220"/>
      <point x="585" y="220" type="curve" smooth="yes"/>
      <point x="609" y="220"/>
      <point x="630" y="225"/>
      <point x="643" y="232" type="curve"/>
      <point x="645" y="232" type="line"/>
      <point x="645" y="-1" type="line"/>
      <point x="717" y="-42" type="line"/>
      <point x="733" y="-42" type="line"/>
      <point x="733" y="575" type="line"/>
    </contour>
    <contour>
      <point x="328" y="-147"/>
      <point x="272" y="-107"/>
      <point x="236" y="-61" type="curve"/>
      <point x="198" y="-92" type="line"/>
      <point x="237" y="-160"/>
      <point x="321" y="-217"/>
      <point x="416" y="-217" type="curve"/>
      <point x="510" y="-217"/>
      <point x="594" y="-160"/>
      <point x="633" y="-92" type="curve"/>
      <point x="596" y="-61" type="line"/>
      <point x="560" y="-107"/>
      <point x="504" y="-147"/>
      <point x="416" y="-147" type="curve"/>
    </contour>
  </outline>
</glyph>
<glyph name="uni097F" format="1">
  <advance width="666"/>
  <unicode hex="097F"/>
  <outline>
    <contour>
      <point x="666" y="575" type="line"/>
      <point x="666" y="590" type="line"/>
      <point x="634" y="650" type="line"/>
      <point x="-31" y="650" type="line"/>
      <point x="-31" y="634" type="line"/>
      <point x="0" y="575" type="line"/>
      <point x="468" y="575" type="line"/>
      <point x="468" y="357" type="line"/>
      <point x="466" y="357" type="line"/>
      <point x="436" y="397"/>
      <point x="350" y="485"/>
      <point x="250" y="485" type="curve" smooth="yes"/>
      <point x="167" y="485"/>
      <point x="66" y="410"/>
      <point x="66" y="278" type="curve" smooth="yes"/>
      <point x="66" y="159"/>
      <point x="175" y="93"/>
      <point x="276" y="93" type="curve" smooth="yes"/>
      <point x="350" y="93"/>
      <point x="402" y="138"/>
      <point x="466" y="186" type="curve"/>
      <point x="469" y="184" type="line"/>
      <point x="466" y="20" type="line"/>
      <point x="31" y="20" type="line"/>
      <point x="31" y="5" type="line"/>
      <point x="57" y="-42" type="line"/>
      <point x="556" y="-42" type="line"/>
      <point x="556" y="575" type="line"/>
    </contour>
    <contour>
      <point x="167" y="164"/>
      <point x="115" y="201"/>
      <point x="115" y="256" type="curve" smooth="yes"/>
      <point x="115" y="297"/>
      <point x="145" y="345"/>
      <point x="198" y="372" type="curve"/>
      <point x="322" y="184" type="line"/>
      <point x="293" y="172"/>
      <point x="263" y="164"/>
      <point x="236" y="164" type="curve" smooth="yes"/>
    </contour>
    <contour>
      <point x="232" y="386" type="line"/>
      <point x="253" y="392"/>
      <point x="275" y="397"/>
      <point x="301" y="397" type="curve" smooth="yes"/>
      <point x="363" y="397"/>
      <point x="436" y="342"/>
      <point x="468" y="297" type="curve"/>
      <point x="468" y="295" type="line"/>
      <point x="442" y="262"/>
      <point x="400" y="226"/>
      <point x="354" y="201" type="curve"/>
    </contour>
    <contour>
      <point x="511" y="650" type="move" name="top"/>
    </contour>
    <contour>
      <point x="511" y="0" type="move" name="bottom"/>
    </contour>
  </outline>
</glyph>
<glyph name="uni20B9" format="1">
  <advance width="631"/>
  <unicode hex="20B9"/>
  <outline>
    <contour>
      <point x="235" y="270" type="line"/>
      <point x="307" y="294"/>
      <point x="417" y="344"/>
      <point x="417" y="463" type="curve" smooth="yes"/>
      <point x="417" y="507"/>
      <point x="399" y="544"/>
      <point x="370" y="575" type="curve"/>
      <point x="257" y="575" type="line"/>
      <point x="299" y="535"/>
      <point x="326" y="492"/>
      <point x="326" y="450" type="curve" smooth="yes"/>
      <point x="326" y="358"/>
      <point x="194" y="306"/>
      <point x="156" y="297" type="curve"/>
      <point x="151" y="293" type="line"/>
      <point x="153" y="278"/>
      <point x="162" y="244"/>
      <point x="194" y="207" type="curve" smooth="yes"/>
      <point x="416" y="-47" type="line"/>
      <point x="493" y="12" type="line"/>
    </contour>
    <contour>
      <point x="587" y="484" type="line"/>
      <point x="587" y="500" type="line"/>
      <point x="156" y="500" type="line"/>
      <point x="125" y="440" type="line"/>
      <point x="125" y="425" type="line"/>
      <point x="555" y="425" type="line"/>
    </contour>
    <contour>
      <point x="587" y="634" type="line"/>
      <point x="587" y="650" type="line"/>
      <point x="156" y="650" type="line"/>
      <point x="125" y="590" type="line"/>
      <point x="125" y="575" type="line"/>
      <point x="555" y="575" type="line"/>
    </contour>
  </outline>
</glyph>
<glyph name="aivowelsigndeva_anusvaradeva" format="1">
  <advance width="0"/>
  <outline>
    <contour>
      <point x="-55" y="721" type="line"/>
      <point x="22" y="800" type="line"/>
      <point x="-56" y="878" type="line"/>
      <point x="-133" y="799" type="line"/>
    </contour>
    <contour>
      <point x="-123" y="648" type="line"/>
      <point x="-140" y="697"/>
      <point x="-170" y="764"/>
      <point x="-185" y="801" type="curve" smooth="yes"/>
      <point x="-240" y="928"/>
      <point x="-311" y="1045"/>
      <point x="-427" y="1045" type="curve" smooth="yes"/>
      <point x="-470" y="1045"/>
      <point x="-499" y="1023"/>
      <point x="-499" y="983" type="curve" smooth="yes"/>
      <point x="-499" y="956"/>
      <point x="-482" y="927"/>
      <point x="-464" y="913" type="curve"/>
      <point x="-462" y="913" type="line"/>
      <point x="-327" y="950" type="line"/>
      <point x="-302" y="927"/>
      <point x="-249" y="840"/>
      <point x="-203" y="749" type="curve" smooth="yes"/>
      <point x="-195" y="732"/>
      <point x="-173" y="682"/>
      <point x="-159" y="648" type="curve"/>
    </contour>
    <contour>
      <point x="-188" y="648" type="line"/>
      <point x="-260" y="759"/>
      <point x="-346" y="869"/>
      <point x="-445" y="869" type="curve" smooth="yes"/>
      <point x="-484" y="869"/>
      <point x="-512" y="846"/>
      <point x="-512" y="811" type="curve" smooth="yes"/>
      <point x="-512" y="793"/>
      <point x="-501" y="769"/>
      <point x="-482" y="754" type="curve"/>
      <point x="-480" y="754" type="line"/>
      <point x="-336" y="772" type="line"/>
      <point x="-321" y="765"/>
      <point x="-257" y="690"/>
      <point x="-225" y="648" type="curve"/>
    </contour>
    <contour>
      <point x="-153" y="650" type="move" name="_top"/>
    </contour>
  </outline>
</glyph>
<glyph name="uni094C_uni0902" format="1">
  <advance width="307"/>
  <outline>
    <contour>
      <point x="307" y="575" type="line"/>
      <point x="307" y="590" type="line"/>
      <point x="275" y="650" type="line"/>
      <point x="185" y="650" type="line"/>
      <point x="170" y="698"/>
      <point x="141" y="765"/>
      <point x="124" y="801" type="curve" smooth="yes"/>
      <point x="69" y="928"/>
      <point x="-1" y="1045"/>
      <point x="-117" y="1045" type="curve" smooth="yes"/>
      <point x="-161" y="1045"/>
      <point x="-188" y="1023"/>
      <point x="-188" y="983" type="curve" smooth="yes"/>
      <point x="-188" y="956"/>
      <point x="-172" y="927"/>
      <point x="-153" y="913" type="curve"/>
      <point x="-151" y="913" type="line"/>
      <point x="-17" y="950" type="line"/>
      <point x="9" y="927"/>
      <point x="61" y="840"/>
      <point x="106" y="749" type="curve" smooth="yes"/>
      <point x="115" y="732"/>
      <point x="136" y="684"/>
      <point x="150" y="650" type="curve"/>
      <point x="120" y="650" type="line"/>
      <point x="49" y="760"/>
      <point x="-36" y="869"/>
      <point x="-136" y="869" type="curve" smooth="yes"/>
      <point x="-175" y="869"/>
      <point x="-202" y="846"/>
      <point x="-202" y="811" type="curve" smooth="yes"/>
      <point x="-202" y="793"/>
      <point x="-190" y="769"/>
      <point x="-172" y="754" type="curve"/>
      <point x="-170" y="754" type="line"/>
      <point x="-26" y="772" type="line"/>
      <point x="-11" y="765"/>
      <point x="50" y="691"/>
      <point x="83" y="650" type="curve"/>
      <point x="-31" y="650" type="line"/>
      <point x="-31" y="634" type="line"/>
      <point x="0" y="575" type="line"/>
      <point x="109" y="575" type="line"/>
      <point x="109" y="-1" type="line"/>
      <point x="182" y="-42" type="line"/>
      <point x="198" y="-42" type="line"/>
      <point x="198" y="575" type="line"/>
    </contour>
    <contour>
      <point x="256" y="721" type="line"/>
      <point x="333" y="800" type="line"/>
      <point x="255" y="878" type="line"/>
      <point x="178" y="799" type="line"/>
    </contour>
  </outline>
</glyph>
<glyph name="uni091A094D091A" format="1">
  <advance width="666"/>
  <outline>
    <contour>
      <point x="-31" y="650" type="line"/>
      <point x="-31" y="634" type="line"/>
      <point x="0" y="575" type="line"/>
      <point x="468" y="575" type="line"/>
      <point x="468" y="187" type="line"/>
      <point x="431" y="135"/>
      <point x="335" y="65"/>
      <point x="277" y="65" type="curve" smooth="yes"/>
      <point x="233" y="65"/>
      <point x="194" y="90"/>
      <point x="194" y="125" type="curve" smooth="yes"/>
      <point x="194" y="173"/>
      <point x="225" y="196"/>
      <point x="276" y="220" type="curve"/>
      <point x="410" y="220" type="line"/>
      <point x="410" y="235" type="line"/>
      <point x="379" y="295" type="line"/>
      <point x="32" y="295" type="line"/>
      <point x="32" y="279" type="line"/>
      <point x="64" y="220" type="line"/>
      <point x="163" y="220" type="line"/>
      <point x="142" y="201"/>
      <point x="127" y="176"/>
      <point x="127" y="149" type="curve" smooth="yes"/>
      <point x="127" y="112"/>
      <point x="167" y="76"/>
      <point x="186" y="60" type="curve" smooth="yes"/>
      <point x="220" y="30"/>
      <point x="258" y="13"/>
      <point x="309" y="13" type="curve" smooth="yes"/>
      <point x="360" y="13"/>
      <point x="422" y="36"/>
      <point x="466" y="69" type="curve"/>
      <point x="469" y="67" type="line"/>
      <point x="466" y="-20" type="line"/>
      <point x="540" y="-61" type="line"/>
      <point x="556" y="-61" type="line"/>
      <point x="556" y="575" type="line"/>
      <point x="666" y="575" type="line"/>
      <point x="666" y="590" type="line"/>
      <point x="634" y="650" type="line"/>
    </contour>
    <contour>
      <point x="32" y="490" type="line"/>
      <point x="32" y="474" type="line"/>
      <point x="64" y="415" type="line"/>
      <point x="154" y="415" type="line"/>
      <point x="141" y="401"/>
      <point x="127" y="377"/>
      <point x="127" y="354" type="curve" smooth="yes"/>
      <point x="127" y="298"/>
      <point x="210" y="241"/>
      <point x="238" y="227" type="curve"/>
      <point x="256" y="266" type="line"/>
      <point x="224" y="276"/>
      <point x="194" y="300"/>
      <point x="194" y="330" type="curve" smooth="yes"/>
      <point x="194" y="379"/>
      <point x="232" y="403"/>
      <point x="259" y="415" type="curve"/>
      <point x="410" y="415" type="line"/>
      <point x="410" y="430" type="line"/>
      <point x="379" y="490" type="line"/>
    </contour>
    <contour>
      <point x="511" y="650" type="move" name="top"/>
    </contour>
    <contour>
      <point x="511" y="0" type="move" name="bottom"/>
    </contour>
  </outline>
</glyph>
<glyph name="uni0926094D0927" format="1">
  <advance width="741"/>
  <outline>
    <contour>
      <point x="-31" y="650" type="line"/>
      <point x="-31" y="634" type="line"/>
      <point x="0" y="575" type="line"/>
      <point x="501" y="575" type="line"/>
      <point x="501" y="471" type="line"/>
      <point x="422" y="471" type="line" smooth="yes"/>
      <point x="288" y="471"/>
      <point x="224" y="431"/>
      <point x="224" y="333" type="curve" smooth="yes"/>
      <point x="224" y="178"/>
      <point x="364" y="85"/>
      <point x="456" y="85" type="curve" smooth="yes"/>
      <point x="492" y="85"/>
      <point x="523" y="89"/>
      <point x="550" y="98" type="curve"/>
      <point x="645" y="-115" type="line"/>
      <point x="704" y="-85" type="line"/>
      <point x="590" y="115" type="line"/>
      <point x="636" y="140"/>
      <point x="661" y="172"/>
      <point x="661" y="213" type="curve" smooth="yes"/>
      <point x="661" y="247"/>
      <point x="632" y="294"/>
      <point x="567" y="294" type="curve" smooth="yes"/>
      <point x="550" y="294"/>
      <point x="524" y="288"/>
      <point x="502" y="275" type="curve"/>
      <point x="524" y="166" type="line"/>
      <point x="504" y="162"/>
      <point x="480" y="160"/>
      <point x="456" y="160" type="curve" smooth="yes"/>
      <point x="416" y="160"/>
      <point x="273" y="191"/>
      <point x="273" y="306" type="curve" smooth="yes"/>
      <point x="273" y="355"/>
      <point x="320" y="391"/>
      <point x="445" y="391" type="curve" smooth="yes"/>
      <point x="590" y="391" type="line"/>
      <point x="590" y="575" type="line"/>
      <point x="741" y="575" type="line"/>
      <point x="741" y="590" type="line"/>
      <point x="709" y="650" type="line"/>
    </contour>
    <contour>
      <point x="83" y="224"/>
      <point x="21" y="177"/>
      <point x="21" y="102" type="curve" smooth="yes"/>
      <point x="21" y="4"/>
      <point x="129" y="-35"/>
      <point x="288" y="-19" type="curve"/>
      <point x="287" y="28" type="line"/>
      <point x="274" y="25"/>
      <point x="265" y="24"/>
      <point x="254" y="24" type="curve" smooth="yes"/>
      <point x="170" y="24"/>
      <point x="103" y="47"/>
      <point x="103" y="109" type="curve" smooth="yes"/>
      <point x="103" y="157"/>
      <point x="135" y="172"/>
      <point x="157" y="179" type="curve"/>
      <point x="214" y="109" type="line"/>
      <point x="230" y="114"/>
      <point x="253" y="135"/>
      <point x="253" y="161" type="curve" smooth="yes"/>
      <point x="253" y="193"/>
      <point x="224" y="224"/>
      <point x="170" y="224" type="curve" smooth="yes"/>
    </contour>
    <contour>
      <point x="458" y="-156" type="line" smooth="yes"/>
      <point x="497" y="-199" type="line"/>
      <point x="653" y="-54" type="line"/>
      <point x="623" y="-29" type="line"/>
    </contour>
    <contour>
      <point x="375" y="146" type="line"/>
      <point x="308" y="112"/>
      <point x="249" y="82"/>
      <point x="249" y="3" type="curve" smooth="yes"/>
      <point x="249" y="-86"/>
      <point x="318" y="-113"/>
      <point x="416" y="-113" type="curve" smooth="yes"/>
      <point x="471" y="-113"/>
      <point x="562" y="-73"/>
      <point x="609" y="4" type="curve"/>
      <point x="566" y="118" type="line"/>
      <point x="545" y="29"/>
      <point x="462" y="-61"/>
      <point x="392" y="-61" type="curve" smooth="yes"/>
      <point x="354" y="-61"/>
      <point x="327" y="-35"/>
      <point x="327" y="10" type="curve" smooth="yes"/>
      <point x="327" y="52"/>
      <point x="359" y="80"/>
      <point x="421" y="107" type="curve"/>
      <point x="421" y="147" type="line"/>
    </contour>
    <contour>
      <point x="546" y="650" type="move" name="top"/>
    </contour>
    <contour>
      <point x="735" y="-131" type="move" name="bottom"/>
    </contour>
  </outline>
</glyph>
<glyph name="uni0926094D0917" format="1">
  <advance width="563"/>
  <outline>
    <contour>
      <point x="198" y="76"/>
      <point x="309" y="76" type="curve"/>
      <point x="333" y="76"/>
      <point x="353" y="80"/>
      <point x="377" y="84" type="curve"/>
      <point x="483" y="-140" type="line"/>
      <point x="543" y="-109" type="line"/>
      <point x="423" y="96" type="line"/>
      <point x="465" y="118"/>
      <point x="483" y="153"/>
      <point x="483" y="189" type="curve" smooth="yes"/>
      <point x="483" y="240"/>
      <point x="443" y="288"/>
      <point x="386" y="288" type="curve" smooth="yes"/>
      <point x="369" y="288"/>
      <point x="344" y="284"/>
      <point x="321" y="269" type="curve"/>
      <point x="346" y="153" type="line"/>
      <point x="332" y="150"/>
      <point x="314" y="148"/>
      <point x="297" y="148" type="curve" smooth="yes"/>
      <point x="248" y="148"/>
      <point x="115" y="180"/>
      <point x="115" y="288" type="curve" smooth="yes"/>
      <point x="115" y="372"/>
      <point x="171" y="415"/>
      <point x="287" y="415" type="curve" smooth="yes"/>
      <point x="412" y="415" type="line"/>
      <point x="412" y="575" type="line"/>
      <point x="563" y="575" type="line"/>
      <point x="563" y="590" type="line"/>
      <point x="532" y="650" type="line"/>
      <point x="-31" y="650" type="line"/>
      <point x="-31" y="634" type="line"/>
      <point x="0" y="575" type="line"/>
      <point x="324" y="575" type="line"/>
      <point x="324" y="495" type="line"/>
      <point x="282" y="495" type="line" smooth="yes"/>
      <point x="130" y="495"/>
      <point x="66" y="449"/>
      <point x="66" y="314" type="curve" smooth="yes"/>
      <point x="66" y="184"/>
    </contour>
    <contour>
      <point x="248" y="-78" type="line"/>
      <point x="181" y="-92" type="line"/>
      <point x="188" y="-137"/>
      <point x="209" y="-201"/>
      <point x="264" y="-201" type="curve" smooth="yes"/>
      <point x="320" y="-201"/>
      <point x="342" y="-150"/>
      <point x="322" y="-87" type="curve" smooth="yes"/>
      <point x="305" y="-33"/>
      <point x="274" y="49"/>
      <point x="250" y="112" type="curve"/>
      <point x="189" y="174" type="line"/>
    </contour>
    <contour>
      <point x="368" y="650" type="move" name="top"/>
    </contour>
    <contour>
      <point x="533" y="-160" type="move" name="bottom"/>
    </contour>
  </outline>
</glyph>
<glyph name="uni0926094D0928" format="1">
  <advance width="563"/>
  <outline>
    <contour>
      <point x="-31" y="650" type="line"/>
      <point x="-31" y="634" type="line"/>
      <point x="0" y="575" type="line"/>
      <point x="324" y="575" type="line"/>
      <point x="324" y="495" type="line"/>
      <point x="282" y="495" type="line" smooth="yes"/>
      <point x="130" y="495"/>
      <point x="66" y="449"/>
      <point x="66" y="314" type="curve" smooth="yes"/>
      <point x="66" y="197"/>
      <point x="165" y="115"/>
      <point x="252" y="87" type="curve"/>
      <point x="252" y="72" type="line"/>
      <point x="307" y="81" type="line"/>
      <point x="300" y="103" type="line"/>
      <point x="222" y="73"/>
      <point x="145" y="41"/>
      <point x="100" y="20" type="curve" smooth="yes"/>
      <point x="68" y="5"/>
      <point x="18" y="-31"/>
      <point x="18" y="-80" type="curve" smooth="yes"/>
      <point x="18" y="-138"/>
      <point x="68" y="-165"/>
      <point x="113" y="-165" type="curve" smooth="yes"/>
      <point x="144" y="-165"/>
      <point x="179" y="-152"/>
      <point x="201" y="-132" type="curve"/>
      <point x="148" y="-47" type="line"/>
      <point x="381" y="76" type="line"/>
      <point x="483" y="-140" type="line"/>
      <point x="543" y="-109" type="line"/>
      <point x="423" y="96" type="line"/>
      <point x="465" y="118"/>
      <point x="483" y="153"/>
      <point x="483" y="189" type="curve" smooth="yes"/>
      <point x="483" y="240"/>
      <point x="443" y="288"/>
      <point x="386" y="288" type="curve" smooth="yes"/>
      <point x="369" y="288"/>
      <point x="344" y="284"/>
      <point x="321" y="269" type="curve"/>
      <point x="346" y="153" type="line"/>
      <point x="332" y="150"/>
      <point x="314" y="148"/>
      <point x="297" y="148" type="curve" smooth="yes"/>
      <point x="248" y="148"/>
      <point x="115" y="180"/>
      <point x="115" y="288" type="curve" smooth="yes"/>
      <point x="115" y="372"/>
      <point x="171" y="415"/>
      <point x="287" y="415" type="curve" smooth="yes"/>
      <point x="412" y="415" type="line"/>
      <point x="412" y="575" type="line"/>
      <point x="563" y="575" type="line"/>
      <point x="563" y="590" type="line"/>
      <point x="532" y="650" type="line"/>
    </contour>
    <contour>
      <point x="368" y="650" type="move" name="top"/>
    </contour>
    <contour>
      <point x="448" y="-140" type="move" name="bottom"/>
    </contour>
  </outline>
</glyph>
<glyph name="uni0921094D0922" format="1">
  <advance width="610"/>
  <outline>
    <contour>
      <point x="610" y="590" type="line"/>
      <point x="578" y="650" type="line"/>
      <point x="-31" y="650" type="line"/>
      <point x="-31" y="634" type="line"/>
      <point x="0" y="575" type="line"/>
      <point x="370" y="575" type="line"/>
      <point x="370" y="495" type="line"/>
      <point x="213" y="495" type="line" smooth="yes"/>
      <point x="159" y="495"/>
      <point x="123" y="468"/>
      <point x="123" y="413" type="curve" smooth="yes"/>
      <point x="123" y="363"/>
      <point x="247" y="273"/>
      <point x="304" y="273" type="curve" smooth="yes"/>
      <point x="344" y="273"/>
      <point x="395" y="298"/>
      <point x="449" y="298" type="curve"/>
      <point x="466" y="289"/>
      <point x="471" y="265"/>
      <point x="471" y="255" type="curve" smooth="yes"/>
      <point x="471" y="215"/>
      <point x="423" y="188"/>
      <point x="350" y="188" type="curve" smooth="yes"/>
      <point x="242" y="188"/>
      <point x="160" y="223"/>
      <point x="54" y="347" type="curve"/>
      <point x="17" y="310" type="line"/>
      <point x="141" y="172"/>
      <point x="259" y="126"/>
      <point x="375" y="123" type="curve"/>
      <point x="375" y="71" type="line"/>
      <point x="282" y="71" type="line" smooth="yes"/>
      <point x="194" y="71"/>
      <point x="100" y="38"/>
      <point x="100" y="-75" type="curve" smooth="yes"/>
      <point x="100" y="-188"/>
      <point x="253" y="-305"/>
      <point x="389" y="-305" type="curve" smooth="yes"/>
      <point x="490" y="-305"/>
      <point x="554" y="-230"/>
      <point x="554" y="-185" type="curve" smooth="yes"/>
      <point x="554" y="-127"/>
      <point x="499" y="-61"/>
      <point x="407" y="-61" type="curve" smooth="yes"/>
      <point x="357" y="-61"/>
      <point x="289" y="-95"/>
      <point x="289" y="-151" type="curve" smooth="yes"/>
      <point x="289" y="-178"/>
      <point x="297" y="-201"/>
      <point x="311" y="-227" type="curve"/>
      <point x="256" y="-214"/>
      <point x="177" y="-179"/>
      <point x="177" y="-102" type="curve" smooth="yes"/>
      <point x="177" y="-28"/>
      <point x="238" y="-4"/>
      <point x="305" y="-4" type="curve" smooth="yes"/>
      <point x="454" y="-4" type="line"/>
      <point x="454" y="131" type="line"/>
      <point x="512" y="147"/>
      <point x="543" y="187"/>
      <point x="543" y="232" type="curve" smooth="yes"/>
      <point x="543" y="277"/>
      <point x="466" y="364"/>
      <point x="408" y="364" type="curve" smooth="yes"/>
      <point x="369" y="364"/>
      <point x="299" y="339"/>
      <point x="257" y="339" type="curve" smooth="yes"/>
      <point x="237" y="339"/>
      <point x="208" y="359"/>
      <point x="208" y="379" type="curve" smooth="yes"/>
      <point x="208" y="397"/>
      <point x="218" y="425"/>
      <point x="245" y="425" type="curve" smooth="yes"/>
      <point x="459" y="425" type="line"/>
      <point x="459" y="575" type="line"/>
      <point x="610" y="575" type="line"/>
    </contour>
    <contour>
      <point x="355" y="-156"/>
      <point x="390" y="-118"/>
      <point x="440" y="-118" type="curve" smooth="yes"/>
      <point x="474" y="-118"/>
      <point x="492" y="-141"/>
      <point x="492" y="-168" type="curve" smooth="yes"/>
      <point x="492" y="-198"/>
      <point x="454" y="-232"/>
      <point x="361" y="-234" type="curve"/>
      <point x="357" y="-222"/>
      <point x="355" y="-207"/>
      <point x="355" y="-190" type="curve" smooth="yes"/>
    </contour>
    <contour>
      <point x="414" y="650" type="move" name="top"/>
    </contour>
    <contour>
      <point x="389" y="-273" type="move" name="bottom"/>
    </contour>
  </outline>
</glyph>
<glyph name="uni0922094D0922" format="1">
  <advance width="610"/>
  <outline>
    <contour>
      <point x="-31" y="650" type="line"/>
      <point x="-31" y="634" type="line"/>
      <point x="0" y="575" type="line"/>
      <point x="370" y="575" type="line"/>
      <point x="370" y="497" type="line"/>
      <point x="282" y="497" type="line" smooth="yes"/>
      <point x="194" y="497"/>
      <point x="100" y="464"/>
      <point x="100" y="350" type="curve" smooth="yes"/>
      <point x="100" y="237"/>
      <point x="253" y="121"/>
      <point x="389" y="121" type="curve" smooth="yes"/>
      <point x="490" y="121"/>
      <point x="554" y="195"/>
      <point x="554" y="240" type="curve" smooth="yes"/>
      <point x="554" y="299"/>
      <point x="499" y="364"/>
      <point x="407" y="364" type="curve" smooth="yes"/>
      <point x="357" y="364"/>
      <point x="289" y="331"/>
      <point x="289" y="274" type="curve" smooth="yes"/>
      <point x="289" y="248"/>
      <point x="297" y="224"/>
      <point x="311" y="198" type="curve"/>
      <point x="256" y="212"/>
      <point x="177" y="247"/>
      <point x="177" y="323" type="curve" smooth="yes"/>
      <point x="177" y="397"/>
      <point x="238" y="422"/>
      <point x="305" y="422" type="curve" smooth="yes"/>
      <point x="459" y="422" type="line"/>
      <point x="459" y="575" type="line"/>
      <point x="610" y="575" type="line"/>
      <point x="610" y="590" type="line"/>
      <point x="578" y="650" type="line"/>
    </contour>
    <contour>
      <point x="474" y="-118"/>
      <point x="492" y="-141"/>
      <point x="492" y="-168" type="curve" smooth="yes"/>
      <point x="492" y="-198"/>
      <point x="454" y="-232"/>
      <point x="361" y="-234" type="curve"/>
      <point x="357" y="-222"/>
      <point x="355" y="-207"/>
      <point x="355" y="-190" type="curve" smooth="yes"/>
      <point x="355" y="-156"/>
      <point x="390" y="-118"/>
      <point x="440" y="-118" type="curve" smooth="yes"/>
    </contour>
    <contour>
      <point x="375" y="151" type="line"/>
      <point x="375" y="71" type="line"/>
      <point x="282" y="71" type="line" smooth="yes"/>
      <point x="194" y="71"/>
      <point x="100" y="38"/>
      <point x="100" y="-75" type="curve" smooth="yes"/>
      <point x="100" y="-188"/>
      <point x="253" y="-305"/>
      <point x="389" y="-305" type="curve" smooth="yes"/>
      <point x="490" y="-305"/>
      <point x="554" y="-230"/>
      <point x="554" y="-185" type="curve" smooth="yes"/>
      <point x="554" y="-127"/>
      <point x="499" y="-61"/>
      <point x="407" y="-61" type="curve" smooth="yes"/>
      <point x="357" y="-61"/>
      <point x="289" y="-95"/>
      <point x="289" y="-151" type="curve" smooth="yes"/>
      <point x="289" y="-178"/>
      <point x="297" y="-201"/>
      <point x="311" y="-227" type="curve"/>
      <point x="256" y="-214"/>
      <point x="177" y="-179"/>
      <point x="177" y="-102" type="curve" smooth="yes"/>
      <point x="177" y="-28"/>
      <point x="238" y="-4"/>
      <point x="305" y="-4" type="curve" smooth="yes"/>
      <point x="454" y="-4" type="line"/>
      <point x="454" y="151" type="line"/>
    </contour>
    <contour>
      <point x="474" y="307"/>
      <point x="492" y="285"/>
      <point x="492" y="258" type="curve" smooth="yes"/>
      <point x="492" y="227"/>
      <point x="454" y="193"/>
      <point x="361" y="191" type="curve"/>
      <point x="357" y="204"/>
      <point x="355" y="219"/>
      <point x="355" y="235" type="curve" smooth="yes"/>
      <point x="355" y="269"/>
      <point x="390" y="307"/>
      <point x="440" y="307" type="curve" smooth="yes"/>
    </contour>
    <contour>
      <point x="414" y="650" type="move" name="top"/>
    </contour>
    <contour>
      <point x="389" y="-273" type="move" name="bottom"/>
    </contour>
  </outline>
</glyph>
<glyph name="uni0922094D092F" format="1">
  <advance width="1180"/>
  <outline>
    <contour>
      <point x="1149" y="650" type="line"/>
      <point x="-31" y="650" type="line"/>
      <point x="-31" y="634" type="line"/>
      <point x="0" y="575" type="line"/>
      <point x="365" y="575" type="line"/>
      <point x="365" y="471" type="line"/>
      <point x="267" y="471" type="line" smooth="yes"/>
      <point x="165" y="471"/>
      <point x="69" y="424"/>
      <point x="69" y="268" type="curve" smooth="yes"/>
      <point x="69" y="66"/>
      <point x="247" y="-30"/>
      <point x="356" y="-30" type="curve" smooth="yes"/>
      <point x="429" y="-30"/>
      <point x="530" y="20"/>
      <point x="530" y="121" type="curve" smooth="yes"/>
      <point x="530" y="213"/>
      <point x="462" y="282"/>
      <point x="379" y="282" type="curve" smooth="yes"/>
      <point x="319" y="282"/>
      <point x="251" y="254"/>
      <point x="251" y="160" type="curve" smooth="yes"/>
      <point x="251" y="124"/>
      <point x="265" y="85"/>
      <point x="286" y="55" type="curve"/>
      <point x="224" y="72"/>
      <point x="119" y="129"/>
      <point x="119" y="241" type="curve" smooth="yes"/>
      <point x="119" y="343"/>
      <point x="190" y="391"/>
      <point x="291" y="391" type="curve" smooth="yes"/>
      <point x="670" y="391" type="line" smooth="yes"/>
      <point x="720" y="391"/>
      <point x="736" y="372"/>
      <point x="736" y="346" type="curve" smooth="yes"/>
      <point x="736" y="310"/>
      <point x="663" y="278"/>
      <point x="594" y="260" type="curve"/>
      <point x="636" y="148"/>
      <point x="717" y="58"/>
      <point x="828" y="58" type="curve" smooth="yes"/>
      <point x="887" y="58"/>
      <point x="941" y="86"/>
      <point x="979" y="113" type="curve"/>
      <point x="984" y="110" type="line"/>
      <point x="981" y="0" type="line"/>
      <point x="1055" y="-42" type="line"/>
      <point x="1071" y="-42" type="line"/>
      <point x="1071" y="575" type="line"/>
      <point x="1180" y="575" type="line"/>
      <point x="1180" y="590" type="line"/>
    </contour>
    <contour>
      <point x="982" y="229" type="line"/>
      <point x="947" y="187"/>
      <point x="867" y="137"/>
      <point x="788" y="137" type="curve" smooth="yes"/>
      <point x="733" y="137"/>
      <point x="702" y="162"/>
      <point x="680" y="208" type="curve"/>
      <point x="745" y="234"/>
      <point x="809" y="264"/>
      <point x="809" y="317" type="curve" smooth="yes"/>
      <point x="809" y="381"/>
      <point x="704" y="471"/>
      <point x="619" y="471" type="curve" smooth="yes"/>
      <point x="453" y="471" type="line"/>
      <point x="453" y="575" type="line"/>
      <point x="982" y="575" type="line"/>
    </contour>
    <contour>
      <point x="443" y="217"/>
      <point x="485" y="189"/>
      <point x="485" y="142" type="curve" smooth="yes"/>
      <point x="485" y="90"/>
      <point x="411" y="51"/>
      <point x="324" y="49" type="curve"/>
      <point x="316" y="64"/>
      <point x="307" y="87"/>
      <point x="307" y="116" type="curve" smooth="yes"/>
      <point x="307" y="183"/>
      <point x="368" y="217"/>
      <point x="410" y="217" type="curve" smooth="yes"/>
    </contour>
    <contour>
      <point x="1026" y="0" type="move" name="bottom1"/>
    </contour>
    <contour>
      <point x="1026" y="650" type="move" name="top1"/>
    </contour>
  </outline>
</glyph>
<glyph name="eightdeva.NEP" format="1">
  <advance width="631"/>
  <outline>
    <contour>
      <point x="311" y="532" type="line"/>
      <point x="188" y="403" type="line" smooth="yes"/>
      <point x="81" y="281"/>
      <point x="60" y="216"/>
      <point x="60" y="163" type="curve" smooth="yes"/>
      <point x="60" y="74"/>
      <point x="162" y="-21"/>
      <point x="264" y="-21" type="curve" smooth="yes"/>
      <point x="361" y="-21"/>
      <point x="438" y="7"/>
      <point x="545" y="119" type="curve"/>
      <point x="473" y="187" type="line"/>
      <point x="402" y="113"/>
      <point x="320" y="29"/>
      <point x="239" y="29" type="curve" smooth="yes"/>
      <point x="175" y="29"/>
      <point x="142" y="87"/>
      <point x="142" y="128" type="curve" smooth="yes"/>
      <point x="142" y="165"/>
      <point x="155" y="252"/>
      <point x="292" y="394" type="curve" smooth="yes"/>
      <point x="425" y="523" type="line"/>
    </contour>
    <contour>
      <point x="563" y="480" type="line"/>
      <point x="563" y="496" type="line"/>
      <point x="532" y="555" type="line"/>
      <point x="27" y="555" type="line"/>
      <point x="27" y="540" type="line"/>
      <point x="59" y="480" type="line"/>
    </contour>
  </outline>
</glyph>
<glyph name="fivedeva.NEP" format="1">
  <advance width="631"/>
  <outline>
    <contour>
      <point x="165" y="549"/>
      <point x="111" y="386"/>
      <point x="111" y="289" type="curve" smooth="yes"/>
      <point x="111" y="183"/>
      <point x="242" y="111"/>
      <point x="322" y="111" type="curve" smooth="yes"/>
      <point x="417" y="111"/>
      <point x="513" y="212"/>
      <point x="513" y="273" type="curve" smooth="yes"/>
      <point x="513" y="320"/>
      <point x="484" y="349"/>
      <point x="435" y="349" type="curve" smooth="yes"/>
      <point x="402" y="349"/>
      <point x="379" y="341"/>
      <point x="359" y="330" type="curve"/>
      <point x="387" y="230" type="line"/>
      <point x="417" y="173" type="line" smooth="yes"/>
      <point x="430" y="145"/>
      <point x="438" y="118"/>
      <point x="438" y="98" type="curve" smooth="yes"/>
      <point x="438" y="33"/>
      <point x="411" y="-15"/>
      <point x="360" y="-53" type="curve"/>
      <point x="265" y="39" type="line"/>
      <point x="228" y="22"/>
      <point x="198" y="-20"/>
      <point x="198" y="-59" type="curve" smooth="yes"/>
      <point x="196" y="-116"/>
      <point x="252" y="-156"/>
      <point x="301" y="-156" type="curve" smooth="yes"/>
      <point x="410" y="-156"/>
      <point x="491" y="-30"/>
      <point x="491" y="68" type="curve" smooth="yes"/>
      <point x="491" y="121"/>
      <point x="474" y="178"/>
      <point x="454" y="230" type="curve"/>
      <point x="454" y="230"/>
      <point x="387" y="230"/>
      <point x="387" y="230" type="curve"/>
      <point x="341" y="198"/>
      <point x="293" y="174"/>
      <point x="262" y="174" type="curve" smooth="yes"/>
      <point x="228" y="174"/>
      <point x="187" y="218"/>
      <point x="187" y="261" type="curve" smooth="yes"/>
      <point x="187" y="347"/>
      <point x="247" y="490"/>
      <point x="299" y="599" type="curve"/>
      <point x="218" y="665" type="line"/>
    </contour>
    <contour>
      <point x="364" y="-139" type="line"/>
      <point x="452" y="-306" type="line"/>
      <point x="508" y="-272" type="line"/>
      <point x="399" y="-114" type="line"/>
    </contour>
  </outline>
</glyph>
<glyph name="uni0917094D0928" format="1">
  <advance width="628"/>
  <outline>
    <contour>
      <point x="427" y="0" type="line"/>
      <point x="502" y="-42" type="line"/>
      <point x="518" y="-42" type="line"/>
      <point x="518" y="575" type="line"/>
      <point x="628" y="575" type="line"/>
      <point x="628" y="590" type="line"/>
      <point x="596" y="650" type="line"/>
      <point x="-31" y="650" type="line"/>
      <point x="-31" y="634" type="line"/>
      <point x="0" y="575" type="line"/>
      <point x="143" y="575" type="line"/>
      <point x="143" y="413" type="line"/>
      <point x="45" y="426" type="line"/>
      <point x="41" y="415"/>
      <point x="39" y="401"/>
      <point x="39" y="385" type="curve" smooth="yes"/>
      <point x="39" y="342"/>
      <point x="73" y="262"/>
      <point x="153" y="262" type="curve" smooth="yes"/>
      <point x="225" y="262"/>
      <point x="236" y="333"/>
      <point x="236" y="369" type="curve" smooth="yes"/>
      <point x="236" y="444"/>
      <point x="229" y="499"/>
      <point x="220" y="575" type="curve"/>
      <point x="429" y="575" type="line"/>
    </contour>
    <contour>
      <point x="342" y="228"/>
      <point x="215" y="177"/>
      <point x="173" y="157" type="curve" smooth="yes"/>
      <point x="127" y="136"/>
      <point x="88" y="113"/>
      <point x="88" y="72" type="curve" smooth="yes"/>
      <point x="88" y="23"/>
      <point x="129" y="-25"/>
      <point x="201" y="-25" type="curve" smooth="yes"/>
      <point x="240" y="-25"/>
      <point x="268" y="-14"/>
      <point x="291" y="7" type="curve"/>
      <point x="237" y="91" type="line"/>
      <point x="478" y="216" type="line"/>
      <point x="478" y="280" type="line"/>
    </contour>
    <contour>
      <point x="474" y="650" type="move" name="top"/>
    </contour>
    <contour>
      <point x="474" y="0" type="move" name="bottom"/>
    </contour>
  </outline>
</glyph>
<glyph name="glyph231" format="1">
  <advance width="307"/>
  <outline>
    <contour>
      <point x="307" y="575" type="line"/>
      <point x="307" y="590" type="line"/>
      <point x="275" y="650" type="line"/>
      <point x="172" y="650" type="line"/>
      <point x="157" y="672"/>
      <point x="128" y="738"/>
      <point x="128" y="795" type="curve" smooth="yes"/>
      <point x="128" y="860"/>
      <point x="167" y="901"/>
      <point x="224" y="901" type="curve" smooth="yes"/>
      <point x="312" y="901"/>
      <point x="396" y="813"/>
      <point x="483" y="696" type="curve"/>
      <point x="520" y="716" type="line"/>
      <point x="480" y="777"/>
      <point x="441" y="823"/>
      <point x="441" y="890" type="curve" smooth="yes"/>
      <point x="441" y="945"/>
      <point x="482" y="976"/>
      <point x="531" y="976" type="curve" smooth="yes"/>
      <point x="576" y="976"/>
      <point x="628" y="951"/>
      <point x="650" y="933" type="curve"/>
      <point x="675" y="975" type="line"/>
      <point x="632" y="1020"/>
      <point x="572" y="1050"/>
      <point x="512" y="1050" type="curve" smooth="yes"/>
      <point x="443" y="1050"/>
      <point x="363" y="1012"/>
      <point x="363" y="935" type="curve" smooth="yes"/>
      <point x="363" y="918"/>
      <point x="366" y="903"/>
      <point x="368" y="896" type="curve"/>
      <point x="365" y="893" type="line"/>
      <point x="308" y="944"/>
      <point x="247" y="980"/>
      <point x="188" y="980" type="curve" smooth="yes"/>
      <point x="101" y="980"/>
      <point x="34" y="922"/>
      <point x="34" y="842" type="curve" smooth="yes"/>
      <point x="34" y="773"/>
      <point x="80" y="701"/>
      <point x="117" y="650" type="curve"/>
      <point x="-31" y="650" type="line"/>
      <point x="-31" y="634" type="line"/>
      <point x="0" y="575" type="line"/>
      <point x="109" y="575" type="line"/>
      <point x="109" y="-1" type="line"/>
      <point x="182" y="-42" type="line"/>
      <point x="198" y="-42" type="line"/>
      <point x="198" y="575" type="line"/>
    </contour>
  </outline>
</glyph>
<glyph name="glyph232" format="1">
  <advance width="307"/>
  <outline>
    <contour>
      <point x="109" y="-1" type="line"/>
      <point x="182" y="-42" type="line"/>
      <point x="198" y="-42" type="line"/>
      <point x="198" y="575" type="line"/>
      <point x="307" y="575" type="line"/>
      <point x="307" y="590" type="line"/>
      <point x="275" y="650" type="line"/>
      <point x="172" y="650" type="line"/>
      <point x="157" y="672"/>
      <point x="128" y="738"/>
      <point x="128" y="795" type="curve" smooth="yes"/>
      <point x="128" y="860"/>
      <point x="167" y="901"/>
      <point x="224" y="901" type="curve" smooth="yes"/>
      <point x="312" y="901"/>
      <point x="396" y="813"/>
      <point x="483" y="696" type="curve"/>
      <point x="520" y="716" type="line"/>
      <point x="507" y="743"/>
      <point x="457" y="821"/>
      <point x="457" y="906" type="curve" smooth="yes"/>
      <point x="457" y="981"/>
      <point x="506" y="1010"/>
      <point x="554" y="1010" type="curve" smooth="yes"/>
      <point x="599" y="1010"/>
      <point x="652" y="978"/>
      <point x="672" y="957" type="curve"/>
      <point x="698" y="994" type="line"/>
      <point x="657" y="1041"/>
      <point x="604" y="1084"/>
      <point x="537" y="1084" type="curve" smooth="yes"/>
      <point x="458" y="1084"/>
      <point x="370" y="1040"/>
      <point x="370" y="936" type="curve" smooth="yes"/>
      <point x="370" y="918"/>
      <point x="374" y="901"/>
      <point x="382" y="890" type="curve"/>
      <point x="379" y="887" type="line"/>
      <point x="319" y="941"/>
      <point x="255" y="980"/>
      <point x="188" y="980" type="curve" smooth="yes"/>
      <point x="101" y="980"/>
      <point x="34" y="922"/>
      <point x="34" y="842" type="curve" smooth="yes"/>
      <point x="34" y="773"/>
      <point x="80" y="701"/>
      <point x="117" y="650" type="curve"/>
      <point x="-31" y="650" type="line"/>
      <point x="-31" y="634" type="line"/>
      <point x="0" y="575" type="line"/>
      <point x="109" y="575" type="line"/>
    </contour>
    <contour>
      <point x="592" y="787" type="line"/>
      <point x="670" y="866" type="line"/>
      <point x="591" y="944" type="line"/>
      <point x="514" y="865" type="line"/>
    </contour>
  </outline>
</glyph>
<glyph name="glyph244" format="1">
  <advance width="0"/>
  <outline>
    <contour>
      <point x="-197" y="41" type="line"/>
      <point x="-197" y="-142" type="line"/>
      <point x="-199" y="-142" type="line"/>
      <point x="-232" y="-106"/>
      <point x="-298" y="-46"/>
      <point x="-382" y="-46" type="curve" smooth="yes"/>
      <point x="-454" y="-46"/>
      <point x="-536" y="-127"/>
      <point x="-536" y="-222" type="curve" smooth="yes"/>
      <point x="-536" y="-315"/>
      <point x="-436" y="-378"/>
      <point x="-359" y="-378" type="curve" smooth="yes"/>
      <point x="-300" y="-378"/>
      <point x="-248" y="-348"/>
      <point x="-200" y="-312" type="curve"/>
      <point x="-197" y="-314" type="line"/>
      <point x="-197" y="-403" type="line"/>
      <point x="-125" y="-444" type="line"/>
      <point x="-109" y="-444" type="line"/>
      <point x="-109" y="0" type="line"/>
      <point x="-182" y="41" type="line"/>
    </contour>
    <contour>
      <point x="-273" y="-132"/>
      <point x="-225" y="-167"/>
      <point x="-197" y="-203" type="curve"/>
      <point x="-197" y="-205" type="line"/>
      <point x="-242" y="-256"/>
      <point x="-313" y="-306"/>
      <point x="-400" y="-306" type="curve" smooth="yes"/>
      <point x="-458" y="-306"/>
      <point x="-487" y="-284"/>
      <point x="-487" y="-244" type="curve" smooth="yes"/>
      <point x="-487" y="-187"/>
      <point x="-418" y="-132"/>
      <point x="-341" y="-132" type="curve" smooth="yes"/>
    </contour>
    <contour>
      <point x="-153" y="0" type="move" name="_bottom"/>
    </contour>
  </outline>
</glyph>
<glyph name="uni0939094D0932" format="1">
  <advance width="739"/>
  <outline>
    <contour>
      <point x="568" y="231"/>
      <point x="604" y="203"/>
      <point x="604" y="142" type="curve"/>
      <point x="604" y="-40" type="line"/>
      <point x="676" y="-81" type="line"/>
      <point x="692" y="-81" type="line"/>
      <point x="692" y="98" type="line"/>
      <point x="692" y="180"/>
      <point x="590" y="310"/>
      <point x="472" y="310" type="curve"/>
      <point x="298" y="310" type="line"/>
      <point x="298" y="231" type="line"/>
      <point x="500" y="231" type="line"/>
    </contour>
    <contour>
      <point x="584" y="134"/>
      <point x="557" y="154"/>
      <point x="527" y="153" type="curve" smooth="yes"/>
      <point x="476" y="151"/>
      <point x="446" y="105"/>
      <point x="422" y="28" type="curve"/>
      <point x="489" y="0" type="line"/>
      <point x="509" y="59"/>
      <point x="518" y="91"/>
      <point x="553" y="91" type="curve" smooth="yes"/>
      <point x="572" y="91"/>
      <point x="590" y="78"/>
      <point x="604" y="62" type="curve"/>
      <point x="604" y="111" type="line"/>
    </contour>
    <contour>
      <point x="304" y="173"/>
      <point x="264" y="147"/>
      <point x="264" y="90" type="curve" smooth="yes"/>
      <point x="264" y="38"/>
      <point x="312" y="-13"/>
      <point x="381" y="-58" type="curve"/>
      <point x="395" y="-39" type="line"/>
      <point x="337" y="2"/>
      <point x="323" y="29"/>
      <point x="323" y="53" type="curve" smooth="yes"/>
      <point x="323" y="83"/>
      <point x="341" y="94"/>
      <point x="368" y="94" type="curve" smooth="yes"/>
      <point x="402" y="94"/>
      <point x="446" y="65"/>
      <point x="470" y="25" type="curve"/>
      <point x="479" y="55" type="line"/>
      <point x="434" y="120"/>
      <point x="389" y="173"/>
      <point x="337" y="173" type="curve" smooth="yes"/>
    </contour>
    <contour>
      <point x="379" y="-117" type="line"/>
      <point x="247" y="-28"/>
      <point x="184" y="31"/>
      <point x="184" y="124" type="curve" smooth="yes"/>
      <point x="184" y="192"/>
      <point x="257" y="231"/>
      <point x="325" y="231" type="curve"/>
      <point x="298" y="310" type="line"/>
      <point x="246" y="310"/>
      <point x="202" y="297"/>
      <point x="169" y="275" type="curve"/>
      <point x="142" y="301"/>
      <point x="126" y="334"/>
      <point x="126" y="358" type="curve" smooth="yes"/>
      <point x="126" y="385"/>
      <point x="141" y="404"/>
      <point x="184" y="404" type="curve" smooth="yes"/>
      <point x="449" y="404" type="line"/>
      <point x="449" y="575" type="line"/>
      <point x="739" y="575" type="line"/>
      <point x="739" y="590" type="line"/>
      <point x="707" y="650" type="line"/>
      <point x="-31" y="650" type="line"/>
      <point x="-31" y="634" type="line"/>
      <point x="0" y="575" type="line"/>
      <point x="361" y="575" type="line"/>
      <point x="361" y="483" type="line"/>
      <point x="161" y="483" type="line" smooth="yes"/>
      <point x="99" y="483"/>
      <point x="63" y="460"/>
      <point x="63" y="386" type="curve" smooth="yes"/>
      <point x="63" y="340"/>
      <point x="96" y="283"/>
      <point x="131" y="242" type="curve"/>
      <point x="107" y="216"/>
      <point x="96" y="183"/>
      <point x="96" y="152" type="curve" smooth="yes"/>
      <point x="96" y="16"/>
      <point x="235" y="-78"/>
      <point x="356" y="-150" type="curve"/>
    </contour>
    <contour>
      <point x="405" y="650" type="move" name="top"/>
    </contour>
    <contour>
      <point x="590" y="-100" type="move" name="bottom"/>
    </contour>
  </outline>
</glyph>
<glyph name="uni0939094D0930" format="1">
  <advance width="593"/>
  <outline>
    <contour>
      <point x="-31" y="650" type="line"/>
      <point x="-31" y="634" type="line"/>
      <point x="0" y="575" type="line"/>
      <point x="381" y="575" type="line"/>
      <point x="381" y="483" type="line"/>
      <point x="161" y="483" type="line" smooth="yes"/>
      <point x="99" y="483"/>
      <point x="63" y="460"/>
      <point x="63" y="386" type="curve" smooth="yes"/>
      <point x="63" y="340"/>
      <point x="96" y="283"/>
      <point x="131" y="242" type="curve"/>
      <point x="107" y="210"/>
      <point x="96" y="170"/>
      <point x="96" y="133" type="curve" smooth="yes"/>
      <point x="96" y="-14"/>
      <point x="264" y="-113"/>
      <point x="415" y="-189" type="curve"/>
      <point x="437" y="-156" type="line"/>
      <point x="264" y="-60"/>
      <point x="184" y="4"/>
      <point x="184" y="104" type="curve" smooth="yes"/>
      <point x="184" y="191"/>
      <point x="262" y="256"/>
      <point x="335" y="256" type="curve" smooth="yes"/>
      <point x="404" y="256"/>
      <point x="459" y="203"/>
      <point x="459" y="166" type="curve" smooth="yes"/>
      <point x="459" y="103"/>
      <point x="404" y="41"/>
      <point x="361" y="6" type="curve"/>
      <point x="361" y="4" type="line"/>
      <point x="430" y="-57" type="line"/>
      <point x="480" y="-18"/>
      <point x="534" y="57"/>
      <point x="534" y="129" type="curve" smooth="yes"/>
      <point x="534" y="191"/>
      <point x="423" y="310"/>
      <point x="307" y="310" type="curve" smooth="yes"/>
      <point x="252" y="310"/>
      <point x="205" y="297"/>
      <point x="169" y="275" type="curve"/>
      <point x="142" y="301"/>
      <point x="126" y="334"/>
      <point x="126" y="358" type="curve" smooth="yes"/>
      <point x="126" y="385"/>
      <point x="141" y="404"/>
      <point x="184" y="404" type="curve" smooth="yes"/>
      <point x="468" y="404" type="line"/>
      <point x="468" y="575" type="line"/>
      <point x="592" y="575" type="line"/>
      <point x="592" y="590" type="line"/>
      <point x="560" y="650" type="line"/>
    </contour>
    <contour>
      <point x="254" y="113" type="line"/>
      <point x="315" y="65" type="line"/>
      <point x="449" y="219" type="line"/>
      <point x="388" y="257" type="line"/>
    </contour>
    <contour>
      <point x="425" y="650" type="move" name="top"/>
    </contour>
    <contour>
      <point x="390" y="-160" type="move" name="bottom"/>
    </contour>
  </outline>
</glyph>
<glyph name="uni093F0902" format="1">
  <advance width="307"/>
  <outline>
    <contour>
      <point x="307" y="575" type="line"/>
      <point x="307" y="590" type="line"/>
      <point x="275" y="650" type="line"/>
      <point x="172" y="650" type="line"/>
      <point x="157" y="672"/>
      <point x="128" y="738"/>
      <point x="128" y="795" type="curve" smooth="yes"/>
      <point x="128" y="878"/>
      <point x="195" y="919"/>
      <point x="280" y="919" type="curve" smooth="yes"/>
      <point x="406" y="919"/>
      <point x="553" y="804"/>
      <point x="695" y="684" type="curve"/>
      <point x="722" y="719" type="line"/>
      <point x="587" y="840"/>
      <point x="399" y="998"/>
      <point x="244" y="998" type="curve" smooth="yes"/>
      <point x="119" y="998"/>
      <point x="34" y="932"/>
      <point x="34" y="842" type="curve" smooth="yes"/>
      <point x="34" y="773"/>
      <point x="80" y="701"/>
      <point x="117" y="650" type="curve"/>
      <point x="-31" y="650" type="line"/>
      <point x="-31" y="634" type="line"/>
      <point x="0" y="575" type="line"/>
      <point x="109" y="575" type="line"/>
      <point x="109" y="-1" type="line"/>
      <point x="182" y="-42" type="line"/>
      <point x="198" y="-42" type="line"/>
      <point x="198" y="575" type="line"/>
    </contour>
    <contour>
      <point x="786" y="722" type="line"/>
      <point x="862" y="801" type="line"/>
      <point x="785" y="879" type="line"/>
      <point x="708" y="800" type="line"/>
    </contour>
  </outline>
</glyph>
<glyph name="iiMatra_reph_anusvara-deva" format="1">
  <advance width="307"/>
  <outline>
    <contour>
      <point x="254" y="704" type="line"/>
      <point x="323" y="775" type="line"/>
      <point x="253" y="845" type="line"/>
      <point x="183" y="774" type="line"/>
    </contour>
    <contour>
      <point x="109" y="-1" type="line"/>
      <point x="182" y="-42" type="line"/>
      <point x="198" y="-42" type="line"/>
      <point x="198" y="575" type="line"/>
      <point x="307" y="575" type="line"/>
      <point x="307" y="590" type="line"/>
      <point x="275" y="650" type="line"/>
      <point x="180" y="650" type="line"/>
      <point x="152" y="706"/>
      <point x="128" y="754"/>
      <point x="128" y="814" type="curve" smooth="yes"/>
      <point x="128" y="878"/>
      <point x="165" y="909"/>
      <point x="214" y="909" type="curve" smooth="yes"/>
      <point x="259" y="909"/>
      <point x="311" y="883"/>
      <point x="332" y="866" type="curve"/>
      <point x="359" y="908" type="line"/>
      <point x="315" y="954"/>
      <point x="257" y="983"/>
      <point x="196" y="983" type="curve" smooth="yes"/>
      <point x="134" y="983"/>
      <point x="69" y="943"/>
      <point x="48" y="885" type="curve"/>
      <point x="2" y="960"/>
      <point x="-55" y="1018"/>
      <point x="-128" y="1018" type="curve" smooth="yes"/>
      <point x="-225" y="1018"/>
      <point x="-287" y="952"/>
      <point x="-287" y="880" type="curve" smooth="yes"/>
      <point x="-287" y="800"/>
      <point x="-231" y="732"/>
      <point x="-184" y="695" type="curve"/>
      <point x="-137" y="718" type="line"/>
      <point x="-137" y="720" type="line"/>
      <point x="-159" y="744"/>
      <point x="-188" y="795"/>
      <point x="-188" y="843" type="curve" smooth="yes"/>
      <point x="-188" y="888"/>
      <point x="-159" y="939"/>
      <point x="-105" y="939" type="curve" smooth="yes"/>
      <point x="-16" y="939"/>
      <point x="64" y="753"/>
      <point x="106" y="650" type="curve"/>
      <point x="-31" y="650" type="line"/>
      <point x="-31" y="634" type="line"/>
      <point x="0" y="575" type="line"/>
      <point x="109" y="575" type="line"/>
    </contour>
  </outline>
</glyph>
<glyph name="uni091C094D091C" format="1">
  <advance width="779"/>
  <outline>
    <contour>
      <point x="-31" y="650" type="line"/>
      <point x="-31" y="634" type="line"/>
      <point x="0" y="575" type="line"/>
      <point x="581" y="575" type="line"/>
      <point x="581" y="500" type="line"/>
      <point x="233" y="500" type="line"/>
      <point x="220" y="467" type="line"/>
      <point x="251" y="448"/>
      <point x="305" y="420"/>
      <point x="305" y="380" type="curve" smooth="yes"/>
      <point x="305" y="354"/>
      <point x="290" y="339"/>
      <point x="247" y="339" type="curve" smooth="yes"/>
      <point x="155" y="339"/>
      <point x="90" y="436"/>
      <point x="63" y="487" type="curve"/>
      <point x="20" y="470" type="line"/>
      <point x="56" y="393"/>
      <point x="143" y="254"/>
      <point x="265" y="254" type="curve" smooth="yes"/>
      <point x="345" y="254"/>
      <point x="384" y="293"/>
      <point x="384" y="340" type="curve" smooth="yes"/>
      <point x="384" y="376"/>
      <point x="365" y="401"/>
      <point x="341" y="425" type="curve"/>
      <point x="334" y="472" type="line"/>
      <point x="298" y="425" type="line"/>
      <point x="581" y="425" type="line"/>
      <point x="581" y="-1" type="line"/>
      <point x="654" y="-42" type="line"/>
      <point x="670" y="-42" type="line"/>
      <point x="670" y="575" type="line"/>
      <point x="779" y="575" type="line"/>
      <point x="779" y="590" type="line"/>
      <point x="748" y="650" type="line"/>
    </contour>
    <contour>
      <point x="245" y="186" type="line"/>
      <point x="240" y="150" type="line"/>
      <point x="279" y="140"/>
      <point x="347" y="124"/>
      <point x="347" y="77" type="curve" smooth="yes"/>
      <point x="347" y="41"/>
      <point x="294" y="30"/>
      <point x="265" y="30" type="curve" smooth="yes"/>
      <point x="189" y="30"/>
      <point x="117" y="94"/>
      <point x="84" y="131" type="curve"/>
      <point x="46" y="103" type="line"/>
      <point x="95" y="46"/>
      <point x="194" y="-49"/>
      <point x="298" y="-49" type="curve" smooth="yes"/>
      <point x="357" y="-49"/>
      <point x="434" y="-13"/>
      <point x="434" y="50" type="curve" smooth="yes"/>
      <point x="434" y="80"/>
      <point x="413" y="118"/>
      <point x="368" y="141" type="curve"/>
      <point x="349" y="185" type="line"/>
      <point x="326" y="130" type="line"/>
      <point x="600" y="202" type="line"/>
      <point x="581" y="274" type="line"/>
    </contour>
    <contour>
      <point x="626" y="650" type="move" name="top"/>
    </contour>
    <contour>
      <point x="626" y="0" type="move" name="bottom"/>
    </contour>
  </outline>
</glyph>
<glyph name="uni091D094D.NEP" format="1">
  <advance width="749"/>
  <outline>
    <contour>
      <point x="358" y="650" type="line"/>
      <point x="358" y="634" type="line"/>
      <point x="389" y="575" type="line"/>
      <point x="546" y="575" type="line"/>
      <point x="546" y="0" type="line"/>
      <point x="619" y="-42" type="line"/>
      <point x="634" y="-42" type="line"/>
      <point x="634" y="264" type="line"/>
      <point x="672" y="295"/>
      <point x="716" y="325"/>
      <point x="765" y="325" type="curve" smooth="yes"/>
      <point x="791" y="325"/>
      <point x="815" y="313"/>
      <point x="831" y="296" type="curve"/>
      <point x="868" y="341" type="line"/>
      <point x="838" y="378"/>
      <point x="798" y="399"/>
      <point x="740" y="399" type="curve" smooth="yes"/>
      <point x="697" y="399"/>
      <point x="658" y="375"/>
      <point x="634" y="359" type="curve"/>
      <point x="634" y="575" type="line"/>
      <point x="780" y="575" type="line"/>
      <point x="780" y="590" type="line"/>
      <point x="749" y="650" type="line"/>
    </contour>
    <contour>
      <point x="98" y="659"/>
      <point x="47" y="625"/>
      <point x="47" y="555" type="curve" smooth="yes"/>
      <point x="47" y="457"/>
      <point x="142" y="407"/>
      <point x="235" y="370" type="curve"/>
      <point x="235" y="312" type="line"/>
      <point x="215" y="315"/>
      <point x="200" y="316"/>
      <point x="189" y="316" type="curve" smooth="yes"/>
      <point x="163" y="316"/>
      <point x="150" y="306"/>
      <point x="150" y="285" type="curve" smooth="yes"/>
      <point x="150" y="257"/>
      <point x="188" y="204"/>
      <point x="215" y="171" type="curve" smooth="yes"/>
      <point x="249" y="127"/>
      <point x="290" y="84"/>
      <point x="314" y="84" type="curve" smooth="yes"/>
      <point x="333" y="84"/>
      <point x="342" y="93"/>
      <point x="342" y="109" type="curve" smooth="yes"/>
      <point x="342" y="134"/>
      <point x="339" y="178"/>
      <point x="336" y="218" type="curve"/>
      <point x="599" y="218" type="line"/>
      <point x="599" y="293" type="line"/>
      <point x="323" y="293" type="line"/>
      <point x="323" y="502" type="line" smooth="yes"/>
      <point x="323" y="628"/>
      <point x="227" y="659"/>
      <point x="161" y="659" type="curve" smooth="yes"/>
    </contour>
    <contour>
      <point x="221" y="597"/>
      <point x="251" y="562"/>
      <point x="251" y="520" type="curve" smooth="yes"/>
      <point x="251" y="495"/>
      <point x="248" y="449"/>
      <point x="243" y="422" type="curve"/>
      <point x="186" y="441"/>
      <point x="123" y="468"/>
      <point x="123" y="531" type="curve" smooth="yes"/>
      <point x="123" y="577"/>
      <point x="150" y="597"/>
      <point x="186" y="597" type="curve" smooth="yes"/>
    </contour>
  </outline>
</glyph>
<glyph name="jhadeva.NEP" format="1">
  <advance width="996"/>
  <outline>
    <contour>
      <point x="358" y="650" type="line"/>
      <point x="358" y="634" type="line"/>
      <point x="389" y="575" type="line"/>
      <point x="546" y="575" type="line"/>
      <point x="546" y="0" type="line"/>
      <point x="619" y="-42" type="line"/>
      <point x="634" y="-42" type="line"/>
      <point x="634" y="265" type="line"/>
      <point x="674" y="305"/>
      <point x="737" y="360"/>
      <point x="802" y="360" type="curve" smooth="yes"/>
      <point x="853" y="360"/>
      <point x="893" y="318"/>
      <point x="893" y="262" type="curve" smooth="yes"/>
      <point x="893" y="203"/>
      <point x="836" y="128"/>
      <point x="809" y="98" type="curve"/>
      <point x="877" y="26" type="line"/>
      <point x="911" y="76"/>
      <point x="944" y="181"/>
      <point x="944" y="237" type="curve" smooth="yes"/>
      <point x="944" y="352"/>
      <point x="890" y="434"/>
      <point x="777" y="434" type="curve" smooth="yes"/>
      <point x="716" y="434"/>
      <point x="657" y="386"/>
      <point x="634" y="365" type="curve"/>
      <point x="634" y="575" type="line"/>
      <point x="996" y="575" type="line"/>
      <point x="996" y="590" type="line"/>
      <point x="965" y="650" type="line"/>
    </contour>
    <contour>
      <point x="98" y="659"/>
      <point x="47" y="625"/>
      <point x="47" y="555" type="curve" smooth="yes"/>
      <point x="47" y="457"/>
      <point x="142" y="407"/>
      <point x="235" y="370" type="curve"/>
      <point x="235" y="312" type="line"/>
      <point x="215" y="315"/>
      <point x="200" y="316"/>
      <point x="189" y="316" type="curve" smooth="yes"/>
      <point x="163" y="316"/>
      <point x="150" y="306"/>
      <point x="150" y="285" type="curve" smooth="yes"/>
      <point x="150" y="257"/>
      <point x="188" y="204"/>
      <point x="215" y="171" type="curve" smooth="yes"/>
      <point x="249" y="127"/>
      <point x="290" y="84"/>
      <point x="314" y="84" type="curve" smooth="yes"/>
      <point x="333" y="84"/>
      <point x="342" y="93"/>
      <point x="342" y="109" type="curve" smooth="yes"/>
      <point x="342" y="134"/>
      <point x="339" y="178"/>
      <point x="336" y="218" type="curve"/>
      <point x="599" y="218" type="line"/>
      <point x="599" y="293" type="line"/>
      <point x="323" y="293" type="line"/>
      <point x="323" y="502" type="line" smooth="yes"/>
      <point x="323" y="628"/>
      <point x="227" y="659"/>
      <point x="161" y="659" type="curve" smooth="yes"/>
    </contour>
    <contour>
      <point x="221" y="597"/>
      <point x="251" y="562"/>
      <point x="251" y="520" type="curve" smooth="yes"/>
      <point x="251" y="495"/>
      <point x="248" y="449"/>
      <point x="243" y="422" type="curve"/>
      <point x="186" y="441"/>
      <point x="123" y="468"/>
      <point x="123" y="531" type="curve" smooth="yes"/>
      <point x="123" y="577"/>
      <point x="150" y="597"/>
      <point x="186" y="597" type="curve" smooth="yes"/>
    </contour>
    <contour>
      <point x="590" y="650" type="move" name="top"/>
    </contour>
    <contour>
      <point x="590" y="0" type="move" name="bottom"/>
    </contour>
  </outline>
</glyph>
<glyph name="uni0916094D0930" format="1">
  <advance width="861"/>
  <outline>
    <contour>
      <point x="306" y="-119" type="line"/>
      <point x="661" y="59" type="line"/>
      <point x="665" y="55" type="line"/>
      <point x="661" y="0" type="line"/>
      <point x="735" y="-42" type="line"/>
      <point x="751" y="-42" type="line"/>
      <point x="751" y="575" type="line"/>
      <point x="861" y="575" type="line"/>
      <point x="861" y="590" type="line"/>
      <point x="829" y="650" type="line"/>
      <point x="-31" y="650" type="line"/>
      <point x="-31" y="634" type="line"/>
      <point x="0" y="575" type="line"/>
      <point x="180" y="575" type="line"/>
      <point x="185" y="535"/>
      <point x="189" y="482"/>
      <point x="189" y="450" type="curve" smooth="yes"/>
      <point x="189" y="407"/>
      <point x="176" y="358"/>
      <point x="164" y="340" type="curve"/>
      <point x="111" y="382" type="line"/>
      <point x="109" y="382" type="line"/>
      <point x="90" y="370"/>
      <point x="58" y="340"/>
      <point x="58" y="306" type="curve" smooth="yes"/>
      <point x="58" y="271"/>
      <point x="84" y="242"/>
      <point x="135" y="186" type="curve" smooth="yes"/>
      <point x="196" y="118"/>
      <point x="285" y="36"/>
      <point x="373" y="5" type="curve"/>
      <point x="245" y="-51" type="line"/>
    </contour>
    <contour>
      <point x="413" y="507"/>
      <point x="341" y="445"/>
      <point x="341" y="346" type="curve" smooth="yes"/>
      <point x="341" y="249"/>
      <point x="426" y="180"/>
      <point x="513" y="180" type="curve" smooth="yes"/>
      <point x="571" y="180"/>
      <point x="616" y="219"/>
      <point x="661" y="255" type="curve"/>
      <point x="665" y="253" type="line"/>
      <point x="665" y="155" type="line"/>
      <point x="610" y="102"/>
      <point x="506" y="59"/>
      <point x="442" y="59" type="curve" smooth="yes"/>
      <point x="324" y="59"/>
      <point x="219" y="166"/>
      <point x="179" y="211" type="curve"/>
      <point x="222" y="252"/>
      <point x="271" y="307"/>
      <point x="271" y="404" type="curve" smooth="yes"/>
      <point x="271" y="448"/>
      <point x="264" y="519"/>
      <point x="254" y="575" type="curve"/>
      <point x="663" y="575" type="line"/>
      <point x="663" y="426" type="line"/>
      <point x="661" y="426" type="line"/>
      <point x="631" y="456"/>
      <point x="582" y="507"/>
      <point x="505" y="507" type="curve" smooth="yes"/>
    </contour>
    <contour>
      <point x="427" y="251"/>
      <point x="388" y="284"/>
      <point x="388" y="318" type="curve" smooth="yes"/>
      <point x="388" y="376"/>
      <point x="454" y="427"/>
      <point x="533" y="427" type="curve" smooth="yes"/>
      <point x="577" y="427"/>
      <point x="631" y="409"/>
      <point x="663" y="365" type="curve"/>
      <point x="663" y="363" type="line"/>
      <point x="615" y="302"/>
      <point x="543" y="251"/>
      <point x="482" y="251" type="curve" smooth="yes"/>
    </contour>
    <contour>
      <point x="707" y="650" type="move" name="top"/>
    </contour>
    <contour>
      <point x="716" y="0" type="move" name="bottom"/>
    </contour>
  </outline>
</glyph>
<glyph name="uni0932094D0932" format="1">
  <advance width="1270"/>
  <outline>
    <component base="uni0932094D"/>
    <component base="uni0932" xOffset="521"/>
    <contour>
      <point x="1116" y="650" type="move" name="top"/>
    </contour>
    <contour>
      <point x="1116" y="0" type="move" name="bottom"/>
    </contour>
  </outline>
</glyph>
<glyph name="uni092E094D" format="1">
  <advance width="385"/>
  <outline>
    <contour>
      <point x="-31" y="650" type="line"/>
      <point x="-31" y="634" type="line"/>
      <point x="0" y="575" type="line"/>
      <point x="115" y="575" type="line"/>
      <point x="115" y="236" type="line"/>
      <point x="489" y="236" type="line"/>
      <point x="489" y="311" type="line"/>
      <point x="203" y="311" type="line"/>
      <point x="203" y="575" type="line"/>
      <point x="416" y="575" type="line"/>
      <point x="416" y="590" type="line"/>
      <point x="385" y="650" type="line"/>
    </contour>
    <contour>
      <point x="48" y="335"/>
      <point x="35" y="325"/>
      <point x="35" y="304" type="curve" smooth="yes"/>
      <point x="35" y="275"/>
      <point x="73" y="225"/>
      <point x="100" y="194" type="curve" smooth="yes"/>
      <point x="135" y="151"/>
      <point x="170" y="106"/>
      <point x="195" y="106" type="curve" smooth="yes"/>
      <point x="214" y="106"/>
      <point x="222" y="116"/>
      <point x="222" y="133" type="curve" smooth="yes"/>
      <point x="222" y="157"/>
      <point x="218" y="214"/>
      <point x="216" y="253" type="curve"/>
      <point x="125" y="331" type="line"/>
      <point x="106" y="333"/>
      <point x="87" y="335"/>
      <point x="74" y="335" type="curve" smooth="yes"/>
    </contour>
  </outline>
</glyph>
<glyph name="uni092E094D0930" format="1">
  <advance width="642"/>
  <outline>
    <contour>
      <point x="642" y="575" type="line"/>
      <point x="642" y="590" type="line"/>
      <point x="611" y="650" type="line"/>
      <point x="-31" y="650" type="line"/>
      <point x="-31" y="634" type="line"/>
      <point x="0" y="575" type="line"/>
      <point x="115" y="575" type="line"/>
      <point x="115" y="359" type="line"/>
      <point x="97" y="362"/>
      <point x="85" y="363"/>
      <point x="74" y="363" type="curve" smooth="yes"/>
      <point x="48" y="363"/>
      <point x="35" y="352"/>
      <point x="35" y="332" type="curve" smooth="yes"/>
      <point x="35" y="304"/>
      <point x="71" y="261"/>
      <point x="100" y="231" type="curve" smooth="yes"/>
      <point x="135" y="194"/>
      <point x="170" y="162"/>
      <point x="195" y="162" type="curve" smooth="yes"/>
      <point x="214" y="162"/>
      <point x="222" y="172"/>
      <point x="222" y="188" type="curve" smooth="yes"/>
      <point x="222" y="212"/>
      <point x="219" y="234"/>
      <point x="217" y="264" type="curve"/>
      <point x="407" y="264" type="line"/>
      <point x="131" y="9" type="line"/>
      <point x="192" y="-58" type="line"/>
      <point x="445" y="195" type="line"/>
      <point x="445" y="-1" type="line"/>
      <point x="517" y="-42" type="line"/>
      <point x="533" y="-42" type="line"/>
      <point x="533" y="575" type="line"/>
    </contour>
    <contour>
      <point x="203" y="575" type="line"/>
      <point x="445" y="575" type="line"/>
      <point x="445" y="339" type="line"/>
      <point x="203" y="339" type="line"/>
    </contour>
    <contour>
      <point x="489" y="650" type="move" name="top"/>
    </contour>
    <contour>
      <point x="489" y="0" type="move" name="bottom"/>
    </contour>
  </outline>
</glyph>
<glyph name="uni0923094D0930" format="1">
  <advance width="792"/>
  <outline>
    <contour>
      <point x="-31" y="650" type="line"/>
      <point x="-31" y="634" type="line"/>
      <point x="0" y="575" type="line"/>
      <point x="87" y="575" type="line"/>
      <point x="87" y="318" type="line" smooth="yes"/>
      <point x="87" y="281"/>
      <point x="111" y="253"/>
      <point x="147" y="218" type="curve" smooth="yes"/>
      <point x="186" y="180"/>
      <point x="224" y="152"/>
      <point x="270" y="152" type="curve" smooth="yes"/>
      <point x="358" y="152"/>
      <point x="436" y="216"/>
      <point x="436" y="303" type="curve" smooth="yes"/>
      <point x="436" y="575" type="line"/>
      <point x="594" y="575" type="line"/>
      <point x="593" y="274" type="line"/>
      <point x="294" y="-5" type="line"/>
      <point x="355" y="-70" type="line"/>
      <point x="592" y="169" type="line"/>
      <point x="595" y="167" type="line"/>
      <point x="592" y="0" type="line"/>
      <point x="667" y="-42" type="line"/>
      <point x="682" y="-42" type="line"/>
      <point x="682" y="575" type="line"/>
      <point x="792" y="575" type="line"/>
      <point x="792" y="590" type="line"/>
      <point x="760" y="650" type="line"/>
    </contour>
    <contour>
      <point x="348" y="322" type="line" smooth="yes"/>
      <point x="348" y="283"/>
      <point x="326" y="229"/>
      <point x="263" y="229" type="curve" smooth="yes"/>
      <point x="218" y="229"/>
      <point x="176" y="234"/>
      <point x="176" y="303" type="curve" smooth="yes"/>
      <point x="176" y="575" type="line"/>
      <point x="348" y="575" type="line"/>
    </contour>
    <contour>
      <point x="638" y="650" type="move" name="top"/>
    </contour>
    <contour>
      <point x="638" y="0" type="move" name="bottom"/>
    </contour>
  </outline>
</glyph>
<glyph name="ovowelsigndeva_uni0930094D" format="1">
  <advance width="307"/>
  <outline>
    <contour>
      <point x="258" y="909"/>
      <point x="310" y="883"/>
      <point x="332" y="866" type="curve"/>
      <point x="358" y="908" type="line"/>
      <point x="314" y="954"/>
      <point x="256" y="983"/>
      <point x="195" y="983" type="curve" smooth="yes"/>
      <point x="125" y="983"/>
      <point x="55" y="934"/>
      <point x="42" y="865" type="curve"/>
      <point x="-15" y="956"/>
      <point x="-79" y="1018"/>
      <point x="-159" y="1018" type="curve" smooth="yes"/>
      <point x="-202" y="1018"/>
      <point x="-230" y="996"/>
      <point x="-230" y="956" type="curve" smooth="yes"/>
      <point x="-230" y="928"/>
      <point x="-214" y="900"/>
      <point x="-195" y="885" type="curve"/>
      <point x="-76" y="921" type="line"/>
      <point x="-54" y="910"/>
      <point x="5" y="844"/>
      <point x="56" y="753" type="curve" smooth="yes"/>
      <point x="65" y="738"/>
      <point x="92" y="682"/>
      <point x="106" y="650" type="curve"/>
      <point x="-31" y="650" type="line"/>
      <point x="-31" y="634" type="line"/>
      <point x="0" y="575" type="line"/>
      <point x="109" y="575" type="line"/>
      <point x="109" y="-1" type="line"/>
      <point x="182" y="-42" type="line"/>
      <point x="198" y="-42" type="line"/>
      <point x="198" y="575" type="line"/>
      <point x="307" y="575" type="line"/>
      <point x="307" y="590" type="line"/>
      <point x="275" y="650" type="line"/>
      <point x="180" y="650" type="line"/>
      <point x="150" y="706"/>
      <point x="123" y="754"/>
      <point x="123" y="814" type="curve" smooth="yes"/>
      <point x="123" y="878"/>
      <point x="164" y="909"/>
      <point x="213" y="909" type="curve" smooth="yes"/>
    </contour>
  </outline>
</glyph>
<glyph name="r_matra_u-deva" format="1">
  <advance width="600"/>
  <outline>
    <contour>
      <point x="187" y="211" type="line"/>
      <point x="218" y="239"/>
      <point x="252" y="276"/>
      <point x="268" y="329" type="curve"/>
      <point x="320" y="371"/>
      <point x="368" y="396"/>
      <point x="421" y="396" type="curve" smooth="yes"/>
      <point x="452" y="396"/>
      <point x="478" y="369"/>
      <point x="478" y="331" type="curve" smooth="yes"/>
      <point x="478" y="267"/>
      <point x="396" y="199"/>
      <point x="369" y="169" type="curve"/>
      <point x="445" y="101" type="line"/>
      <point x="483" y="149"/>
      <point x="539" y="222"/>
      <point x="539" y="277" type="curve" smooth="yes"/>
      <point x="539" y="375"/>
      <point x="470" y="475"/>
      <point x="404" y="475" type="curve" smooth="yes"/>
      <point x="361" y="475"/>
      <point x="318" y="457"/>
      <point x="279" y="433" type="curve"/>
      <point x="277" y="476"/>
      <point x="272" y="530"/>
      <point x="263" y="575" type="curve"/>
      <point x="600" y="575" type="line"/>
      <point x="600" y="590" type="line"/>
      <point x="569" y="650" type="line"/>
      <point x="-31" y="650" type="line"/>
      <point x="-31" y="634" type="line"/>
      <point x="0" y="575" type="line"/>
      <point x="188" y="575" type="line"/>
      <point x="195" y="535"/>
      <point x="199" y="482"/>
      <point x="199" y="450" type="curve" smooth="yes"/>
      <point x="199" y="407"/>
      <point x="184" y="358"/>
      <point x="174" y="340" type="curve"/>
      <point x="121" y="382" type="line"/>
      <point x="119" y="382" type="line"/>
      <point x="100" y="370"/>
      <point x="66" y="340"/>
      <point x="66" y="306" type="curve" smooth="yes"/>
      <point x="66" y="272"/>
      <point x="89" y="250"/>
      <point x="126" y="207" type="curve" smooth="yes"/>
      <point x="347" y="-47" type="line"/>
      <point x="396" y="-10" type="line"/>
    </contour>
    <contour>
      <point x="232" y="650" type="move" name="top"/>
    </contour>
    <contour>
      <point x="232" y="0" type="move" name="bottom"/>
    </contour>
  </outline>
</glyph>
<glyph name="uni0925094D0930" format="1">
  <advance width="684"/>
  <outline>
    <contour>
      <point x="98" y="659"/>
      <point x="47" y="625"/>
      <point x="47" y="555" type="curve" smooth="yes"/>
      <point x="47" y="464"/>
      <point x="129" y="385"/>
      <point x="217" y="346" type="curve"/>
      <point x="256" y="386" type="line"/>
      <point x="195" y="404"/>
      <point x="123" y="467"/>
      <point x="123" y="531" type="curve" smooth="yes"/>
      <point x="123" y="577"/>
      <point x="150" y="597"/>
      <point x="186" y="597" type="curve" smooth="yes"/>
      <point x="247" y="597"/>
      <point x="281" y="549"/>
      <point x="281" y="502" type="curve" smooth="yes"/>
      <point x="281" y="406"/>
      <point x="228" y="325"/>
      <point x="101" y="297" type="curve"/>
      <point x="149" y="170"/>
      <point x="220" y="113"/>
      <point x="333" y="112" type="curve" smooth="yes"/>
      <point x="392" y="111"/>
      <point x="446" y="141"/>
      <point x="484" y="168" type="curve"/>
      <point x="514" y="152" type="line"/>
      <point x="496" y="285" type="line" smooth="yes"/>
      <point x="467" y="244"/>
      <point x="380" y="183"/>
      <point x="294" y="183" type="curve" smooth="yes"/>
      <point x="238" y="183"/>
      <point x="199" y="209"/>
      <point x="186" y="245" type="curve"/>
      <point x="283" y="292"/>
      <point x="353" y="384"/>
      <point x="353" y="479" type="curve" smooth="yes"/>
      <point x="353" y="604"/>
      <point x="246" y="659"/>
      <point x="161" y="659" type="curve" smooth="yes"/>
    </contour>
    <contour>
      <point x="364" y="153" type="line"/>
      <point x="186" y="-5" type="line"/>
      <point x="248" y="-70" type="line"/>
      <point x="512" y="197" type="line"/>
    </contour>
    <contour>
      <point x="364" y="650" type="line"/>
      <point x="364" y="634" type="line"/>
      <point x="395" y="575" type="line"/>
      <point x="486" y="575" type="line"/>
      <point x="486" y="244" type="line"/>
      <point x="489" y="198" type="line"/>
      <point x="484" y="0" type="line"/>
      <point x="559" y="-42" type="line"/>
      <point x="575" y="-42" type="line"/>
      <point x="575" y="575" type="line"/>
      <point x="684" y="575" type="line"/>
      <point x="684" y="590" type="line"/>
      <point x="653" y="650" type="line"/>
    </contour>
    <contour>
      <point x="530" y="650" type="move" name="top"/>
    </contour>
    <contour>
      <point x="530" y="0" type="move" name="bottom"/>
    </contour>
  </outline>
</glyph>
<glyph name="uni091F094D091F" format="1">
  <advance width="554"/>
  <outline>
    <contour>
      <point x="-31" y="650" type="line"/>
      <point x="-31" y="634" type="line"/>
      <point x="0" y="575" type="line"/>
      <point x="314" y="575" type="line"/>
      <point x="314" y="501" type="line"/>
      <point x="203" y="497"/>
      <point x="69" y="447"/>
      <point x="69" y="320" type="curve" smooth="yes"/>
      <point x="69" y="224"/>
      <point x="152" y="121"/>
      <point x="302" y="121" type="curve" smooth="yes"/>
      <point x="369" y="121"/>
      <point x="436" y="131"/>
      <point x="529" y="177" type="curve"/>
      <point x="487" y="259" type="line"/>
      <point x="393" y="206"/>
      <point x="322" y="197"/>
      <point x="268" y="197" type="curve" smooth="yes"/>
      <point x="191" y="197"/>
      <point x="123" y="228"/>
      <point x="123" y="291" type="curve" smooth="yes"/>
      <point x="123" y="385"/>
      <point x="259" y="417"/>
      <point x="403" y="419" type="curve"/>
      <point x="403" y="575" type="line"/>
      <point x="554" y="575" type="line"/>
      <point x="554" y="590" type="line"/>
      <point x="522" y="650" type="line"/>
    </contour>
    <contour>
      <point x="319" y="151" type="line"/>
      <point x="319" y="75" type="line"/>
      <point x="203" y="72"/>
      <point x="69" y="21"/>
      <point x="69" y="-105" type="curve" smooth="yes"/>
      <point x="69" y="-202"/>
      <point x="152" y="-305"/>
      <point x="302" y="-305" type="curve" smooth="yes"/>
      <point x="369" y="-305"/>
      <point x="436" y="-295"/>
      <point x="529" y="-249" type="curve"/>
      <point x="487" y="-167" type="line"/>
      <point x="393" y="-220"/>
      <point x="322" y="-228"/>
      <point x="268" y="-228" type="curve" smooth="yes"/>
      <point x="191" y="-228"/>
      <point x="123" y="-197"/>
      <point x="123" y="-135" type="curve" smooth="yes"/>
      <point x="123" y="-41"/>
      <point x="262" y="-9"/>
      <point x="398" y="-7" type="curve"/>
      <point x="398" y="151" type="line"/>
    </contour>
    <contour>
      <point x="358" y="650" type="move" name="top"/>
    </contour>
    <contour>
      <point x="369" y="-305" type="move" name="bottom"/>
    </contour>
  </outline>
</glyph>
<glyph name="uni091F094D0935" format="1">
  <advance width="554"/>
  <outline>
    <contour>
      <point x="-31" y="650" type="line"/>
      <point x="-31" y="634" type="line"/>
      <point x="0" y="575" type="line"/>
      <point x="314" y="575" type="line"/>
      <point x="314" y="501" type="line"/>
      <point x="203" y="497"/>
      <point x="69" y="447"/>
      <point x="69" y="320" type="curve" smooth="yes"/>
      <point x="69" y="224"/>
      <point x="152" y="121"/>
      <point x="302" y="121" type="curve" smooth="yes"/>
      <point x="369" y="121"/>
      <point x="436" y="131"/>
      <point x="529" y="177" type="curve"/>
      <point x="487" y="259" type="line"/>
      <point x="393" y="206"/>
      <point x="322" y="197"/>
      <point x="268" y="197" type="curve" smooth="yes"/>
      <point x="191" y="197"/>
      <point x="123" y="228"/>
      <point x="123" y="291" type="curve" smooth="yes"/>
      <point x="123" y="385"/>
      <point x="259" y="417"/>
      <point x="403" y="419" type="curve"/>
      <point x="403" y="575" type="line"/>
      <point x="554" y="575" type="line"/>
      <point x="554" y="590" type="line"/>
      <point x="522" y="650" type="line"/>
    </contour>
    <contour>
      <point x="388" y="164" type="line"/>
      <point x="388" y="-24" type="line"/>
      <point x="386" y="-24" type="line"/>
      <point x="360" y="1"/>
      <point x="292" y="57"/>
      <point x="229" y="57" type="curve" smooth="yes"/>
      <point x="165" y="57"/>
      <point x="78" y="12"/>
      <point x="78" y="-99" type="curve" smooth="yes"/>
      <point x="78" y="-188"/>
      <point x="156" y="-235"/>
      <point x="226" y="-235" type="curve" smooth="yes"/>
      <point x="277" y="-235"/>
      <point x="335" y="-201"/>
      <point x="386" y="-165" type="curve"/>
      <point x="388" y="-167" type="line"/>
      <point x="388" y="-287" type="line"/>
      <point x="450" y="-321" type="line"/>
      <point x="466" y="-321" type="line"/>
      <point x="466" y="165" type="line"/>
    </contour>
    <contour>
      <point x="296" y="-23"/>
      <point x="355" y="-47"/>
      <point x="380" y="-70" type="curve"/>
      <point x="380" y="-72" type="line"/>
      <point x="337" y="-121"/>
      <point x="258" y="-169"/>
      <point x="191" y="-169" type="curve" smooth="yes"/>
      <point x="149" y="-169"/>
      <point x="118" y="-154"/>
      <point x="118" y="-121" type="curve" smooth="yes"/>
      <point x="118" y="-64"/>
      <point x="189" y="-23"/>
      <point x="261" y="-23" type="curve" smooth="yes"/>
    </contour>
    <contour>
      <point x="358" y="650" type="move" name="top"/>
    </contour>
    <contour>
      <point x="432" y="-284" type="move" name="bottom"/>
    </contour>
  </outline>
</glyph>
<glyph name="uni0920094D092F" format="1">
  <advance width="1212"/>
  <outline>
    <contour>
      <point x="-31" y="650" type="line"/>
      <point x="-31" y="634" type="line"/>
      <point x="0" y="575" type="line"/>
      <point x="1014" y="575" type="line"/>
      <point x="1014" y="239" type="line"/>
      <point x="978" y="198"/>
      <point x="899" y="148"/>
      <point x="822" y="148" type="curve" smooth="yes"/>
      <point x="767" y="148"/>
      <point x="736" y="175"/>
      <point x="714" y="220" type="curve"/>
      <point x="779" y="246"/>
      <point x="843" y="277"/>
      <point x="843" y="330" type="curve" smooth="yes"/>
      <point x="843" y="394"/>
      <point x="739" y="479"/>
      <point x="648" y="484" type="curve" smooth="yes"/>
      <point x="215" y="510"/>
      <point x="56" y="450"/>
      <point x="56" y="269" type="curve" smooth="yes"/>
      <point x="56" y="144"/>
      <point x="153" y="30"/>
      <point x="288" y="30" type="curve" smooth="yes"/>
      <point x="454" y="30"/>
      <point x="538" y="125"/>
      <point x="538" y="245" type="curve" smooth="yes"/>
      <point x="538" y="354"/>
      <point x="452" y="428"/>
      <point x="355" y="483" type="curve"/>
      <point x="369" y="407" type="line"/>
      <point x="414" y="393"/>
      <point x="465" y="347"/>
      <point x="465" y="287" type="curve" smooth="yes"/>
      <point x="465" y="197"/>
      <point x="410" y="107"/>
      <point x="254" y="107" type="curve" smooth="yes"/>
      <point x="195" y="107"/>
      <point x="110" y="144"/>
      <point x="110" y="240" type="curve" smooth="yes"/>
      <point x="110" y="348"/>
      <point x="240" y="427"/>
      <point x="704" y="407" type="curve" smooth="yes"/>
      <point x="754" y="405"/>
      <point x="770" y="385"/>
      <point x="770" y="358" type="curve" smooth="yes"/>
      <point x="770" y="322"/>
      <point x="697" y="291"/>
      <point x="629" y="272" type="curve"/>
      <point x="671" y="161"/>
      <point x="752" y="69"/>
      <point x="862" y="69" type="curve" smooth="yes"/>
      <point x="921" y="69"/>
      <point x="975" y="99"/>
      <point x="1013" y="125" type="curve"/>
      <point x="1015" y="124" type="line"/>
      <point x="1013" y="0" type="line"/>
      <point x="1087" y="-42" type="line"/>
      <point x="1103" y="-42" type="line"/>
      <point x="1103" y="575" type="line"/>
      <point x="1212" y="575" type="line"/>
      <point x="1212" y="590" type="line"/>
      <point x="1181" y="650" type="line"/>
    </contour>
    <contour>
      <point x="348" y="589"/>
      <point x="364" y="562"/>
      <point x="364" y="538" type="curve" smooth="yes"/>
      <point x="364" y="508"/>
      <point x="353" y="478"/>
      <point x="344" y="465" type="curve"/>
      <point x="420" y="430" type="line"/>
      <point x="438" y="460"/>
      <point x="453" y="494"/>
      <point x="453" y="523" type="curve" smooth="yes"/>
      <point x="453" y="552"/>
      <point x="438" y="580"/>
      <point x="419" y="608" type="curve"/>
      <point x="334" y="609" type="line"/>
    </contour>
    <contour>
      <point x="1058" y="650" type="move" name="top"/>
    </contour>
    <contour>
      <point x="1058" y="0" type="move" name="bottom"/>
    </contour>
  </outline>
</glyph>
<glyph name="uni0915094D" format="1">
  <advance width="603"/>
  <outline>
    <contour>
      <point x="722" y="341" type="line"/>
      <point x="693" y="378"/>
      <point x="653" y="399"/>
      <point x="594" y="399" type="curve" smooth="yes"/>
      <point x="551" y="399"/>
      <point x="512" y="375"/>
      <point x="489" y="359" type="curve"/>
      <point x="489" y="575" type="line"/>
      <point x="634" y="575" type="line"/>
      <point x="634" y="590" type="line"/>
      <point x="603" y="650" type="line"/>
      <point x="-31" y="650" type="line"/>
      <point x="-31" y="634" type="line"/>
      <point x="0" y="575" type="line"/>
      <point x="401" y="575" type="line"/>
      <point x="401" y="338" type="line"/>
      <point x="399" y="338" type="line"/>
      <point x="369" y="385"/>
      <point x="320" y="464"/>
      <point x="209" y="464" type="curve" smooth="yes"/>
      <point x="113" y="464"/>
      <point x="53" y="378"/>
      <point x="53" y="293" type="curve" smooth="yes"/>
      <point x="53" y="178"/>
      <point x="133" y="111"/>
      <point x="232" y="111" type="curve" smooth="yes"/>
      <point x="308" y="111"/>
      <point x="353" y="149"/>
      <point x="399" y="186" type="curve"/>
      <point x="403" y="184" type="line"/>
      <point x="399" y="0" type="line"/>
      <point x="473" y="-42" type="line"/>
      <point x="489" y="-42" type="line"/>
      <point x="489" y="264" type="line"/>
      <point x="527" y="295"/>
      <point x="571" y="325"/>
      <point x="620" y="325" type="curve" smooth="yes"/>
      <point x="645" y="325"/>
      <point x="670" y="313"/>
      <point x="685" y="296" type="curve"/>
    </contour>
    <contour>
      <point x="401" y="283" type="line"/>
      <point x="363" y="248"/>
      <point x="292" y="188"/>
      <point x="198" y="188" type="curve" smooth="yes"/>
      <point x="154" y="188"/>
      <point x="102" y="217"/>
      <point x="102" y="269" type="curve" smooth="yes"/>
      <point x="102" y="342"/>
      <point x="180" y="374"/>
      <point x="242" y="374" type="curve" smooth="yes"/>
      <point x="311" y="374"/>
      <point x="375" y="321"/>
      <point x="401" y="285" type="curve"/>
    </contour>
  </outline>
</glyph>
<glyph name="uni0915094D0932" format="1">
  <advance width="871"/>
  <outline>
    <contour>
      <point x="871" y="575" type="line"/>
      <point x="871" y="590" type="line"/>
      <point x="839" y="650" type="line"/>
      <point x="-31" y="650" type="line"/>
      <point x="-31" y="634" type="line"/>
      <point x="0" y="575" type="line"/>
      <point x="411" y="575" type="line"/>
      <point x="411" y="367" type="line"/>
      <point x="409" y="367" type="line"/>
      <point x="379" y="410"/>
      <point x="315" y="483"/>
      <point x="219" y="483" type="curve" smooth="yes"/>
      <point x="117" y="483"/>
      <point x="53" y="402"/>
      <point x="53" y="322" type="curve" smooth="yes"/>
      <point x="53" y="213"/>
      <point x="137" y="150"/>
      <point x="242" y="150" type="curve" smooth="yes"/>
      <point x="308" y="150"/>
      <point x="360" y="182"/>
      <point x="406" y="216" type="curve"/>
      <point x="410" y="214" type="line"/>
      <point x="411" y="-1" type="line"/>
      <point x="483" y="-42" type="line"/>
      <point x="499" y="-42" type="line"/>
      <point x="499" y="295" type="line"/>
      <point x="539" y="330"/>
      <point x="601" y="380"/>
      <point x="667" y="380" type="curve" smooth="yes"/>
      <point x="723" y="380"/>
      <point x="768" y="342"/>
      <point x="767" y="291" type="curve" smooth="yes"/>
      <point x="766" y="245"/>
      <point x="724" y="201"/>
      <point x="693" y="166" type="curve"/>
      <point x="761" y="114" type="line"/>
      <point x="790" y="150"/>
      <point x="818" y="212"/>
      <point x="818" y="266" type="curve" smooth="yes"/>
      <point x="818" y="360"/>
      <point x="752" y="454"/>
      <point x="641" y="454" type="curve" smooth="yes"/>
      <point x="581" y="454"/>
      <point x="521" y="412"/>
      <point x="499" y="394" type="curve"/>
      <point x="499" y="575" type="line"/>
    </contour>
    <contour>
      <point x="411" y="312" type="line"/>
      <point x="373" y="281"/>
      <point x="302" y="227"/>
      <point x="208" y="227" type="curve" smooth="yes"/>
      <point x="159" y="227"/>
      <point x="102" y="253"/>
      <point x="102" y="299" type="curve" smooth="yes"/>
      <point x="102" y="364"/>
      <point x="185" y="393"/>
      <point x="252" y="393" type="curve" smooth="yes"/>
      <point x="322" y="393"/>
      <point x="385" y="346"/>
      <point x="411" y="314" type="curve"/>
    </contour>
    <contour>
      <point x="523" y="70"/>
      <point x="469" y="39"/>
      <point x="427" y="-9" type="curve"/>
      <point x="386" y="42"/>
      <point x="323" y="83"/>
      <point x="256" y="83" type="curve" smooth="yes"/>
      <point x="175" y="83"/>
      <point x="114" y="26"/>
      <point x="114" y="-49" type="curve" smooth="yes"/>
      <point x="114" y="-150"/>
      <point x="235" y="-236"/>
      <point x="325" y="-302" type="curve"/>
      <point x="356" y="-269" type="line"/>
      <point x="254" y="-199"/>
      <point x="193" y="-132"/>
      <point x="193" y="-86" type="curve" smooth="yes"/>
      <point x="193" y="-40"/>
      <point x="226" y="4"/>
      <point x="292" y="4" type="curve" smooth="yes"/>
      <point x="339" y="4"/>
      <point x="374" y="-16"/>
      <point x="403" y="-48" type="curve"/>
      <point x="391" y="-67"/>
      <point x="383" y="-89"/>
      <point x="375" y="-110" type="curve"/>
      <point x="373" y="-110"/>
      <point x="450" y="-157"/>
      <point x="450" y="-157" type="curve"/>
      <point x="468" y="-97"/>
      <point x="500" y="16"/>
      <point x="616" y="16" type="curve" smooth="yes"/>
      <point x="651" y="16"/>
      <point x="682" y="-5"/>
      <point x="682" y="-43" type="curve" smooth="yes"/>
      <point x="682" y="-98"/>
      <point x="613" y="-164"/>
      <point x="547" y="-217" type="curve"/>
      <point x="547" y="-217"/>
      <point x="625" y="-272"/>
      <point x="624" y="-271" type="curve"/>
      <point x="696" y="-207"/>
      <point x="755" y="-132"/>
      <point x="755" y="-69" type="curve" smooth="yes"/>
      <point x="755" y="-7"/>
      <point x="666" y="70"/>
      <point x="585" y="70" type="curve"/>
    </contour>
    <contour>
      <point x="445" y="650" type="move" name="top"/>
    </contour>
    <contour>
      <point x="555" y="-240" type="move" name="bottom"/>
    </contour>
  </outline>
</glyph>
<glyph name="uni0915094D_kadeva" format="1">
  <advance width="851"/>
  <outline>
    <contour>
      <point x="753" y="226" type="line"/>
      <point x="768" y="255"/>
      <point x="780" y="280"/>
      <point x="780" y="311" type="curve" smooth="yes"/>
      <point x="780" y="362"/>
      <point x="698" y="490"/>
      <point x="622" y="490" type="curve" smooth="yes"/>
      <point x="569" y="490"/>
      <point x="528" y="457"/>
      <point x="489" y="422" type="curve"/>
      <point x="489" y="575" type="line"/>
      <point x="851" y="575" type="line"/>
      <point x="851" y="590" type="line"/>
      <point x="820" y="650" type="line"/>
      <point x="-31" y="650" type="line"/>
      <point x="-31" y="634" type="line"/>
      <point x="0" y="575" type="line"/>
      <point x="401" y="575" type="line"/>
      <point x="401" y="412" type="line"/>
      <point x="399" y="412" type="line"/>
      <point x="360" y="459"/>
      <point x="302" y="519"/>
      <point x="218" y="519" type="curve" smooth="yes"/>
      <point x="132" y="519"/>
      <point x="71" y="433"/>
      <point x="71" y="367" type="curve" smooth="yes"/>
      <point x="71" y="319"/>
      <point x="91" y="278"/>
      <point x="121" y="251" type="curve"/>
      <point x="103" y="225"/>
      <point x="90" y="197"/>
      <point x="90" y="172" type="curve" smooth="yes"/>
      <point x="90" y="103"/>
      <point x="170" y="28"/>
      <point x="251" y="28" type="curve" smooth="yes"/>
      <point x="308" y="28"/>
      <point x="353" y="57"/>
      <point x="399" y="85" type="curve"/>
      <point x="402" y="83" type="line"/>
      <point x="399" y="0" type="line"/>
      <point x="473" y="-42" type="line"/>
      <point x="489" y="-42" type="line"/>
      <point x="489" y="136" type="line"/>
      <point x="528" y="174"/>
      <point x="582" y="212"/>
      <point x="638" y="212" type="curve" smooth="yes"/>
      <point x="689" y="212"/>
      <point x="701" y="180"/>
      <point x="701" y="150" type="curve" smooth="yes"/>
      <point x="701" y="110"/>
      <point x="664" y="63"/>
      <point x="635" y="32" type="curve"/>
      <point x="705" y="-39" type="line"/>
      <point x="737" y="11"/>
      <point x="770" y="51"/>
      <point x="770" y="106" type="curve" smooth="yes"/>
      <point x="770" y="167"/>
      <point x="679" y="286"/>
      <point x="613" y="286" type="curve" smooth="yes"/>
      <point x="560" y="286"/>
      <point x="519" y="253"/>
      <point x="489" y="225" type="curve"/>
      <point x="489" y="332" type="line" smooth="yes"/>
      <point x="538" y="377"/>
      <point x="591" y="416"/>
      <point x="648" y="416" type="curve" smooth="yes"/>
      <point x="698" y="416"/>
      <point x="711" y="384"/>
      <point x="711" y="354" type="curve" smooth="yes"/>
      <point x="711" y="334"/>
      <point x="698" y="305"/>
      <point x="688" y="294" type="curve"/>
    </contour>
    <contour>
      <point x="401" y="357" type="line"/>
      <point x="363" y="322"/>
      <point x="277" y="272"/>
      <point x="207" y="272" type="curve" smooth="yes"/>
      <point x="168" y="272"/>
      <point x="120" y="300"/>
      <point x="120" y="344" type="curve" smooth="yes"/>
      <point x="120" y="407"/>
      <point x="193" y="439"/>
      <point x="252" y="439" type="curve" smooth="yes"/>
      <point x="315" y="439"/>
      <point x="375" y="395"/>
      <point x="401" y="359" type="curve"/>
    </contour>
    <contour>
      <point x="299" y="204"/>
      <point x="353" y="247"/>
      <point x="399" y="270" type="curve"/>
      <point x="401" y="269" type="line"/>
      <point x="401" y="173" type="line"/>
      <point x="358" y="139"/>
      <point x="273" y="96"/>
      <point x="217" y="96" type="curve" smooth="yes"/>
      <point x="178" y="96"/>
      <point x="147" y="114"/>
      <point x="147" y="148" type="curve" smooth="yes"/>
      <point x="147" y="177"/>
      <point x="162" y="198"/>
      <point x="183" y="214" type="curve"/>
      <point x="201" y="207"/>
      <point x="221" y="204"/>
      <point x="241" y="204" type="curve" smooth="yes"/>
    </contour>
    <contour>
      <point x="445" y="650" type="move" name="top"/>
    </contour>
    <contour>
      <point x="445" y="0" type="move" name="bottom"/>
    </contour>
  </outline>
</glyph>
<glyph name="uni0915094D_radeva" format="1">
  <advance width="851"/>
  <outline>
    <contour>
      <point x="111" y="-58" type="line"/>
      <point x="401" y="192" type="line"/>
      <point x="403" y="191" type="line"/>
      <point x="399" y="0" type="line"/>
      <point x="473" y="-42" type="line"/>
      <point x="489" y="-42" type="line"/>
      <point x="489" y="265" type="line"/>
      <point x="529" y="305"/>
      <point x="591" y="360"/>
      <point x="657" y="360" type="curve" smooth="yes"/>
      <point x="708" y="360"/>
      <point x="748" y="318"/>
      <point x="748" y="262" type="curve" smooth="yes"/>
      <point x="748" y="203"/>
      <point x="691" y="128"/>
      <point x="664" y="98" type="curve"/>
      <point x="732" y="26" type="line"/>
      <point x="765" y="76"/>
      <point x="798" y="181"/>
      <point x="798" y="237" type="curve" smooth="yes"/>
      <point x="798" y="352"/>
      <point x="745" y="434"/>
      <point x="631" y="434" type="curve" smooth="yes"/>
      <point x="571" y="434"/>
      <point x="511" y="386"/>
      <point x="489" y="365" type="curve"/>
      <point x="489" y="575" type="line"/>
      <point x="851" y="575" type="line"/>
      <point x="851" y="590" type="line"/>
      <point x="820" y="650" type="line"/>
      <point x="-31" y="650" type="line"/>
      <point x="-31" y="634" type="line"/>
      <point x="0" y="575" type="line"/>
      <point x="401" y="575" type="line"/>
      <point x="401" y="338" type="line"/>
      <point x="399" y="338" type="line"/>
      <point x="369" y="385"/>
      <point x="320" y="464"/>
      <point x="209" y="464" type="curve" smooth="yes"/>
      <point x="113" y="464"/>
      <point x="53" y="378"/>
      <point x="53" y="293" type="curve" smooth="yes"/>
      <point x="53" y="194"/>
      <point x="122" y="130"/>
      <point x="212" y="122" type="curve"/>
      <point x="49" y="10" type="line"/>
    </contour>
    <contour>
      <point x="401" y="283" type="line"/>
      <point x="363" y="248"/>
      <point x="292" y="188"/>
      <point x="198" y="188" type="curve" smooth="yes"/>
      <point x="154" y="188"/>
      <point x="102" y="217"/>
      <point x="102" y="269" type="curve" smooth="yes"/>
      <point x="102" y="342"/>
      <point x="180" y="374"/>
      <point x="242" y="374" type="curve" smooth="yes"/>
      <point x="311" y="374"/>
      <point x="375" y="321"/>
      <point x="401" y="285" type="curve"/>
    </contour>
    <contour>
      <point x="445" y="650" type="move" name="top"/>
    </contour>
    <contour>
      <point x="445" y="0" type="move" name="bottom"/>
    </contour>
  </outline>
</glyph>
<glyph name="uni0915094D_tadeva" format="1">
  <advance width="961"/>
  <outline>
    <contour>
      <point x="961" y="575" type="line"/>
      <point x="961" y="590" type="line"/>
      <point x="930" y="650" type="line"/>
      <point x="-31" y="650" type="line"/>
      <point x="-31" y="634" type="line"/>
      <point x="0" y="575" type="line"/>
      <point x="511" y="575" type="line"/>
      <point x="511" y="427" type="line"/>
      <point x="19" y="427" type="line"/>
      <point x="19" y="412" type="line"/>
      <point x="50" y="352" type="line"/>
      <point x="171" y="352" type="line"/>
      <point x="149" y="326"/>
      <point x="139" y="294"/>
      <point x="139" y="266" type="curve" smooth="yes"/>
      <point x="139" y="144"/>
      <point x="242" y="52"/>
      <point x="346" y="-25" type="curve"/>
      <point x="375" y="6" type="line"/>
      <point x="273" y="80"/>
      <point x="218" y="158"/>
      <point x="218" y="234" type="curve" smooth="yes"/>
      <point x="218" y="290"/>
      <point x="264" y="352"/>
      <point x="331" y="352" type="curve" smooth="yes"/>
      <point x="511" y="352" type="line"/>
      <point x="511" y="-1" type="line"/>
      <point x="584" y="-42" type="line"/>
      <point x="599" y="-42" type="line"/>
      <point x="599" y="265" type="line"/>
      <point x="639" y="305"/>
      <point x="702" y="360"/>
      <point x="767" y="360" type="curve" smooth="yes"/>
      <point x="818" y="360"/>
      <point x="858" y="318"/>
      <point x="858" y="262" type="curve" smooth="yes"/>
      <point x="858" y="203"/>
      <point x="801" y="128"/>
      <point x="774" y="98" type="curve"/>
      <point x="842" y="26" type="line"/>
      <point x="875" y="76"/>
      <point x="909" y="181"/>
      <point x="909" y="237" type="curve" smooth="yes"/>
      <point x="909" y="352"/>
      <point x="855" y="434"/>
      <point x="742" y="434" type="curve" smooth="yes"/>
      <point x="681" y="434"/>
      <point x="622" y="386"/>
      <point x="599" y="365" type="curve"/>
      <point x="599" y="575" type="line"/>
    </contour>
    <contour>
      <point x="555" y="650" type="move" name="top"/>
    </contour>
    <contour>
      <point x="555" y="0" type="move" name="bottom"/>
    </contour>
  </outline>
</glyph>
<glyph name="uni0917094D_radeva" format="1">
  <advance width="628"/>
  <outline>
    <contour>
      <point x="182" y="-27" type="line"/>
      <point x="182" y="-27"/>
      <point x="352" y="116"/>
      <point x="427" y="180" type="curve"/>
      <point x="430" y="178" type="line"/>
      <point x="427" y="0" type="line"/>
      <point x="502" y="-42" type="line"/>
      <point x="518" y="-42" type="line"/>
      <point x="518" y="575" type="line"/>
      <point x="628" y="575" type="line"/>
      <point x="628" y="590" type="line"/>
      <point x="596" y="650" type="line"/>
      <point x="-31" y="650" type="line"/>
      <point x="-31" y="634" type="line"/>
      <point x="0" y="575" type="line"/>
      <point x="143" y="575" type="line"/>
      <point x="143" y="384" type="line"/>
      <point x="45" y="396" type="line"/>
      <point x="41" y="386"/>
      <point x="39" y="372"/>
      <point x="39" y="355" type="curve" smooth="yes"/>
      <point x="39" y="312"/>
      <point x="73" y="232"/>
      <point x="153" y="232" type="curve" smooth="yes"/>
      <point x="225" y="232"/>
      <point x="236" y="304"/>
      <point x="236" y="340" type="curve" smooth="yes"/>
      <point x="236" y="392"/>
      <point x="229" y="487"/>
      <point x="220" y="575" type="curve"/>
      <point x="429" y="575" type="line"/>
      <point x="429" y="279" type="line"/>
      <point x="125" y="41" type="line"/>
    </contour>
    <contour>
      <point x="473" y="650" type="move" name="top"/>
    </contour>
    <contour>
      <point x="473" y="0" type="move" name="bottom"/>
    </contour>
  </outline>
</glyph>
<glyph name="uni0918094D_radeva" format="1">
  <advance width="647"/>
  <outline>
    <contour>
      <point x="674" y="575" type="line"/>
      <point x="674" y="590" type="line"/>
      <point x="643" y="650" type="line"/>
      <point x="-31" y="650" type="line"/>
      <point x="-31" y="634" type="line"/>
      <point x="0" y="575" type="line"/>
      <point x="66" y="575" type="line"/>
      <point x="63" y="557"/>
      <point x="61" y="540"/>
      <point x="61" y="527" type="curve" smooth="yes"/>
      <point x="61" y="459"/>
      <point x="119" y="430"/>
      <point x="180" y="402" type="curve"/>
      <point x="132" y="371"/>
      <point x="99" y="316"/>
      <point x="99" y="261" type="curve" smooth="yes"/>
      <point x="99" y="218"/>
      <point x="142" y="171"/>
      <point x="178" y="142" type="curve" smooth="yes"/>
      <point x="207" y="119"/>
      <point x="239" y="107"/>
      <point x="274" y="104" type="curve"/>
      <point x="149" y="9" type="line"/>
      <point x="211" y="-58" type="line"/>
      <point x="476" y="189" type="line"/>
      <point x="479" y="188" type="line"/>
      <point x="475" y="0" type="line"/>
      <point x="549" y="-42" type="line"/>
      <point x="565" y="-42" type="line"/>
      <point x="565" y="575" type="line"/>
    </contour>
    <contour>
      <point x="374" y="376" type="line"/>
      <point x="367" y="394"/>
      <point x="358" y="415"/>
      <point x="358" y="415" type="curve"/>
      <point x="336" y="426"/>
      <point x="294" y="428"/>
      <point x="265" y="428" type="curve" smooth="yes"/>
      <point x="260" y="428"/>
      <point x="255" y="427"/>
      <point x="249" y="427" type="curve" smooth="yes"/>
      <point x="211" y="428"/>
      <point x="143" y="461"/>
      <point x="143" y="504" type="curve" smooth="yes"/>
      <point x="143" y="536"/>
      <point x="156" y="560"/>
      <point x="178" y="575" type="curve"/>
      <point x="477" y="575" type="line"/>
      <point x="477" y="314" type="line"/>
      <point x="441" y="252"/>
      <point x="327" y="174"/>
      <point x="258" y="174" type="curve" smooth="yes"/>
      <point x="224" y="174"/>
      <point x="175" y="189"/>
      <point x="175" y="233" type="curve" smooth="yes"/>
      <point x="175" y="286"/>
      <point x="217" y="358"/>
      <point x="292" y="358" type="curve" smooth="yes"/>
      <point x="316" y="358"/>
      <point x="340" y="356"/>
      <point x="364" y="350" type="curve"/>
    </contour>
    <contour>
      <point x="521" y="650" type="move" name="top"/>
    </contour>
    <contour>
      <point x="521" y="0" type="move" name="bottom"/>
    </contour>
  </outline>
</glyph>
<glyph name="uni0919094D0915094D_ssadeva" format="1">
  <advance width="704"/>
  <outline>
    <contour>
      <point x="-31" y="650" type="line"/>
      <point x="-31" y="634" type="line"/>
      <point x="0" y="575" type="line"/>
      <point x="366" y="575" type="line"/>
      <point x="366" y="495" type="line"/>
      <point x="213" y="495" type="line" smooth="yes"/>
      <point x="159" y="495"/>
      <point x="123" y="468"/>
      <point x="123" y="413" type="curve" smooth="yes"/>
      <point x="123" y="363"/>
      <point x="226" y="269"/>
      <point x="264" y="269" type="curve" smooth="yes"/>
      <point x="302" y="269"/>
      <point x="359" y="298"/>
      <point x="420" y="298" type="curve"/>
      <point x="431" y="292"/>
      <point x="442" y="274"/>
      <point x="442" y="255" type="curve" smooth="yes"/>
      <point x="442" y="215"/>
      <point x="393" y="188"/>
      <point x="321" y="188" type="curve" smooth="yes"/>
      <point x="224" y="188"/>
      <point x="148" y="223"/>
      <point x="54" y="347" type="curve"/>
      <point x="17" y="310" type="line"/>
      <point x="131" y="174"/>
      <point x="239" y="125"/>
      <point x="348" y="121" type="curve"/>
      <point x="475" y="121"/>
      <point x="513" y="183"/>
      <point x="513" y="232" type="curve" smooth="yes"/>
      <point x="513" y="277"/>
      <point x="436" y="364"/>
      <point x="379" y="364" type="curve" smooth="yes"/>
      <point x="345" y="364"/>
      <point x="253" y="339"/>
      <point x="237" y="339" type="curve" smooth="yes"/>
      <point x="225" y="339"/>
      <point x="208" y="355"/>
      <point x="208" y="379" type="curve" smooth="yes"/>
      <point x="208" y="397"/>
      <point x="218" y="425"/>
      <point x="245" y="425" type="curve" smooth="yes"/>
      <point x="455" y="425" type="line"/>
      <point x="455" y="575" type="line"/>
      <point x="704" y="575" type="line"/>
      <point x="704" y="590" type="line"/>
      <point x="671" y="650" type="line"/>
    </contour>
    <contour>
      <point x="99" y="207"/>
      <point x="17" y="159"/>
      <point x="17" y="107" type="curve" smooth="yes"/>
      <point x="17" y="64"/>
      <point x="61" y="14"/>
      <point x="121" y="-18" type="curve"/>
      <point x="190" y="-53" type="line"/>
      <point x="233" y="-88"/>
      <point x="274" y="-110"/>
      <point x="339" y="-110" type="curve" smooth="yes"/>
      <point x="369" y="-110"/>
      <point x="403" y="-102"/>
      <point x="426" y="-88" type="curve"/>
      <point x="427" y="-88" type="line"/>
      <point x="427" y="-4" type="line"/>
      <point x="395" y="-32"/>
      <point x="347" y="-49"/>
      <point x="299" y="-49" type="curve" smooth="yes"/>
      <point x="271" y="-49"/>
      <point x="242" y="-45"/>
      <point x="218" y="-35" type="curve"/>
      <point x="151" y="-1" type="line"/>
      <point x="118" y="18"/>
      <point x="92" y="57"/>
      <point x="92" y="79" type="curve" smooth="yes"/>
      <point x="92" y="120"/>
      <point x="132" y="138"/>
      <point x="167" y="138" type="curve" smooth="yes"/>
      <point x="196" y="138"/>
      <point x="240" y="120"/>
      <point x="240" y="72" type="curve" smooth="yes"/>
      <point x="240" y="41"/>
      <point x="199" y="21"/>
      <point x="151" y="4" type="curve"/>
      <point x="121" y="-13" type="line"/>
      <point x="61" y="-43"/>
      <point x="-2" y="-75"/>
      <point x="-2" y="-121" type="curve" smooth="yes"/>
      <point x="-2" y="-206"/>
      <point x="116" y="-284"/>
      <point x="171" y="-284" type="curve" smooth="yes"/>
      <point x="188" y="-284"/>
      <point x="206" y="-282"/>
      <point x="224" y="-277" type="curve"/>
      <point x="271" y="-386" type="line"/>
      <point x="318" y="-363" type="line"/>
      <point x="260" y="-266" type="line"/>
      <point x="285" y="-253"/>
      <point x="303" y="-230"/>
      <point x="303" y="-200" type="curve" smooth="yes"/>
      <point x="303" y="-157"/>
      <point x="280" y="-126"/>
      <point x="232" y="-126" type="curve" smooth="yes"/>
      <point x="222" y="-126"/>
      <point x="200" y="-130"/>
      <point x="186" y="-139" type="curve"/>
      <point x="200" y="-213" type="line"/>
      <point x="178" y="-221"/>
      <point x="163" y="-225"/>
      <point x="136" y="-225" type="curve" smooth="yes"/>
      <point x="99" y="-225"/>
      <point x="75" y="-190"/>
      <point x="75" y="-158" type="curve" smooth="yes"/>
      <point x="75" y="-108"/>
      <point x="136" y="-90"/>
      <point x="190" y="-58" type="curve"/>
      <point x="218" y="-40" type="line"/>
      <point x="264" y="-20"/>
      <point x="298" y="11"/>
      <point x="298" y="54" type="curve" smooth="yes"/>
      <point x="298" y="116"/>
      <point x="199" y="207"/>
      <point x="143" y="207" type="curve" smooth="yes"/>
    </contour>
    <contour>
      <point x="530" y="391" type="line"/>
      <point x="607" y="313" type="line"/>
      <point x="684" y="392" type="line"/>
      <point x="606" y="470" type="line"/>
    </contour>
    <contour>
      <point x="415" y="175" type="line"/>
      <point x="415" y="-279" type="line"/>
      <point x="487" y="-321" type="line"/>
      <point x="503" y="-321" type="line"/>
      <point x="503" y="233" type="line"/>
    </contour>
    <contour>
      <point x="459" y="-279" type="move" name=" bottom"/>
    </contour>
    <contour>
      <point x="410" y="650" type="move" name="top"/>
    </contour>
  </outline>
</glyph>
<glyph name="uni0919094D_gadeva" format="1">
  <advance width="704"/>
  <outline>
    <contour>
      <point x="183" y="220" type="line"/>
      <point x="183" y="12" type="line"/>
      <point x="84" y="24" type="line"/>
      <point x="80" y="14"/>
      <point x="78" y="0"/>
      <point x="78" y="-17" type="curve" smooth="yes"/>
      <point x="78" y="-61"/>
      <point x="112" y="-140"/>
      <point x="192" y="-140" type="curve" smooth="yes"/>
      <point x="264" y="-140"/>
      <point x="275" y="-68"/>
      <point x="275" y="-32" type="curve" smooth="yes"/>
      <point x="275" y="27"/>
      <point x="265" y="112"/>
      <point x="255" y="171" type="curve"/>
    </contour>
    <contour>
      <point x="-31" y="650" type="line"/>
      <point x="-31" y="634" type="line"/>
      <point x="0" y="575" type="line"/>
      <point x="366" y="575" type="line"/>
      <point x="366" y="495" type="line"/>
      <point x="213" y="495" type="line" smooth="yes"/>
      <point x="159" y="495"/>
      <point x="123" y="468"/>
      <point x="123" y="413" type="curve" smooth="yes"/>
      <point x="123" y="363"/>
      <point x="226" y="269"/>
      <point x="264" y="269" type="curve" smooth="yes"/>
      <point x="302" y="269"/>
      <point x="359" y="298"/>
      <point x="420" y="298" type="curve"/>
      <point x="431" y="292"/>
      <point x="442" y="274"/>
      <point x="442" y="255" type="curve" smooth="yes"/>
      <point x="442" y="215"/>
      <point x="393" y="188"/>
      <point x="321" y="188" type="curve" smooth="yes"/>
      <point x="224" y="188"/>
      <point x="148" y="223"/>
      <point x="54" y="347" type="curve"/>
      <point x="17" y="310" type="line"/>
      <point x="131" y="174"/>
      <point x="239" y="125"/>
      <point x="348" y="121" type="curve"/>
      <point x="475" y="121"/>
      <point x="513" y="183"/>
      <point x="513" y="232" type="curve" smooth="yes"/>
      <point x="513" y="277"/>
      <point x="436" y="364"/>
      <point x="379" y="364" type="curve" smooth="yes"/>
      <point x="345" y="364"/>
      <point x="253" y="339"/>
      <point x="237" y="339" type="curve" smooth="yes"/>
      <point x="225" y="339"/>
      <point x="208" y="355"/>
      <point x="208" y="379" type="curve" smooth="yes"/>
      <point x="208" y="397"/>
      <point x="218" y="425"/>
      <point x="245" y="425" type="curve" smooth="yes"/>
      <point x="455" y="425" type="line"/>
      <point x="455" y="575" type="line"/>
      <point x="704" y="575" type="line"/>
      <point x="704" y="590" type="line"/>
      <point x="671" y="650" type="line"/>
    </contour>
    <contour>
      <point x="607" y="313" type="line"/>
      <point x="684" y="392" type="line"/>
      <point x="606" y="470" type="line"/>
      <point x="530" y="391" type="line"/>
    </contour>
    <contour>
      <point x="415" y="175" type="line"/>
      <point x="415" y="-279" type="line"/>
      <point x="487" y="-321" type="line"/>
      <point x="503" y="-321" type="line"/>
      <point x="503" y="233" type="line"/>
    </contour>
    <contour>
      <point x="410" y="650" type="move" name="top"/>
    </contour>
    <contour>
      <point x="459" y="-279" type="move" name="bottom"/>
    </contour>
  </outline>
</glyph>
